<?xml version="1.0" encoding="UTF-8" standalone="no"?>
<!-- Created with Inkscape (http://www.inkscape.org/) -->

<svg
   width="121.60379mm"
   height="169.15868mm"
   viewBox="0 0 121.60379 169.15868"
   version="1.1"
   id="svg1"
   xml:space="preserve"
   sodipodi:docname="caballete.svg"
   inkscape:version="1.3 (0e150ed6c4, 2023-07-21)"
   xmlns:inkscape="http://www.inkscape.org/namespaces/inkscape"
   xmlns:sodipodi="http://sodipodi.sourceforge.net/DTD/sodipodi-0.dtd"
   xmlns="http://www.w3.org/2000/svg"
   xmlns:svg="http://www.w3.org/2000/svg"><sodipodi:namedview
     id="namedview1"
     pagecolor="#ffffff"
     bordercolor="#000000"
     borderopacity="0.25"
     inkscape:showpageshadow="2"
     inkscape:pageopacity="0.0"
     inkscape:pagecheckerboard="0"
     inkscape:deskcolor="#d1d1d1"
     inkscape:document-units="mm"
     inkscape:zoom="1.2716241"
     inkscape:cx="229.62761"
     inkscape:cy="319.66994"
     inkscape:window-width="1920"
     inkscape:window-height="1009"
     inkscape:window-x="-8"
     inkscape:window-y="-8"
     inkscape:window-maximized="1"
     inkscape:current-layer="svg1" /><defs
     id="defs1" /><g
     id="layer1"
     transform="translate(-46.216985,-50.696829)"><path
       style="fill:#000000"
       d="m 47.27979,219.49108 c -0.32051,-0.22449 -0.72147,-0.87118 -0.89102,-1.43709 -0.26627,-0.88872 -0.23946,-1.14881 0.19674,-1.90866 0.28978,-0.50479 1.00558,-1.13345 1.6795,-1.47504 1.06593,-0.54029 1.54886,-0.59531 5.22484,-0.59531 h 4.05036 l -0.50225,-0.99219 c -0.64146,-1.26717 -0.9053,-2.50144 -0.86996,-4.06975 0.0269,-1.19256 2.01465,-7.041 7.67697,-22.58702 l 1.83101,-5.02709 -0.99035,-0.92604 c -1.73842,-1.62555 -1.72124,-1.56729 -1.86451,-6.32358 l -0.13229,-4.39204 -3.88424,-0.13229 C 54.51563,169.4789 54.06351,169.31884 52.8331,167.511 l -0.59531,-0.8747 v -40.58291 c 0,-33.677139 0.0614,-40.729902 0.3609,-41.446673 0.46013,-1.101242 1.75949,-2.196906 3.02075,-2.547193 0.60746,-0.168708 5.41328,-0.27384 12.5595,-0.274751 l 11.57552,-0.0015 v -4.414381 c 0,-5.14577 0.30921,-6.194456 2.19472,-7.443181 l 1.07227,-0.710146 7.03161,-0.132292 7.03161,-0.132292 0.13229,-6.217708 c 0.12164,-5.717122 0.17813,-6.302915 0.70168,-7.276042 0.86748,-1.612414 2.42254,-3.0277 4.3254,-3.936624 1.6503,-0.788283 1.85901,-0.821568 5.16494,-0.823678 3.35063,-0.0021 3.49282,0.02127 5.18304,0.853366 1.07242,0.52795 2.25239,1.399563 3.0815,2.276218 1.97415,2.087376 2.18094,3.011691 2.18094,9.748532 v 5.508228 l 6.68073,0.0015 c 3.6744,8.11e-4 7.10273,0.11871 7.6185,0.261996 1.06384,0.295541 2.46482,1.622579 2.88246,2.730315 0.15753,0.417854 0.28081,2.706317 0.28081,5.212982 v 4.468153 l 11.97239,0.07869 c 13.51898,0.08885 13.3243,0.06037 14.70799,2.151198 l 0.70399,1.063769 0.0686,40.788544 0.0686,40.78855 -0.59779,0.87836 c -1.23309,1.81186 -1.68349,1.97152 -5.97396,2.11765 l -3.88424,0.13229 -0.13229,4.36562 c -0.0831,2.74255 -0.25362,4.57744 -0.45864,4.93536 -0.17949,0.31335 -0.80631,0.96842 -1.39295,1.4557 l -1.0666,0.88599 3.86727,10.58283 c 6.06796,16.60505 6.00571,16.41421 5.87366,18.00661 -0.0633,0.76337 -0.41549,1.99491 -0.78263,2.73677 l -0.66753,1.34883 3.46527,0.006 c 2.79336,0.005 3.67049,0.10004 4.52361,0.4918 1.40516,0.64525 2.00018,1.36148 2.16751,2.60905 0.11274,0.8405 0.015,1.17438 -0.52867,1.80647 l -0.66696,0.77541 -59.36055,0.0679 c -53.13842,0.0608 -59.42163,0.0251 -59.94329,-0.3403 z m 49.72447,-17.71923 c 0.1013,-6.54844 0.1013,-13.57312 0,-15.61042 l -0.18418,-3.70416 -5.32354,-0.0715 -5.32355,-0.0715 -0.55501,1.52672 c -0.30526,0.8397 -1.70242,4.62235 -3.10481,8.40589 -6.07638,16.39372 -7.7858,21.07324 -7.7858,21.31358 0,0.16166 4.06453,0.23036 11.04636,0.18672 l 11.04635,-0.0691 z m 43.47409,11.57552 c -0.10279,-0.25466 -0.60032,-1.59411 -1.10562,-2.97656 -1.1359,-3.10766 -8.84155,-23.81265 -9.77496,-26.26519 l -0.68173,-1.79123 -5.46464,0.0714 -5.46465,0.0714 -0.0687,15.34583 c -0.0378,8.44021 -0.0117,15.49466 0.0578,15.67656 0.0985,0.25744 2.62666,0.33073 11.40792,0.33073 10.639,0 11.27076,-0.0264 11.09451,-0.46302 z m -30.72555,-15.9815 c 0.128,-6.93444 0.15309,-13.03256 0.0558,-13.55139 -0.25596,-1.36436 -0.76901,-1.75409 -2.30914,-1.75409 -2.5638,0 -2.34496,-1.31779 -2.34496,14.12042 0,7.46495 0.0839,13.65658 0.18654,13.75918 0.1026,0.1026 1.08486,0.15221 2.18281,0.11024 l 1.99627,-0.0763 z m -41.98949,12.14504 c 0.116,-0.1819 0.94597,-2.35479 1.84437,-4.82864 0.89841,-2.47386 3.01941,-8.2349 4.71335,-12.80232 1.69393,-4.56741 3.14805,-8.64531 3.23139,-9.06198 l 0.15152,-0.75758 h -1.85276 c -2.04584,0 -2.20101,0.0985 -2.71003,1.71979 -0.18275,0.58209 -2.28186,6.44038 -4.66469,13.01843 -2.38283,6.57806 -4.33242,12.20376 -4.33242,12.50157 0,0.48952 0.16348,0.54146 1.70418,0.54146 1.07446,0 1.78211,-0.1222 1.91509,-0.33073 z m 83.30892,0.0458 c 0.0968,-0.15671 -0.008,-0.78178 -0.23377,-1.38906 -2.03938,-5.49406 -6.55573,-17.92843 -7.5125,-20.68332 -0.657,-1.89177 -1.42053,-3.88607 -1.69674,-4.43177 l -0.50218,-0.99219 h -1.72272 c -1.15864,0 -1.76542,0.11127 -1.85311,0.33981 -0.0717,0.18689 0.57664,2.30025 1.4408,4.69635 2.02199,5.60649 7.58445,20.46179 8.14521,21.75291 l 0.43094,0.99218 h 1.66399 c 0.9152,0 1.74323,-0.12821 1.84008,-0.28491 z m -7.14074,-35.27992 c 0.43274,-0.31618 0.51359,-0.70147 0.51359,-2.4474 v -2.07214 l -36.80669,-0.0671 -36.80669,-0.0671 -0.17201,1.46354 c -0.17713,1.5071 -0.0236,2.65574 0.4324,3.23466 0.20611,0.26169 7.78235,0.33073 36.29315,0.33073 30.68845,0 36.10884,-0.0557 36.54625,-0.37525 z m 10.61685,-13.16462 0.61237,-0.57529 v -34.74659 c 0,-34.393818 -0.005,-34.751968 -0.52917,-35.275762 -0.52516,-0.525165 -0.88194,-0.529167 -47.17521,-0.529167 -35.92748,0 -46.719,0.07296 -46.96354,0.3175 -0.24375,0.243749 -0.3175,8.459105 -0.3175,35.367199 0,32.24281 0.0351,35.08843 0.43788,35.53354 0.42105,0.46525 2.22366,0.48386 46.88035,0.48386 h 46.44246 z m -65.46732,-8.03276 c -0.72786,-0.51082 -0.78955,-1.97191 -0.21093,-4.99606 1.01416,-5.30055 3.05035,-9.29397 6.69718,-13.13468 l 2.45135,-2.58168 -2.45351,-2.73612 c -1.34944,-1.50487 -2.96965,-3.3612 -3.60047,-4.12519 -0.63083,-0.76398 -1.2912,-1.38906 -1.46749,-1.38906 -0.64423,0 -2.27603,1.77365 -2.27603,2.47387 0,0.8356 -1.2958,2.36819 -2.38309,2.81856 -1.09145,0.45209 -3.19462,0.20839 -4.16507,-0.48263 -1.67554,-1.19309 -2.21313,-4.17448 -1.05861,-5.87082 1.07567,-1.58049 1.87595,-1.98169 3.9529,-1.98169 1.83693,0 1.87417,-0.014 2.75797,-1.03627 0.49275,-0.56995 0.89444,-1.16526 0.89265,-1.32291 -0.003,-0.26558 -3.8578,-5.26179 -5.58346,-7.23675 -0.73546,-0.84171 -0.78618,-0.85697 -1.90932,-0.57415 -0.8294,0.20884 -1.45157,0.21034 -2.21288,0.005 -5.31834,-1.43209 -6.00627,-8.52692 -1.06552,-10.989004 1.81892,-0.90641 3.3739,-0.8906 5.2356,0.0532 1.96194,0.994634 3.00392,2.669654 3.07241,4.939014 0.0472,1.56257 0.0857,1.64341 1.32364,2.77662 1.27261,1.16494 7.40064,6.10885 7.57199,6.10885 0.15717,0 2.72932,-3.28398 3.06841,-3.91758 0.24849,-0.4643 0.25378,-0.8204 0.0226,-1.52091 -0.64581,-1.95683 1.3232,-4.08651 3.77821,-4.08651 3.47123,0 5.64836,3.45304 4.21714,6.68856 -0.57328,1.29599 -1.37127,1.86892 -3.03878,2.18175 -0.73344,0.13759 -1.25238,0.50609 -2.04367,1.45121 l -1.06061,1.26678 0.84027,0.29292 c 0.47532,0.1657 2.23903,1.67577 4.06087,3.47688 l 3.22061,3.18396 2.59119,-2.79821 c 1.42516,-1.53901 3.1409,-3.11279 3.81277,-3.49728 0.67187,-0.38449 1.26817,-0.7344 1.32511,-0.77756 0.0569,-0.0432 -0.33799,-0.61729 -0.87761,-1.27583 -0.80139,-0.97799 -1.14037,-1.19735 -1.85033,-1.19735 -1.98476,0 -3.65262,-2.07278 -3.6337,-4.51588 0.0311,-4.01628 4.9484,-5.98855 7.66887,-3.07589 0.69695,0.7462 1.0341,2.49803 0.62711,3.2585 -0.18924,0.35359 -0.17829,0.6751 0.0364,1.06982 0.43521,0.80008 2.91161,3.76211 3.1592,3.77875 0.22178,0.0149 2.22484,-1.63668 6.34204,-5.22921 l 2.57968,-2.25094 v -1.64705 c 0,-1.42098 0.11803,-1.82158 0.8599,-2.91863 1.96017,-2.898654 5.50688,-3.327234 8.51939,-1.02947 1.32442,1.01018 1.99871,2.57964 1.99345,4.63989 -0.006,2.16816 -0.71218,3.49113 -2.51497,4.70852 -1.27261,0.85939 -1.3849,0.88494 -3.32161,0.75578 -1.66849,-0.11126 -2.05036,-0.0608 -2.27823,0.30118 -0.15057,0.23916 -1.48098,1.96309 -2.95647,3.83094 -1.47549,1.86786 -2.68271,3.54306 -2.68271,3.72269 0,0.17962 0.42596,0.82422 0.94658,1.43244 0.93224,1.08912 0.96729,1.10359 2.3151,0.95566 1.10833,-0.12165 1.5947,-0.0336 2.55807,0.46312 3.63082,1.87206 2.86422,7.41508 -1.11481,8.06079 -2.31457,0.3756 -4.18932,-0.79225 -4.73209,-2.94779 -0.20545,-0.81591 -0.58042,-1.37946 -1.30565,-1.96226 -0.55958,-0.44969 -1.06885,-0.81762 -1.13172,-0.81762 -0.14527,0 -6.80588,7.30522 -7.28797,7.99329 -0.32944,0.4702 -0.15944,0.71827 2.0153,2.94084 2.60638,2.6637 3.94337,4.57645 5.0838,7.27306 1.62758,3.84851 2.72797,9.01611 2.17726,10.22478 -0.56335,1.23643 -1.34421,1.35642 -3.80864,0.58525 -4.9295,-1.54254 -8.52473,-3.73668 -12.58241,-7.67892 l -2.71198,-2.63482 -2.71198,2.63482 c -3.88912,3.77848 -7.23124,5.88782 -11.63299,7.34205 -2.87715,0.95053 -3.42993,1.02411 -4.10972,0.54702 z m 7.98453,-7.84502 c 1.85515,-1.10212 6.76599,-5.57118 6.76599,-6.15731 0,-0.16918 -0.56716,-0.94084 -1.26037,-1.71479 l -1.26037,-1.4072 -2.07622,2.13352 c -1.14192,1.17343 -2.22231,2.34954 -2.40087,2.61357 -0.43425,0.64214 -2.26258,4.95499 -2.26258,5.33721 0,0.52171 0.5719,0.33715 2.49442,-0.805 z m 23.30189,-0.40822 c -1.41544,-3.77185 -1.58278,-3.97369 -11.73806,-14.15812 -10.48408,-10.51416 -11.12654,-11.03258 -12.45153,-10.04724 -1.02954,0.76562 -0.96791,1.40019 0.29062,2.99244 2.24561,2.84108 18.23723,19.15173 19.93078,20.32839 1.36312,0.94709 4.17116,2.41806 4.32408,2.26514 0.0649,-0.0649 -0.0953,-0.68615 -0.35589,-1.38061 z m -0.77673,-22.68191 c 0.43842,-0.66911 0.43294,-0.71575 -0.158,-1.34477 -0.83184,-0.88546 -1.78699,-0.8258 -3.33429,0.20828 -1.55902,1.0419 -4.10467,3.5758 -4.89728,4.86628 0.67794,1.23236 0.34629,0.16776 2.55228,2.522 l 2.69156,-2.77932 c 1.48036,-1.52863 2.89594,-3.09124 3.14573,-3.47247 z m 7.46942,-40.321551 c 0.24627,-0.156231 0.3204,-0.840859 0.26459,-2.443344 l -0.0776,-2.226296 H 107.53571 87.82425 l -0.0777,2.075602 c -0.0488,1.30256 0.0372,2.214074 0.23083,2.447396 0.2599,0.31316 3.33903,0.371155 19.5246,0.367742 10.56882,-0.0022 19.37,-0.101723 19.55817,-0.2211 z M 109.23968,69.083708 c 0.50885,-0.509506 0.54499,-0.853753 0.54499,-5.191469 0,-4.56329 -0.0111,-4.654754 -0.62463,-5.151319 -0.87758,-0.710276 -2.60062,-0.674859 -3.39322,0.06975 -0.59529,0.559247 -0.61236,0.705646 -0.61236,5.25066 0,4.933018 0.0466,5.131858 1.32292,5.640145 0.70169,0.279455 2.20115,-0.05589 2.7623,-0.617764 z"
       id="path1" /></g><path
     style="fill:#ffbf00;stroke:#3e1e17;stroke-width:1.18888;stroke-linecap:round;stroke-linejoin:round"
     d="m 52.295328,638.63642 c -25.951065,-0.26187 -47.5830715,-0.73583 -48.0711254,-1.05325 -1.4885623,-0.96809 -3.43780669,-5.80093 -3.43780669,-8.52349 0,-2.00229 0.74617039,-3.2867 3.36985909,-5.80063 4.7921284,-4.59167 7.458985,-5.15186 24.525969,-5.15186 11.496867,0 14.642627,-0.21617 14.304935,-0.983 -6.541339,-14.85398 -6.508381,-16.98056 0.588061,-37.9436 2.928332,-8.65035 10.996378,-31.43862 17.928992,-50.6406 l 12.604752,-34.91268 -4.025538,-3.62072 c -5.861227,-5.2718 -6.354062,-7.04226 -6.928172,-24.88876 -0.328009,-10.19628 -0.77859,-15.31192 -1.350872,-15.337 -30.067219,-1.31759 -31.009434,-1.53251 -36.035588,-8.21952 l -2.95539,-3.93198 0.0829,-110.09543 c 0.0456,-60.55249 0.309223,-129.91261 0.585835,-154.1336 0.567818,-49.71973 0.180427,-46.83106 6.933107,-51.69828 4.67618,-3.37051 8.941251,-3.65091 56.2849,-3.70023 l 40.695994,-0.0424 v -15.29602 c 0,-21.541221 0.95388,-24.767552 8.93747,-30.22929 l 3.25166,-2.224527 26.18347,-0.408083 c 14.40089,-0.224446 26.30002,-0.539426 26.44248,-0.699956 0.14246,-0.160529 0.59172,-10.749734 0.99833,-23.531566 0.68514,-21.537022 0.86685,-23.503179 2.48024,-26.83598 2.55562,-5.279209 9.99386,-11.9796651 16.98372,-15.299133 l 5.92205,-2.81236937 12.65562,-0.0158528 12.65562,-0.0158529 6.51094,3.22629707 c 5.02411,2.4895422 7.69496,4.4814181 11.69584,8.722554 7.49528,7.945399 7.72324,8.933429 8.20365,35.557647 l 0.39251,21.752995 26.89785,0.266091 26.89786,0.26609 3.21999,2.131641 c 1.771,1.172403 4.18717,3.399675 5.36927,4.949494 2.6127,3.425429 3.35906,9.536276 3.43326,28.110081 l 0.0495,12.38574 34.79802,0.0214 c 19.13891,0.0118 40.03299,0.342 46.43131,0.73383 13.36274,0.81834 15.0567,1.46387 19.28374,7.34864 l 2.68282,3.73495 0.42292,153.94506 0.42292,153.94507 -2.88537,4.01622 c -4.26092,5.93089 -6.12039,6.54383 -22.2477,7.33358 -7.58734,0.37154 -13.95442,0.83481 -14.14909,1.02947 -0.19467,0.19467 -0.68818,7.6694 -1.09669,16.61051 -0.40852,8.94111 -1.09621,16.91702 -1.52823,17.72423 -0.88113,1.64642 -1.50555,2.30413 -6.18941,6.51941 l -3.29249,2.9631 17.25086,47.3845 c 9.48797,26.06148 17.84795,49.67649 18.57773,52.47781 1.91285,7.34262 1.18441,11.53814 -4.04759,23.31247 -0.3004,0.67602 3.29193,0.98737 13.60978,1.17959 13.25472,0.24693 14.20676,0.36818 17.48701,2.22714 4.3245,2.45074 6.35938,5.14565 6.88001,9.11164 0.33268,2.5342 0.0102,3.59305 -1.82698,5.99782 l -2.23098,2.92032 -145.48325,0.0297 c -80.01578,0.0163 -159.99225,0.15503 -177.72547,0.3082 -17.73323,0.15317 -53.474931,0.0642 -79.425996,-0.19764 z m 139.994092,-64.3708 c 0.49662,-35.20397 0.16272,-75.38121 -0.6331,-76.17702 -0.11012,-0.11012 -9.39401,-0.43807 -20.63086,-0.72878 l -20.43064,-0.52856 -15.26067,41.56787 c -8.39336,22.86232 -18.0769,49.2582 -21.51897,58.65751 -3.44207,9.39931 -6.05212,17.62698 -5.80011,18.28371 0.40177,1.04698 5.58308,1.19405 42.06813,1.19405 h 41.60993 z m 163.72383,41.63753 c 0.69495,-0.44161 -4.50762,-15.28791 -19.07937,-54.44588 -11.01917,-29.61129 -20.94633,-56.22738 -22.06033,-59.14688 l -2.02548,-5.30817 -7.5986,0.002 c -4.17924,0.001 -13.70301,0.23396 -21.16395,0.51698 l -13.56533,0.51457 v 58.79826 c 0,55.33707 0.081,58.81942 1.3762,59.15788 2.40937,0.62964 83.12032,0.54408 84.11686,-0.0892 z m -115.89631,-38.4236 c 0.28612,-13.69484 0.52021,-36.36062 0.52021,-50.36839 0,-31.85432 0.34718,-30.86014 -10.78528,-30.8846 -4.25062,-0.009 -5.01897,0.21976 -5.89797,1.75865 -0.78691,1.37768 -1.06127,12.73734 -1.23927,51.31234 -0.12575,27.24861 -0.0305,50.33916 0.21158,51.31233 0.42099,1.69217 0.79433,1.76939 8.55536,1.76939 h 8.11517 z M 81.610186,600.60988 c 1.349511,-1.64998 35.974064,-96.22284 37.428494,-102.23147 l 0.52346,-2.16259 h -6.94224 c -4.3681,0 -7.4483,0.37004 -8.30704,0.99797 -0.76836,0.56184 -4.2357,9.06757 -7.934151,19.4633 -3.613151,10.15593 -10.185282,28.55086 -14.604732,40.87761 -10.873824,30.32928 -14.143928,40.09338 -14.143928,42.23195 0,1.7403 0.240454,1.80622 6.588075,1.80622 4.317404,0 6.865177,-0.3388 7.392062,-0.98299 z m 314.635084,-0.0782 c 1.14527,-1.37996 1.33113,-0.80979 -14.00951,-42.97699 -7.00218,-19.24704 -14.14503,-38.88727 -15.87301,-43.64497 -1.72797,-4.7577 -4.05365,-10.68515 -5.16819,-13.17213 l -2.02642,-4.52178 h -6.41968 c -3.66457,0 -6.79521,0.37551 -7.29468,0.87499 -1.37463,1.37462 0.12807,6.02115 14.72215,45.52237 5.51303,14.92186 12.76465,34.29669 16.11474,43.05518 l 6.09106,15.92451 h 6.49141 c 4.48888,0 6.76312,-0.32736 7.37213,-1.06118 z M 370.0401,467.02237 c 0.9354,-0.93555 1.39149,-3.36827 1.70785,-9.10965 l 0.43164,-7.83324 -82.80896,-0.52371 c -45.54493,-0.28804 -108.36525,-0.5237 -139.60072,-0.5237 H 92.978153 l -0.474174,1.76939 c -0.746384,2.78512 -0.574069,12.8635 0.257325,15.05023 0.685257,1.80237 1.233407,2.00656 6.094568,2.27034 2.937878,0.15942 64.869028,0.2644 137.624788,0.23329 120.94883,-0.0517 132.39256,-0.16592 133.55944,-1.33295 z m 39.94249,-49.31789 2.13738,-2.23093 -0.22086,-131.25977 c -0.17076,-101.49303 -0.43837,-131.63921 -1.18001,-132.93293 -0.52754,-0.92024 -1.94305,-1.90208 -3.14558,-2.18186 -1.20253,-0.27978 -57.21448,-0.69636 -124.47099,-0.92573 -122.49692,-0.41776 -228.138697,0.275 -229.366282,1.50409 -0.359988,0.36044 -0.654524,60.5905 -0.654524,133.84459 0,108.02052 0.192587,133.38244 1.019139,134.21157 0.688958,0.6911 4.51062,1.16384 11.795939,1.45917 5.92724,0.24026 85.290418,0.50567 176.362608,0.58979 l 165.58582,0.15295 z m -108.39976,-299.63384 4.71838,-0.50445 0.22235,-8.84695 0.22236,-8.846959 h -75.12657 -75.12656 v 7.713659 c 0,8.92526 0.59677,10.16213 5.11157,10.59433 5.44476,0.52122 135.02706,0.41972 139.97847,-0.10963 z M 236.38422,71.081839 c 3.94795,-1.873425 4.40582,-4.432406 4.11256,-22.984732 l -0.25283,-15.99416 -2.20644,-1.896348 c -1.75552,-1.508796 -3.09376,-1.896346 -6.54826,-1.896346 -3.75032,0 -4.65497,0.313156 -6.64051,2.298696 l -2.2987,2.298696 v 16.457457 c 0,17.35571 0.50597,20.651685 3.38368,22.042044 2.59171,1.252178 7.44453,1.101118 10.4505,-0.325307 z"
     id="path2"
     transform="scale(0.26458333)" /><path
     style="fill:#ffbf00;stroke:#3e1e17;stroke-width:1.18888;stroke-linecap:round;stroke-linejoin:round"
     d="m 162.08421,386.20705 c -4.38631,-4.38632 0.40404,-29.1354 8.74105,-45.16019 4.21728,-8.10614 9.02075,-14.60347 17.86517,-24.16503 3.98751,-4.31082 7.13277,-8.16094 6.98948,-8.55583 -0.33657,-0.92753 -19.56411,-22.87749 -24.39486,-27.84892 l -3.69737,-3.80505 -2.45534,1.44586 c -3.12164,1.83823 -5.60319,5.164 -7.35933,9.86297 -2.17528,5.82051 -7.80216,10.06848 -13.32396,10.0588 -9.35405,-0.0164 -16.20709,-6.74708 -16.24925,-15.95918 -0.019,-4.15504 1.42782,-7.63118 4.59429,-11.03817 3.13273,-3.37069 4.60794,-3.9103 12.21542,-4.46821 l 6.99702,-0.51313 3.42272,-3.62258 c 1.8825,-1.99242 3.42272,-4.26786 3.42272,-5.05653 0,-1.61353 -9.97999,-15.12981 -18.01126,-24.39333 -4.83386,-5.57554 -5.53726,-6.09885 -7.99614,-5.9489 -11.23261,0.68497 -14.17208,-0.0739 -19.74448,-5.09726 -4.57522,-4.12444 -6.92128,-9.5162 -6.92128,-15.90664 0,-9.1802 4.61754,-15.98644 13.64399,-20.11122 3.84588,-1.75743 5.36258,-2.04154 9.09276,-1.7033 11.61284,1.05301 18.9399,8.84393 20.16842,21.44522 0.51619,5.29477 0.67107,5.6148 4.56137,9.42506 2.21487,2.1693 9.66221,8.45446 16.54965,13.96701 l 12.52261,10.02283 1.90953,-1.77788 c 1.05024,-0.97783 4.01088,-4.59304 6.5792,-8.0338 l 4.66968,-6.25592 -0.52137,-5.29112 c -0.45416,-4.60896 -0.30106,-5.64761 1.18751,-8.05617 5.13448,-8.30777 17.1153,-8.95945 24.50443,-1.33288 9.31406,9.61335 5.12965,25.11791 -7.34782,27.22596 -2.66906,0.45094 -4.188,1.47067 -7.84564,5.26716 -2.49468,2.58938 -4.53578,4.95045 -4.53578,5.24682 0,0.29637 1.2599,0.99444 2.79976,1.55127 1.68556,0.6095 6.92758,4.9617 13.17213,10.93621 5.70481,5.45809 11.4707,10.93182 12.81309,12.16383 l 2.44071,2.24004 5.4008,-5.74411 c 9.1472,-9.72867 15.4879,-15.63452 19.79742,-18.43973 2.27072,-1.47808 4.12858,-2.97235 4.12858,-3.32059 0,-0.34825 -1.25908,-2.24927 -2.79797,-4.22449 -2.82169,-3.62177 -4.85287,-4.80791 -9.65395,-5.6376 -6.32589,-1.09319 -11.12918,-8.08855 -11.11934,-16.19387 0.0162,-13.36487 15.9373,-21.26354 25.92325,-12.86091 3.9841,3.3524 4.99407,6.11084 4.43599,12.11561 l -0.48718,5.24185 3.83877,5.02589 c 2.11132,2.76424 5.06732,6.19714 6.56889,7.62868 l 2.73012,2.6028 5.02563,-4.02962 c 2.7641,-2.21629 10.42186,-8.69573 17.01725,-14.39874 l 11.9916,-10.36911 9.3e-4,-5.74043 c 6.1e-4,-3.76533 0.44386,-6.60634 1.28827,-8.25715 6.61761,-12.93733 19.84784,-16.08175 32.12468,-7.63506 5.48544,3.77408 7.73262,8.33965 8.10468,16.46619 0.28474,6.2191 0.13332,7.07306 -1.96192,11.06442 -1.67867,3.19782 -3.46219,5.14507 -6.84261,7.47076 l -4.57214,3.14558 -7.28519,-0.20739 c -6.04027,-0.17196 -7.55274,0.0296 -8.85083,1.17959 -1.89095,1.67519 -17.17675,21.27478 -20.24224,25.95479 l -2.18456,3.33511 3.26288,4.32165 c 3.47709,4.60538 5.35373,5.52231 10.11103,4.94031 4.51597,-0.55249 9.65985,1.31059 12.9403,4.68687 3.50371,3.60606 4.55488,6.1977 4.55488,11.22998 0,4.70588 -1.03051,7.56946 -3.78542,10.51891 -4.62214,4.94857 -11.87565,6.4549 -17.90228,3.71775 -3.90252,-1.77244 -6.2022,-4.56611 -8.00846,-9.72877 -0.94227,-2.69318 -2.5525,-4.97566 -5.18691,-7.35236 -2.10124,-1.89568 -4.09365,-3.44669 -4.42758,-3.44669 -0.33392,0 -5.51803,5.39664 -11.52024,11.99253 -16.01343,17.59733 -16.79916,18.54117 -16.79916,20.17947 0,0.82393 3.5097,5.23069 7.79934,9.79282 8.68155,9.23303 13.65369,15.86326 17.18274,22.91284 5.2891,10.56539 10.45764,28.96265 10.67776,38.00711 0.11188,4.59645 -0.0552,5.13052 -2.17693,6.9598 -1.94301,1.67518 -2.78951,1.90274 -5.47852,1.47276 -9.85681,-1.57617 -28.64442,-10.25182 -39.19976,-18.10146 -3.7786,-2.81002 -10.93558,-9.04744 -15.90439,-13.86092 l -9.03421,-8.7518 -10.83307,10.02248 c -12.64386,11.69779 -19.03707,16.40585 -29.31337,21.58684 -7.72298,3.89369 -19.81883,8.29893 -25.11055,9.14511 -2.43872,0.38997 -3.34863,0.1617 -4.68584,-1.1755 z m 27.51586,-26.92949 c 5.21821,-2.78127 16.87885,-12.27567 23.81262,-19.38884 5.61644,-5.76176 5.56857,-6.49637 -0.88017,-13.50783 l -4.54568,-4.94232 -8.33736,8.94563 c -4.58555,4.9201 -9.26639,10.78248 -10.40188,13.0275 -2.69873,5.33579 -6.80375,15.69603 -6.80375,17.1713 0,1.77731 2.08649,1.3967 7.15622,-1.30544 z m 92.28772,-0.0912 c -1.37913,-4.56689 -5.41467,-13.41327 -7.67867,-16.83254 -1.38013,-2.08439 -6.79514,-8.39484 -12.03336,-14.02322 -14.84935,-15.9554 -60.02889,-60.28326 -64.33541,-63.12264 -4.84262,-3.19282 -7.35318,-3.25259 -10.23589,-0.24369 -3.64927,3.80902 -2.52185,6.13324 9.37071,19.31788 10.72125,11.88609 64.00084,65.45039 68.04025,68.40386 4.78713,3.50015 13.92647,8.26974 15.84623,8.26974 1.25232,0 1.45496,-0.3494 1.02614,-1.76939 z m -3.74162,-89.75544 c 1.12468,-2.17224 1.0754,-2.36821 -1.1568,-4.60041 -2.87857,-2.87856 -6.35796,-3.06533 -11.18923,-0.6006 -3.73986,1.90794 -17.94292,15.27439 -19.68069,18.52144 -1.06698,1.99367 -0.957,2.17874 3.98438,6.70449 l 5.08164,4.65423 10.893,-11.20513 c 5.99114,-6.16281 11.4216,-12.22612 12.0677,-13.47402 z"
     id="path3"
     transform="scale(0.26458333)" /></svg>
