<?xml version="1.0" encoding="UTF-8" standalone="no"?>
<!-- Created with Inkscape (http://www.inkscape.org/) -->

<svg
   width="148.8839mm"
   height="165.97414mm"
   viewBox="0 0 148.8839 165.97414"
   version="1.1"
   id="svg1"
   xml:space="preserve"
   sodipodi:docname="castillo.svg"
   inkscape:version="1.3 (0e150ed6c4, 2023-07-21)"
   xmlns:inkscape="http://www.inkscape.org/namespaces/inkscape"
   xmlns:sodipodi="http://sodipodi.sourceforge.net/DTD/sodipodi-0.dtd"
   xmlns="http://www.w3.org/2000/svg"
   xmlns:svg="http://www.w3.org/2000/svg"><sodipodi:namedview
     id="namedview1"
     pagecolor="#ffffff"
     bordercolor="#000000"
     borderopacity="0.25"
     inkscape:showpageshadow="2"
     inkscape:pageopacity="0.0"
     inkscape:pagecheckerboard="0"
     inkscape:deskcolor="#d1d1d1"
     inkscape:document-units="mm"
     inkscape:zoom="1.2960227"
     inkscape:cx="281.63087"
     inkscape:cy="437.10654"
     inkscape:window-width="1920"
     inkscape:window-height="1009"
     inkscape:window-x="-8"
     inkscape:window-y="-8"
     inkscape:window-maximized="1"
     inkscape:current-layer="svg1" /><defs
     id="defs1" /><g
     id="layer1"
     transform="translate(-49.046285,-55.325232)"><path
       style="fill:#000000"
       d="m 49.094006,221.12818 c -0.37836,-0.37836 1.56851,-3.35984 3.17562,-4.86321 1.86654,-1.74606 2.90163,-2.35281 5.24971,-3.07724 1.51587,-0.46769 4.1601,-0.48733 65.608704,-0.48733 69.05199,0 65.21037,-0.0767 68.30294,1.36355 0.74985,0.34922 1.94726,1.09984 2.66091,1.66806 1.41607,1.12749 3.37716,3.73 3.66006,4.85719 l 0.17824,0.71016 h -74.3325 c -40.882874,0 -74.409534,-0.077 -74.503684,-0.17118 z m 20.4559,-42.82621 v -30.29738 l 12.50157,0.0687 12.50156,0.0687 0.0673,30.22865 0.0673,30.22865 h -12.5689 -12.56883 z m 16.34517,5.61314 c 0.0643,-3.43166 0.008,-4.0611 -0.45271,-5.10354 -1.14531,-2.58917 -4.71783,-2.79726 -5.9841,-0.34856 -0.28953,0.55987 -0.38336,1.81499 -0.38336,5.12799 v 4.38667 l 3.37344,-0.074 3.37344,-0.0741 z m 0.059,-21.09921 c 0,-3.46363 -0.0689,-4.11437 -0.53177,-5.02163 -1.23825,-2.42719 -4.81318,-2.48661 -5.94625,-0.0988 -0.30521,0.64317 -0.40115,1.83249 -0.40115,4.97256 v 4.1272 h 3.43958 3.43959 z m 13.02919,24.02148 0.0677,-21.76198 4.828644,-0.0721 4.82865,-0.0721 v -23.67427 -23.67424 h 14.94895 14.94896 l -1.7e-4,23.74635 -1.7e-4,23.74636 h 4.82882 4.82881 l 0.0677,21.76198 0.0677,21.76198 h -6.61612 -6.61612 l -0.005,-7.87136 c -0.005,-8.5645 -0.21093,-10.38831 -1.46164,-12.94467 -0.85035,-1.73804 -2.65923,-3.76261 -4.28779,-4.79904 -3.0615,-1.94837 -7.52561,-2.20175 -10.75768,-0.61061 -2.12755,1.04739 -4.09816,2.95028 -5.01962,4.84714 -1.2741,2.62275 -1.48742,4.53395 -1.48742,13.32604 v 8.0525 h -6.61612 -6.616124 z m 27.975414,-32.41146 c -0.005,-3.26044 -0.0885,-4.08475 -0.50837,-5.00954 -1.16557,-2.56725 -4.70658,-2.57251 -5.92314,-0.009 -0.35211,0.74203 -0.44184,1.7424 -0.44184,4.92603 v 3.99491 h 3.43958 3.43958 z m -0.12648,-20.88341 c 0,-4.82874 -0.15861,-5.30904 -2.06649,-6.25765 -1.13039,-0.56204 -2.17238,-0.42886 -3.24481,0.41471 -1.21361,0.95463 -1.43557,1.92664 -1.43557,6.28669 v 3.98515 l 3.37343,-0.074 3.37344,-0.074 z m 25.79688,44.75946 v -30.29738 l 12.50156,0.0687 12.50156,0.0687 0.0673,30.22865 0.0673,30.22865 h -12.56883 -12.56882 z m 15.61041,5.55035 c 0,-4.66555 -0.24047,-5.61514 -1.63772,-6.46701 -0.52435,-0.31969 -1.33957,-0.53437 -2.03143,-0.53496 -0.99023,-8.5e-4 -1.3026,0.146 -2.18281,1.02621 l -1.0272,1.02721 v 4.35265 c 0,2.39396 0.0794,4.43203 0.17638,4.52905 0.097,0.097 1.64483,0.17639 3.43959,0.17639 h 3.26319 z m 0,-21.19309 c 0,-3.73765 -0.0534,-4.22239 -0.55471,-5.0335 -0.68959,-1.11579 -1.74229,-1.67846 -3.1402,-1.67846 -0.85524,0 -1.27766,0.18527 -2.06366,0.90508 l -0.9883,0.90508 -0.0836,4.51888 -0.0836,4.51888 h 3.45701 3.457 z M 65.225366,144.37175 c -0.18639,-0.30207 -0.19536,-14.55499 -0.0102,-16.13958 l 0.16234,-1.38907 h 4.73202 4.73201 v 3.70417 3.70417 h 2.77813 2.77812 v -3.70417 -3.70417 h 4.49792 4.49791 v 3.70417 3.70417 h 1.5875 1.5875 v -3.70417 -3.70417 h 4.10105 4.101044 v 8.86355 8.86354 H 83.059236 c -9.74131,0 -17.76657,-0.0893 -17.83391,-0.19844 z m 81.230104,0.0221 c -0.097,-0.097 -0.17639,-4.08561 -0.17639,-8.86354 v -8.68716 h 4.37957 4.37957 l -0.0801,3.7046 -0.0801,3.70459 1.52136,-4.2e-4 1.52135,-4.3e-4 0.0494,-0.8599 c 0.10373,-1.80699 0.13061,-2.5099 0.17226,-4.50431 l 0.043,-2.05692 4.43177,0.0725 4.43177,0.0726 0.0172,3.57187 0.0172,3.57188 2.82703,0.0751 2.82702,0.0751 v -3.71312 -3.71312 h 4.7625 4.7625 v 8.86355 8.86354 h -17.81525 c -9.7984,0 -17.89465,-0.0794 -17.99166,-0.17639 z m -45.42014,-39.90804 v -9.128121 h 5.15938 5.15937 v 4.49791 4.497921 h 2.77812 2.77813 v -4.497921 -4.49791 h 6.74687 6.74688 v 4.49791 4.497921 h 2.77812 2.77813 v -4.497921 -4.49791 h 5.15937 5.15938 v 9.128121 9.12813 H 123.6572 101.03533 Z M 121.40824,76.624255 V 61.065824 l 0.92652,-2.751209 c 0.50958,-1.513164 1.02947,-2.854168 1.15531,-2.980008 0.12868,-0.128678 0.70832,1.081441 1.3246,2.765368 l 1.09579,2.994168 -0.002,15.544272 -0.002,15.544274 h -2.24896 -2.24896 z m 8.20209,-5.343653 v -6.614584 h 10.45104 c 8.18577,0 10.4505,0.07169 10.44856,0.33073 -0.005,0.620006 -1.55156,3.033657 -2.40393,3.750879 -0.46751,0.393385 -1.68764,1.137066 -2.71141,1.652625 l -1.86138,0.937381 1.84286,0.853598 c 2.26704,1.050074 3.6185,2.208169 4.62535,3.963569 0.42384,0.738931 0.77172,1.432807 0.77309,1.541948 0.001,0.109141 -4.76002,0.198437 -10.58085,0.198437 h -10.58333 z"
       id="path1" /></g><path
     style="fill:#ffbf00;stroke:#3e1e17;stroke-width:1.1665;stroke-linecap:round;stroke-linejoin:round"
     d="m 196.75581,185.95353 v -33.95002 h 19.28979 19.28978 v 16.97501 16.97501 h 10.80228 10.80228 v -16.97501 -16.97501 h 25.07672 25.07672 v 16.97501 16.97501 h 10.80228 10.80228 v -16.97501 -16.97501 h 19.28979 19.28978 v 33.95002 33.95002 h -85.26085 -85.26085 z"
     id="path2"
     transform="scale(0.26458333)" /><path
     style="fill:#ffbf00;stroke:#3e1e17;stroke-width:1.1665;stroke-linecap:round;stroke-linejoin:round"
     d="M 273.91495,80.331278 V 21.776096 l 3.02955,-8.766172 c 3.893,-11.2646304 3.97487,-11.4667412 4.64507,-11.4667412 0.72883,0 1.82036,2.4253419 5.51637,12.2571992 l 3.01243,8.013446 v 58.536315 58.536317 h -8.10171 -8.10171 z"
     id="path3"
     transform="scale(0.26458333)" /><path
     style="fill:#ffbf00;stroke:#3e1e17;stroke-width:1.1665;stroke-linecap:round;stroke-linejoin:round"
     d="M 304.77861,60.211254 V 35.493205 l 31.44235,0.004 c 35.33474,0.0045 46.48838,0.478747 46.48838,1.976719 0,1.993641 -7.77306,12.512279 -10.65635,14.420348 -1.64243,1.086907 -5.88533,3.433831 -9.42866,5.215386 l -6.44243,3.239191 7.94692,4.083515 c 4.3708,2.245934 9.39851,5.508151 11.17269,7.249373 3.67663,3.608341 8.67114,11.415334 7.83708,12.250267 -0.30617,0.306495 -18.06242,0.656274 -39.45833,0.777286 l -38.90165,0.220022 z"
     id="path4"
     transform="scale(0.26458333)" /><path
     style="fill:#ffbf00;stroke:#3e1e17;stroke-width:1.1665;stroke-linecap:round;stroke-linejoin:round"
     d="m 189.0399,496.90487 v -81.78869 h 12.61484 c 6.93816,0 15.27135,-0.22455 18.51819,-0.49902 l 5.90336,-0.49901 v -89.39139 -89.39138 h 55.94037 55.94038 v 89.8904 89.8904 h 18.51819 18.5182 v 81.78869 81.78869 H 350.3025 325.61158 v -27.60463 c 0,-37.18861 -1.0875,-44.84599 -7.79569,-54.89158 -3.98357,-5.96545 -11.87287,-13.27443 -17.02013,-15.76818 -8.53871,-4.13683 -19.83135,-5.48623 -29.3505,-3.5072 -10.49592,2.18211 -22.03294,10.95377 -27.1069,20.60953 -5.1419,9.78507 -5.33611,11.42369 -5.70979,48.17653 l -0.33538,32.98553 H 213.66654 189.0399 Z m 105.70802,-121.3856 c 0,-15.83379 -0.85506,-20.44894 -4.41851,-23.84856 -6.31169,-6.0215 -16.3074,-4.39425 -20.03331,3.26134 -1.49768,3.07728 -1.75103,5.24913 -2.22769,19.09689 l -0.53782,15.62473 h 13.60867 13.60866 z m -0.61423,-79.08295 c -0.13867,-9.51385 -0.59347,-16.77959 -1.15739,-18.48999 -1.05466,-3.19886 -4.55557,-5.91273 -9.26251,-7.18017 -5.91863,-1.59373 -12.66089,2.70444 -14.37454,9.16371 -0.41707,1.57211 -1.00002,9.55072 -1.29542,17.73025 l -0.53711,14.87186 13.42771,-0.21163 13.4277,-0.21162 z"
     id="path5"
     transform="scale(0.26458333)" /><path
     style="fill:#ffbf00;stroke:#3e1e17;stroke-width:1.1665;stroke-linecap:round;stroke-linejoin:round"
     d="m 77.19404,336.60721 c -10.809821,-0.16403 -15.17956,-0.4929 -15.612911,-1.17506 -0.725901,-1.14266 -0.831862,-50.3545 -0.126391,-58.70021 l 0.499016,-5.90335 h 17.633382 17.633383 v 13.88864 13.88865 h 10.802281 10.80228 v -13.88865 -13.88864 h 16.58921 16.58922 v 13.88864 13.88865 h 6.55853 6.55852 v -13.88865 -13.88864 h 15.04604 15.04603 v 33.17843 33.17843 l -51.50373,-0.17523 c -28.32705,-0.0964 -58.258736,-0.27772 -66.51486,-0.40301 z"
     id="path6"
     transform="scale(0.26458333)" /><path
     style="fill:#ffbf00;stroke:#3e1e17;stroke-width:1.1665;stroke-linecap:round;stroke-linejoin:round"
     d="m 77.930451,464.69093 -2.82e-4,-114.00263 46.478901,0.24743 c 25.56339,0.13609 46.6569,0.42541 46.87446,0.64294 0.21755,0.21753 0.51869,51.40737 0.66918,113.75521 l 0.27362,113.35968 H 125.07854 77.930733 Z m 61.723289,21.99036 c -0.002,-8.16923 -0.37269,-16.17977 -0.82294,-17.80122 -2.55159,-9.18882 -14.06199,-13.38637 -20.90901,-7.62498 -4.13872,3.48251 -4.49785,5.37207 -4.49785,23.66533 v 16.614 h 13.11705 13.11706 z m -0.13273,-81.4029 c -0.23521,-15.13855 -0.34543,-16.16599 -2.02373,-18.86509 -4.96127,-7.97888 -16.51614,-8.57687 -22.06371,-1.14184 -1.51498,2.03042 -1.64038,3.31063 -1.87068,19.09689 l -0.24685,16.92056 h 13.22687 13.22687 z"
     id="path7"
     transform="scale(0.26458333)" /><path
     style="fill:#ffbf00;stroke:#3e1e17;stroke-width:1.1665;stroke-linecap:round;stroke-linejoin:round"
     d="m 391.96816,464.69093 -2.8e-4,-114.00263 46.47889,0.24743 c 25.5634,0.13609 46.62509,0.39362 46.80377,0.5723 0.17867,0.17867 0.49204,51.36851 0.69638,113.7552 l 0.37152,113.43033 h -47.175 -47.175 z m 58.51355,20.06138 c -0.23323,-15.16398 -0.40861,-17.0425 -1.81895,-19.48269 -2.09361,-3.62238 -7.22009,-6.17273 -12.40786,-6.17273 -3.66238,0 -4.3266,0.29651 -7.93821,3.54367 l -3.94141,3.54366 v 17.22501 c 0,13.05804 0.23332,17.31915 0.96449,17.61418 0.53047,0.21405 6.46249,0.41659 13.18228,0.45009 l 12.21778,0.0609 z m -0.0227,-79.92203 -0.23542,-16.45863 -2.16176,-2.83196 c -2.40214,-3.14687 -4.97962,-4.69576 -9.03197,-5.42763 -3.75233,-0.67769 -7.10702,0.45648 -11.15046,3.76977 l -3.44848,2.82577 -0.22072,17.29133 -0.22072,17.29133 13.35248,-6.7e-4 13.35247,-6.8e-4 z"
     id="path8"
     transform="scale(0.26458333)" /><path
     style="fill:#ffbf00;stroke:#3e1e17;stroke-width:1.1665;stroke-linecap:round;stroke-linejoin:round"
     d="m 385.02412,336.43708 -16.58922,-0.40902 -0.20127,-32.59974 -0.20127,-32.59973 h 16.11356 16.11356 l -0.3982,13.88864 -0.39821,13.88865 h 6.16612 6.16611 l 0.50306,-8.22174 c 0.27668,-4.52196 0.50305,-10.77185 0.50305,-13.88865 v -5.6669 h 16.58921 16.58922 v 13.41286 c 0,15.80485 -1.28147,14.33783 12.53836,14.35389 l 9.0662,0.0105 v -13.88865 -13.88864 h 17.7466 17.7466 v 33.17843 33.17843 l -50.73213,-0.16968 c -27.90268,-0.0933 -58.19728,-0.35373 -67.32135,-0.57869 z"
     id="path9"
     transform="scale(0.26458333)" /><path
     style="fill:#ffbf00;stroke:#3e1e17;stroke-width:1.1665;stroke-linecap:round;stroke-linejoin:round"
     d="M 128.27707,626.72514 C 27.049299,626.56836 0.77308368,626.32936 0.77883211,625.56546 0.81105006,621.28403 15.584447,604.50539 22.339035,601.07881 c 9.995743,-5.07081 7.437287,-4.83595 59.449655,-5.45739 65.68571,-0.78482 346.6822,-0.76694 399.29856,0.0254 45.55411,0.68599 49.45392,0.99265 56.29515,4.42673 10.88024,5.46154 21.17832,15.99582 24.16829,24.7226 l 0.85918,2.50767 -153.31366,-0.1906 c -84.32251,-0.10483 -210.69112,-0.27946 -280.81914,-0.38808 z"
     id="path10"
     transform="scale(0.26458333)" /></svg>
