<?xml version="1.0" encoding="UTF-8" standalone="no"?>
<!-- Created with Inkscape (http://www.inkscape.org/) -->

<svg
   width="123.20135mm"
   height="169.84505mm"
   viewBox="0 0 123.20135 169.84505"
   version="1.1"
   id="svg1"
   xml:space="preserve"
   sodipodi:docname="flechas.svg"
   inkscape:version="1.3 (0e150ed6c4, 2023-07-21)"
   xmlns:inkscape="http://www.inkscape.org/namespaces/inkscape"
   xmlns:sodipodi="http://sodipodi.sourceforge.net/DTD/sodipodi-0.dtd"
   xmlns="http://www.w3.org/2000/svg"
   xmlns:svg="http://www.w3.org/2000/svg"><sodipodi:namedview
     id="namedview1"
     pagecolor="#ffffff"
     bordercolor="#000000"
     borderopacity="0.25"
     inkscape:showpageshadow="2"
     inkscape:pageopacity="0.0"
     inkscape:pagecheckerboard="0"
     inkscape:deskcolor="#d1d1d1"
     inkscape:document-units="mm"
     inkscape:zoom="1.2664853"
     inkscape:cx="232.92809"
     inkscape:cy="320.96702"
     inkscape:window-width="1920"
     inkscape:window-height="1009"
     inkscape:window-x="-8"
     inkscape:window-y="-8"
     inkscape:window-maximized="1"
     inkscape:current-layer="svg1" /><defs
     id="defs1" /><g
     id="layer1"
     transform="translate(-52.465944,-48.490771)"><path
       style="fill:#000000"
       d="m 86.677226,218.23715 c -20.5948,-0.13229 -20.5948,-0.13229 -21.10052,-0.75691 -0.72501,-0.89547 -0.6479,-2.04701 0.189,-2.82262 0.68675,-0.63646 0.76161,-0.64467 6.5185,-0.71497 5.82377,-0.0711 5.82377,-0.0711 5.90686,-1.77561 0.0596,-1.22299 0.29814,-2.13839 0.8444,-3.24049 0.76131,-1.536 0.76131,-1.536 0.21143,-1.89222 -0.62358,-0.40396 -3.95348,-1.76176 -4.3206,-1.76176 -0.13249,0 -0.40521,-0.30702 -0.60603,-0.68226 -0.31279,-0.58445 -0.30971,-0.7809 0.0214,-1.37023 0.49649,-0.88357 1.47526,-1.13413 3.37908,-0.86502 1.84349,0.26057 3.41678,0.97381 5.29964,2.40257 1.18989,0.9029 1.57911,1.05953 2.4651,0.992 1.05211,-0.0802 1.05211,-0.0802 -0.15164,-1.62748 -1.01892,-1.30973 -1.1598,-1.62942 -0.9175,-2.08216 0.15743,-0.29417 0.51256,-0.59403 0.78917,-0.66637 0.27661,-0.0723 0.50293,-0.18203 0.50293,-0.24377 0,-0.46532 -1.34017,-4.12475 -2.28664,-6.24384 -1.33629,-2.99184 -1.44384,-3.92042 -0.51187,-4.4192 1.01168,-0.54143 1.93303,-0.1424 2.7895,1.20812 1.72035,2.7127 3.5737,7.79964 4.11551,11.29593 0.15584,1.00558 0.15584,1.00558 1.04828,0.26458 0.49084,-0.40755 0.90103,-0.93338 0.91154,-1.16852 0.0105,-0.23514 -0.38693,-1.652 -0.88318,-3.14857 -0.72086,-2.17395 -0.84644,-2.84358 -0.62459,-3.33049 0.58565,-1.28535 2.27127,-0.86231 3.07223,0.77105 0.29896,0.60965 0.60849,1.32436 0.68785,1.58824 0.0794,0.26389 0.26962,0.40234 0.42278,0.30768 0.70447,-0.43539 -0.19747,-6.24276 -1.6049,-10.3335 -0.65303,-1.89808 -0.6549,-2.40273 -0.0101,-2.74779 1.49028,-0.79757 2.46529,-0.0585 3.65277,2.76882 0.76855,1.82989 0.78987,1.85208 1.77944,1.85208 1.00156,0 1.00156,0 0.95746,-14.94896 -0.0441,-14.94895 -0.0441,-14.94895 -0.93535,-15.7427 -1.48382,-1.3215 -1.86419,-2.23941 -1.7608,-4.24915 0.0154,-0.29974 0.55924,-1.1673 1.20849,-1.92792 1.21176,-1.41961 1.49427,-2.2288 1.56047,-4.46971 0.0372,-1.25947 0.0372,-1.25947 -15.91452,-1.32271 -12.23158,-0.0485 -16.09623,-0.14105 -16.57135,-0.39688 -0.50394,-0.27134 -5.55459,-4.98531 -11.3201,-10.56549 -1.30832,-1.26626 -1.34884,-2.25151 -0.14381,-3.49692 1.74155,-1.79991 11.19725,-10.40971 11.75657,-10.70483 0.41753,-0.22031 4.95162,-0.30494 16.33802,-0.30494 15.7601,0 15.7601,0 15.77162,-1.12447 0.0976,-9.5284 0.0914,-20.575619 -0.0115,-20.591469 -0.0728,-0.0112 -0.37042,-0.0653 -0.66146,-0.12012 -0.29104,-0.0549 -1.60073,-0.17837 -2.91041,-0.27447 -1.30969,-0.0961 -2.44079,-0.20847 -2.51355,-0.24968 -0.0728,-0.0412 -1.56104,-0.1532 -3.30729,-0.24886 -1.74625,-0.0957 -3.47265,-0.22307 -3.83646,-0.28313 -0.3638,-0.0601 -1.49489,-0.18489 -2.51354,-0.27738 -1.01864,-0.0925 -2.14974,-0.20252 -2.51354,-0.24451 -1.83733,-0.21207 -6.93825,-0.71345 -10.64474,-1.0463 -2.43715,-0.21886 -4.36683,-0.51847 -4.65554,-0.72284 -1.30464,-0.92354 -12.97874,-12.598063 -13.14132,-13.141806 -0.1588,-0.53112 0.11813,-0.917393 1.89687,-2.645833 7.34085,-7.133255 11.60391,-11.056189 12.27756,-11.297978 0.46093,-0.165441 1.44515,-0.20373 2.42793,-0.09446 11.16828,1.24179 18.0941,2.040951 25.14806,2.901799 2.59042,0.31613 4.75906,0.525571 4.81921,0.465426 0.0809,-0.08092 0.20202,-16.720769 0.13781,-18.935689 -0.006,-0.19391 -0.36532,-0.332405 -0.86948,-0.334781 -1.06946,-0.005 -1.33868,-0.180308 -1.86978,-1.217267 -0.52481,-1.02468 -0.18543,-2.559944 0.69228,-3.131652 0.68913,-0.448877 9.761304,-0.702342 16.838374,-0.470442 4.14681,0.135881 4.37709,0.171834 4.93138,0.769928 0.78445,0.846436 0.92033,1.776626 0.40633,2.781627 -0.46057,0.900546 -0.81683,1.155304 -1.94858,1.393431 -0.7161,0.150669 -0.72761,0.184743 -0.72761,2.153448 0,2.266266 -0.26596,2.165838 3.30729,1.248865 0.87313,-0.224063 2.06375,-0.505185 2.64584,-0.624716 1.0239,-0.210259 4.80658,-1.183704 13.36146,-3.43848 8.66657,-2.284214 10.11335,-2.63569 10.84924,-2.63569 0.63491,0 1.75947,0.986236 6.86351,6.01927 5.24897,5.175939 6.10491,6.13048 6.1093,6.813021 0.004,0.686952 -0.7844,1.570948 -5.86271,6.570063 -3.2273,3.176973 -6.1774,5.894347 -6.55577,6.038611 -0.52673,0.200826 -10.74333,2.358777 -15.63691,3.302828 -1.9118,0.368818 -6.00493,1.193309 -6.35,1.279101 -0.21828,0.05427 -2.16332,0.459019 -4.32231,0.899444 -2.159,0.440425 -4.07422,0.924242 -4.25605,1.075149 -0.24017,0.199328 -0.30291,1.086878 -0.22937,3.244914 0.0557,1.633796 0.14159,3.010905 0.19093,3.060241 0.0493,0.04934 1.26416,0.201871 2.69961,0.338966 3.4855,0.33289 5.04473,0.493822 6.31407,0.651692 1.72048,0.21398 3.32932,0.382135 5.15937,0.539251 0.94589,0.08121 1.95846,0.195791 2.25017,0.254627 0.29171,0.05884 1.66093,0.187991 3.04271,0.287009 1.38178,0.09902 2.75046,0.271222 3.0415,0.382675 0.76217,0.291874 11.4615,10.770587 11.9378,11.691657 0.35692,0.6902 0.35665,0.83885 -0.002,1.38689 -0.22121,0.33762 -0.94334,1.05726 -1.60472,1.59922 -0.66139,0.54195 -1.20252,1.09109 -1.20252,1.2203 0,0.12921 0.62508,0.18043 1.38906,0.11382 0.76399,-0.0666 2.99641,-0.20264 4.96094,-0.30229 3.57188,-0.18118 3.57188,-0.18118 5.68854,1.26995 1.80898,1.24018 5.10516,3.64536 7.55449,5.51241 0.37142,0.28312 1.97876,1.47639 3.57187,2.6517 3.8579,2.84616 4.08719,3.07688 4.08719,4.11265 0,0.72541 -0.24175,1.06954 -1.50097,2.13669 -2.10863,1.78698 -6.62075,5.80572 -9.74383,8.67835 -4.85575,4.46638 -3.91493,3.99861 -8.46666,4.20955 -2.18282,0.10116 -8.37407,0.23955 -13.75834,0.30754 -9.57166,0.12087 -25.28079,0.56917 -25.43755,0.72594 -0.0434,0.0434 -0.11221,3.22768 -0.15296,7.07622 -0.0735,6.93924 -0.0688,7.00722 0.55871,8.18796 0.34803,0.65485 0.97311,1.60471 1.38906,2.11081 1.31801,1.60363 0.95039,3.49814 -1.05734,5.44903 -0.83666,0.81296 -0.83666,0.81296 -0.76829,15.74271 0.0684,14.92974 0.0684,14.92974 0.99333,14.92974 0.88181,0 0.94968,-0.0684 1.45521,-1.46613 0.77715,-2.14881 1.58222,-3.37107 2.29475,-3.48391 0.88815,-0.14067 1.74356,0.29416 1.91391,0.97288 0.13252,0.52799 -0.51604,2.87339 -1.17294,4.24175 -0.78365,1.63236 -1.41668,8.06979 -0.79355,8.06979 0.16019,0 0.51763,-0.52811 0.79431,-1.17358 0.27668,-0.64547 0.80737,-1.37297 1.1793,-1.61666 0.77287,-0.50641 1.85707,-0.35295 2.10695,0.29822 0.0893,0.23263 -0.19525,1.65041 -0.63227,3.15062 -0.43702,1.50021 -0.79459,2.89597 -0.79459,3.10169 0,0.43358 1.34569,1.79596 1.77396,1.79596 0.15939,0 0.29254,-0.38695 0.29588,-0.8599 0.0172,-2.43193 2.88948,-9.66745 4.68447,-11.80068 0.9048,-1.07529 2.03077,-1.13622 2.68023,-0.14501 0.50777,0.77495 0.56541,0.56014 -1.23527,4.60351 -1.5595,3.50182 -1.75393,3.99072 -1.95971,4.92761 -0.15168,0.69058 -0.0932,0.84744 0.36022,0.96601 1.20344,0.31471 0.98907,1.35449 -0.65923,3.19757 -0.5024,0.56177 -0.91346,1.04451 -0.91346,1.07275 0,0.0282 0.46987,0.0791 1.04416,0.11296 0.87313,0.0515 1.31067,-0.13458 2.6711,-1.13607 1.72544,-1.2702 4.09845,-2.1565 6.4427,-2.40632 1.14421,-0.12194 1.49933,-0.0515 2.09236,0.41497 0.41978,0.3302 0.71426,0.82239 0.71426,1.19379 0,0.71192 -0.93186,1.71089 -1.59597,1.71089 -0.71731,0 -3.49039,1.02997 -3.98971,1.48185 -0.44096,0.39906 -0.44004,0.46041 0.0191,1.27797 0.50012,0.89042 1.02615,3.04099 1.13703,4.64852 0.0639,0.92604 0.0639,0.92604 5.94204,1.05833 6.68258,0.15039 6.80981,0.19053 6.80981,2.14835 0,0.81612 -0.1525,1.20663 -0.61861,1.58406 -0.5927,0.47994 -1.37361,0.50205 -18.64711,0.5278 -9.91568,0.0148 -19.33819,0.0445 -20.93892,0.0661 -1.60073,0.0216 -12.178084,-0.0203 -23.505224,-0.093 z m 21.388554,-4.47399 c 0.43657,0.0105 6.18133,0.0516 12.76615,0.0914 11.97239,0.0723 11.97239,0.0723 11.97239,-0.7091 0,-1.2181 -0.74034,-2.49556 -1.71407,-2.95762 -0.77922,-0.36977 -3.41615,-0.41732 -23.1391,-0.41732 -24.779704,0 -23.724774,-0.0747 -24.480484,1.73395 -0.22441,0.53707 -0.40801,1.31953 -0.40801,1.73879 0,0.76228 0,0.76228 12.10469,0.63158 6.657574,-0.0719 12.461874,-0.12213 12.898434,-0.11165 z m 12.25199,-8.96874 c -0.19016,-0.26299 -0.81743,-1.03689 -1.39395,-1.71979 -1.04822,-1.24164 -1.04822,-1.24164 -10.88175,-1.24164 -9.833544,0 -9.833544,0 -11.343434,1.71979 -1.5099,1.71979 -1.5099,1.71979 11.227484,1.71979 12.23554,0 12.72376,-0.0188 12.39165,-0.47815 z m -4.18219,-7.39609 c 0,-0.038 -0.25521,-0.61196 -0.56713,-1.27554 -0.95483,-2.03131 -0.97605,-2.03647 -7.84385,-1.9083 -3.3186,0.0619 -6.1756,0.20025 -6.3489,0.30736 -0.57872,0.35766 -1.741824,2.58942 -1.445054,2.77276 0.256754,0.15862 16.204964,0.2607 16.204934,0.10372 z m -4.0327,-22.5031 c 0.0684,-14.86641 0.0684,-14.86641 -1.23894,-14.86641 -1.66895,0 -1.72301,0.15976 -1.47996,4.3737 0.13758,2.38523 0.10003,3.40562 -0.14223,3.86529 -0.56975,1.0811 -1.13686,1.2658 -1.98529,0.64659 -0.46025,-0.3359 -0.52733,-0.80995 -0.64589,-4.56406 -0.13229,-4.18923 -0.13229,-4.18923 -1.4552,-4.18923 -1.32292,0 -1.32292,0 -1.31894,14.68437 0.004,14.68438 0.004,14.68438 1.22248,14.76362 1.08024,0.0703 1.23701,0.0102 1.38148,-0.52916 0.0896,-0.33463 0.16458,-4.01301 0.16657,-8.17418 0.003,-7.1754 0.0304,-7.58997 0.52212,-8.035 0.73703,-0.667 1.73679,-0.35477 2.08775,0.65202 0.16729,0.47987 0.28505,3.81093 0.29586,8.36906 0.01,4.16455 0.064,7.64632 0.12013,7.73726 0.0562,0.0909 0.61956,0.15796 1.25194,0.14895 1.14977,-0.0164 1.14977,-0.0164 1.21812,-14.88282 z m 0.94036,-21.47167 c -0.81994,-1.61861 -0.93805,-2.10133 -0.97109,-3.96857 -0.0281,-1.58862 -0.1278,-2.12587 -0.39448,-2.126 -0.60841,-3e-4 -1.87065,1.58142 -2.1836,2.73626 -0.16395,0.60502 -0.34139,1.25171 -0.39431,1.43711 -0.12141,0.42539 -1.13667,0.81174 -1.72725,0.6573 -0.64036,-0.16746 -0.75425,-0.84542 -0.75832,-4.51394 -0.004,-3.25497 -0.004,-3.25497 -1.39268,-3.175 -1.38906,0.08 -1.38906,0.08 -1.52758,3.91643 -0.14251,3.94728 -0.23893,4.33529 -1.49565,6.01927 -0.64172,0.8599 -0.64172,0.8599 5.56836,0.8599 6.21007,0 6.21007,0 5.2766,-1.84276 z M 71.355736,141.2434 c 0.067,-1.45521 0.067,-1.45521 -1.85209,-2.85675 -1.05551,-0.77085 -2.57397,-1.99124 -3.37433,-2.71197 -1.69046,-1.52226 -1.96235,-1.04026 2.5987,-4.60692 2.69297,-2.10586 2.69297,-2.10586 2.69297,-3.50069 0,-1.28223 -0.0556,-1.40881 -0.68938,-1.56786 -1.06736,-0.26789 -2.08895,0.38597 -5.27323,3.37511 -1.60594,1.50752 -3.42164,3.18713 -4.03489,3.73245 -0.61325,0.54533 -1.115,1.0912 -1.115,1.21304 0,0.12185 0.38695,0.56408 0.85989,0.98275 0.47295,0.41867 2.52677,2.28823 4.56407,4.15459 3.42221,3.13509 3.77465,3.3876 4.6302,3.31742 0.92605,-0.076 0.92605,-0.076 0.99309,-1.53117 z m 27.8465,-0.11892 c 0,-1.73316 0,-1.73316 -3.63802,-1.73677 -2.00091,-0.002 -3.89116,-0.0716 -4.20055,-0.15458 -0.73708,-0.19781 -1.26723,-1.21972 -1.06037,-2.04395 0.23476,-0.93535 1.38597,-1.2432 4.22653,-1.13022 1.3329,0.053 2.92947,0.0344 3.54793,-0.0414 1.12448,-0.13777 1.12448,-0.13777 1.12448,-1.55702 0,-0.78058 -0.0298,-1.42348 -0.0661,-1.42866 -0.0364,-0.005 -1.85209,-0.0757 -4.0349,-0.15663 -3.54707,-0.13157 -4.01795,-0.20396 -4.43177,-0.68135 -0.59954,-0.69162 -0.58364,-1.04457 0.0854,-1.89505 0.54837,-0.69714 0.54837,-0.69714 4.49791,-0.69714 3.94955,0 3.94955,0 3.94955,-1.71979 0,-1.18929 -0.10202,-1.72566 -0.33073,-1.73883 -1.61438,-0.0929 -22.91798,-0.17414 -23.23411,-0.0886 -0.31737,0.0859 -0.40734,0.4581 -0.38608,1.59714 0.0232,1.24325 0.1337,1.56894 0.67838,1.99979 3.73208,2.95207 5.54545,4.5396 5.54545,4.8548 0,0.20802 -1.43981,1.52211 -3.19958,2.9202 -2.69851,2.14389 -3.17559,2.63145 -3.04632,3.1133 0.0843,0.31423 0.15489,0.94292 0.15687,1.39708 0.004,0.82575 0.004,0.82575 11.90987,0.87327 11.90625,0.0475 11.90625,0.0475 11.90625,-1.68565 z m -14.77055,-2.34553 c -0.69861,-0.74364 -0.71455,-1.17555 -0.0741,-2.00855 0.5934,-0.77185 2.07375,-0.84172 2.59953,-0.12269 1.2838,1.75571 -1.03766,3.71485 -2.52539,2.13124 z m 0.48744,-6.07789 c -0.36138,-0.18284 -0.77071,-0.65561 -0.90962,-1.05059 -0.51863,-1.47471 1.78496,-2.74019 2.8486,-1.56488 0.6421,0.70952 0.56333,2.04411 -0.15016,2.54385 -0.70677,0.49504 -0.93398,0.50414 -1.78882,0.0716 z m 25.131034,6.80652 c 2.24896,-0.15261 2.24896,-0.15261 2.16108,-18.05964 -0.0483,-9.84886 -0.13077,-17.94992 -0.1832,-18.00235 -0.21718,-0.21718 -1.7549,1.1239 -2.18031,1.90148 -0.40402,0.73849 -0.46855,1.87399 -0.53844,9.47514 -0.0761,8.27283 -0.10188,8.65643 -0.6134,9.11935 -0.48666,0.44042 -0.59686,0.44797 -1.2435,0.0852 -0.70952,-0.39806 -0.70952,-0.39806 -0.84182,-10.70685 -0.14071,-10.9648 -0.1383,-10.94544 -1.48921,-12.00806 -1.49835,-1.1786 -1.4212,-2.211879 -1.4212,19.03567 0,19.58536 0,19.58536 2.05052,19.44901 1.12779,-0.075 3.06255,-0.20501 4.29948,-0.28894 z m -2.64584,-3.48411 c -0.70868,-0.26977 -0.78558,-0.6826 -0.78969,-4.23892 -0.004,-3.15606 0.0487,-3.55851 0.52511,-4.0349 0.6647,-0.6647 1.18211,-0.66998 1.83339,-0.0187 0.45933,0.45934 0.50458,0.86013 0.45175,4.00125 -0.0554,3.29589 -0.093,3.51852 -0.67207,3.98745 -0.64916,0.52565 -0.72238,0.54215 -1.34849,0.30382 z m -32.469734,-0.20403 c 0.82897,-0.58208 1.49981,-1.17739 1.49076,-1.32291 -0.0204,-0.3284 -2.7758,-2.51355 -3.16948,-2.51355 -0.31666,0 -3.1578,2.15215 -3.1578,2.39201 0,0.38883 2.85092,2.67437 3.18601,2.55418 0.0788,-0.0283 0.82154,-0.52764 1.65051,-1.10973 z m 57.737444,-3.94224 c 3.05594,-0.0917 8.32446,-0.30105 11.70782,-0.46524 6.15156,-0.29853 6.15156,-0.29853 6.15156,-1.66527 0,-1.62224 0.43506,-2.32777 1.43542,-2.32777 1.05512,0 1.87187,0.92689 1.87187,2.12429 0,0.54151 0.0893,1.01433 0.19844,1.05071 0.10914,0.0364 1.06164,0.063 2.11666,0.0591 1.87058,-0.007 1.94781,-0.034 3.10886,-1.08923 2.76532,-2.51339 5.57077,-5.03283 7.73906,-6.95008 1.27331,-1.12588 2.31511,-2.15343 2.31511,-2.28343 0,-0.13001 -0.62508,-0.69695 -1.38907,-1.25987 -0.76398,-0.56293 -3.40891,-2.53601 -5.87762,-4.38464 -4.48855,-3.36115 -4.48855,-3.36115 -6.35,-3.28456 -1.68442,0.0693 -1.85545,0.12692 -1.79845,0.60576 0.2237,1.87912 -0.72504,3.57188 -2.00194,3.57188 -0.94015,0 -1.35037,-0.72494 -1.35993,-2.4033 -0.005,-0.81249 -0.0605,-1.52931 -0.12409,-1.59294 -0.0636,-0.0636 -1.28401,-0.0383 -2.71198,0.0563 -1.42796,0.0946 -3.90599,0.24869 -5.50672,0.34249 -1.60073,0.0938 -3.44619,0.22388 -4.10104,0.28908 -0.65484,0.0652 -2.20265,0.18677 -3.43958,0.27015 -1.23693,0.0834 -2.9038,0.20067 -3.70417,0.26065 -0.80036,0.06 -4.25318,0.30792 -7.67292,0.55098 -3.41973,0.24306 -6.30483,0.51984 -6.41131,0.61507 -0.19706,0.17623 -0.32334,10.84009 -0.13065,11.03278 0.1021,0.1021 8.0898,-0.29207 11.03988,-0.54479 2.74407,-0.23508 8.59894,-0.54054 9.35746,-0.48821 1.73448,0.11968 2.40025,2.15158 1.09987,3.35673 -0.60506,0.56075 -0.97444,0.62091 -4.82865,0.78643 -2.29541,0.0986 -4.53066,0.22971 -4.96722,0.29141 -0.43656,0.0617 -2.2225,0.18096 -3.96875,0.26504 -4.18336,0.20141 -7.33749,0.42045 -7.70472,0.53504 -0.18397,0.0574 -0.27311,0.67766 -0.23501,1.63532 0.0337,0.84856 0.0776,1.54284 0.0975,1.54284 0.0199,0 2.38783,-0.0756 5.26209,-0.16797 2.87427,-0.0924 7.72626,-0.24299 10.78219,-0.33469 z m 10.26299,-4.98744 c -0.8678,-0.94813 -0.95017,-1.61301 -0.30194,-2.43711 0.53789,-0.68381 0.67295,-0.7231 1.9641,-0.57135 1.36246,0.16013 1.40868,0.14233 2.66817,-1.02706 1.28168,-1.19001 1.28168,-1.19001 -6.8e-4,-2.38063 -1.25443,-1.16468 -2.16709,-1.4718 -2.72268,-0.91621 -0.31589,0.31589 -1.67701,-0.10619 -2.00479,-0.6217 -0.71489,-1.12429 0.59934,-2.67878 2.50536,-2.96339 1.50855,-0.22525 2.27103,0.11343 4.15541,1.84579 0.87638,0.80569 1.6483,1.46488 1.71537,1.46488 0.0671,0 0.92278,-0.71088 1.90158,-1.57974 2.4003,-2.13071 3.30848,-2.54923 4.60398,-2.12167 0.94786,0.31282 6.87084,5.08002 6.87084,5.53009 0,0.22128 -2.85612,2.85576 -5.15996,4.75955 -2.17286,1.79555 -3.51615,1.75452 -5.90763,-0.18043 -0.82507,-0.66755 -1.5398,-1.31084 -1.58831,-1.42952 -0.19528,-0.47777 -0.9237,-0.15792 -2.10595,0.92473 -2.35737,2.15875 -2.62654,2.29908 -4.41,2.29908 -1.36082,0 -1.73019,-0.10074 -2.18287,-0.59531 z m 15.21766,-4.38959 c 1.40356,-1.25782 1.40356,-1.25782 0.0848,-2.36979 -0.7253,-0.61159 -1.5355,-1.10725 -1.80043,-1.10147 -0.26494,0.006 -1.07277,0.55423 -1.79518,1.21879 -1.31348,1.20828 -1.31348,1.20828 0,2.3683 0.72241,0.63801 1.49207,1.15596 1.71035,1.15101 0.21828,-0.005 1.02848,-0.57504 1.80044,-1.26684 z m -38.29203,-1.87336 c -0.72289,-0.72289 -0.70301,-1.93863 0.0452,-2.76762 0.55726,-0.6174 0.8139,-0.67062 4.01527,-0.83266 1.88097,-0.0952 3.60833,-0.20937 3.83856,-0.25371 0.23024,-0.0443 2.00075,-0.16812 3.93447,-0.27507 3.43675,-0.19007 3.53045,-0.18072 4.16507,0.41547 0.77483,0.72791 0.84371,1.80638 0.16863,2.64007 -0.51352,0.63418 -1.54244,0.77361 -8.64752,1.17184 -1.60073,0.0897 -3.82375,0.22806 -4.94003,0.30743 -1.81238,0.12887 -2.0885,0.0854 -2.57969,-0.40575 z m 1.66195,-11.56625 c 1.22756,-0.16825 1.22756,-0.16825 1.22756,-7.67291 0,-7.504665 0,-7.504665 -0.59531,-7.526714 -0.32743,-0.01213 -0.83344,-0.0588 -1.12448,-0.103716 -0.29105,-0.04492 -1.38043,-0.170045 -2.42085,-0.278062 -1.89168,-0.196393 -1.89168,-0.196393 -1.98438,1.297893 -0.1057,1.70404 -0.0469,1.75356 2.21815,1.86929 1.54094,0.0787 2.05478,0.5535 2.05478,1.89852 0,1.36325 -0.57392,1.724259 -2.59725,1.633759 -1.74214,-0.0779 -1.74214,-0.0779 -1.81328,1.16825 -0.0787,1.37792 0.13979,1.64834 1.36783,1.69329 1.9535,0.0715 2.23504,0.12712 2.62693,0.51901 0.25086,0.25087 0.41577,0.87346 0.41577,1.56967 0,1.36088 -0.29711,1.52812 -2.77812,1.56368 -1.5875,0.0228 -1.5875,0.0228 -1.61459,1.08109 -0.0149,0.58208 0.0219,1.14763 0.0818,1.25677 0.1328,0.24209 3.25033,0.26116 4.93548,0.0302 z m 7.33836,-7.76068 c -0.0605,-6.775689 -0.0833,-7.048241 -0.70184,-8.40052 -0.35161,-0.768694 -0.69884,-1.397625 -0.77162,-1.397625 -0.0728,0 -0.338,0.446484 -0.58938,0.992187 -0.39071,0.848136 -0.47074,2.079479 -0.55125,8.481138 -0.0942,7.48895 -0.0942,7.48895 1.29124,7.40833 1.38541,-0.0806 1.38541,-0.0806 1.32285,-7.08351 z m 5.427,5.58218 c 0.033,-1.31174 0.42821,-1.8012 1.62201,-2.00868 1.23152,-0.21404 2.00545,0.59584 1.7698,1.85199 -0.17184,0.91595 -0.17184,0.91595 0.89872,0.91595 1.58682,0 2.07812,-0.27945 4.54272,-2.58384 2.24709,-2.10103 2.24709,-2.10103 -1.5875,-5.935379 -3.83459,-3.83434 -3.83459,-3.83434 -5.2898,-4.00526 -0.80037,-0.094 -2.02076,-0.17196 -2.71198,-0.17322 -1.25677,-0.002 -1.25677,-0.002 -1.25677,6.597259 0,6.59956 0,6.59956 0.99219,6.53575 0.97681,-0.0628 0.99262,-0.0813 1.02061,-1.19457 z m 0.58196,-5.78918 c -0.66994,-0.78004 -0.73886,-1.335159 -0.24195,-1.948809 0.82769,-1.02215 2.31472,-0.87105 2.94082,0.29884 0.2082,0.38902 0.17456,0.722059 -0.13302,1.316849 -0.33227,0.64254 -0.58114,0.79614 -1.28994,0.79614 -0.50854,0 -1.04564,-0.19491 -1.27591,-0.46302 z m -22.7562,-6.196329 c -0.0792,-1.664055 -0.0792,-1.664055 -2.9896,-1.982072 -4.10704,-0.44877 -7.97702,-0.859371 -9.525004,-1.010593 -0.72761,-0.07108 -3.04933,-0.310394 -5.15938,-0.531809 -2.11005,-0.221415 -4.61036,-0.476684 -5.55625,-0.567264 -3.28585,-0.31466 -4.31676,-1.05546 -3.88161,-2.789267 0.29743,-1.185023 1.10946,-1.375499 4.45415,-1.044796 1.64963,0.163106 3.71371,0.3568 4.58684,0.43043 2.84957,0.240304 4.68673,0.418828 9.789584,0.951297 9.39029,0.979852 8.37474,1.06727 8.28248,-0.712952 -0.0804,-1.551506 -0.0804,-1.551506 -1.46148,-1.857129 -0.7596,-0.168093 -3.37897,-0.505103 -5.82083,-0.748911 -2.44187,-0.243808 -4.73741,-0.486167 -5.101214,-0.538575 -0.3638,-0.05241 -1.55443,-0.173555 -2.64584,-0.269217 -1.0914,-0.09566 -2.28203,-0.214771 -2.64583,-0.264688 -0.3638,-0.04992 -2.4474,-0.292637 -4.63021,-0.539378 -4.4755,-0.505901 -4.89479,-0.700655 -4.89479,-2.27355 0,-1.264667 0.82788,-1.920171 2.16093,-1.711008 0.84433,0.132478 1.80197,0.224973 5.90886,0.570714 1.01865,0.08575 2.79542,0.265437 3.94839,0.399294 1.15296,0.133856 2.12206,0.214367 2.15354,0.178912 0.17177,-0.193442 0.26157,-2.871286 0.10479,-3.124957 -0.16134,-0.261055 -2.59114,-0.644865 -7.26505,-1.147582 -0.72761,-0.07826 -3.46604,-0.378644 -6.08542,-0.66752 -9.27657,-1.023062 -8.33438,-1.169259 -8.33438,1.293214 0,2.151547 0,2.151547 2.51355,4.620544 1.38244,1.357948 2.51354,2.575206 2.51354,2.705018 0,0.129812 -1.1311,1.362413 -2.51354,2.739112 -2.51355,2.503091 -2.51355,2.503091 -2.51355,4.278639 0,0.976551 0.0893,1.829324 0.19844,1.89505 0.21798,0.131272 1.71893,0.336609 4.16719,0.570091 0.87313,0.08327 1.94469,0.204582 2.38125,0.269589 1.33237,0.198397 12.3354,1.210274 17.330214,1.593754 1.09141,0.0838 2.28203,0.20121 2.64583,0.26093 0.36381,0.0597 1.61396,0.18591 2.77813,0.28042 1.16417,0.0945 2.13666,0.18828 2.1611,0.20837 0.0244,0.0201 0.71492,0.0733 1.53439,0.11824 1.48996,0.0817 1.48996,0.0817 1.41078,-1.58235 z M 74.066816,91.10486 c 0,-1.984375 0,-1.984375 -1.00883,-1.984375 -0.77555,0 -1.18469,-0.183551 -1.76929,-0.79375 -0.87931,-0.917793 -1.61157,-1.022402 -1.85209,-0.264583 -0.0924,0.291041 -0.37954,0.529166 -0.63814,0.529166 -0.54083,0 -5.58494,-4.725316 -5.58171,-5.228943 0.003,-0.457691 4.87052,-5.08866 5.34952,-5.089484 0.20255,-3.48e-4 0.55739,0.37294 1.09306,1.149888 0.32122,0.465903 0.37699,0.455078 1.19301,-0.231561 0.73024,-0.614458 1.02934,-0.70078 2.03526,-0.587399 1.17921,0.132914 1.17921,0.132914 1.17921,-2.047049 0,-2.179963 0,-2.179963 -2.05052,-2.357582 -1.12779,-0.09769 -2.42931,-0.244894 -2.89226,-0.327118 -0.79521,-0.141233 -1.10607,0.102721 -5.6224,4.412307 -2.62936,2.508993 -4.78065,4.710712 -4.78065,4.892709 0,0.181997 2.12541,2.356841 4.72313,4.832987 4.72314,4.502082 4.72314,4.502082 6.28386,4.678576 0.85839,0.09707 1.67978,0.217514 1.8253,0.267651 0.14552,0.05014 0.7706,0.100558 1.38906,0.112047 1.12448,0.02089 1.12448,0.02089 1.12448,-1.963487 z m 3.66487,-6.567238 c 0.2597,-0.312917 0.16854,-0.511058 -0.49008,-1.065251 -0.98141,-0.825806 -2.11281,-1.07298 -4.89458,-1.06931 -1.53072,0.002 -2.36934,0.135955 -3.02943,0.483823 -0.91276,0.481031 -0.91276,0.481031 -0.32104,0.960173 0.54029,0.4375 2.18192,0.865244 5.73172,1.493459 1.37915,0.244071 2.34988,-0.01543 3.00341,-0.802894 z m 29.843554,-5.220481 c 1.57949,-0.29861 4.18148,-0.832209 5.78221,-1.185777 1.60073,-0.353567 4.2201,-0.884659 5.82083,-1.180205 1.60073,-0.295545 3.68433,-0.708516 4.63021,-0.917713 0.94589,-0.209196 3.26761,-0.685256 5.15938,-1.05791 4.6039,-0.90691 7.15797,-1.555096 7.0776,-1.796197 -0.0364,-0.109141 -0.0661,-0.887142 -0.0661,-1.728891 0,-1.384093 -0.0696,-1.573495 -0.72761,-1.980512 -0.40018,-0.247531 -1.42814,-1.088747 -2.28436,-1.869369 -1.21772,-1.110217 -1.50422,-1.513171 -1.31556,-1.850298 0.13266,-0.237043 1.13085,-1.406833 2.21821,-2.599533 1.95657,-2.146113 1.97839,-2.18609 2.10932,-3.864458 0.0728,-0.932751 0.0988,-1.729251 0.0579,-1.769999 -0.0883,-0.08795 -1.96142,0.362194 -9.58291,2.302947 -3.12869,0.796699 -5.98619,1.509702 -6.35,1.584452 -0.3638,0.07475 -2.78078,0.684895 -5.37107,1.355879 -2.59028,0.670984 -4.98393,1.269714 -5.3192,1.330511 -0.66423,0.120447 -3.48069,0.855121 -4.854,1.266163 -0.85989,0.257375 -0.85989,0.257375 -0.85989,2.047472 0,1.790097 0,1.790097 1.65364,1.467971 0.90951,-0.17717 3.35725,-0.765975 5.43943,-1.308456 3.62743,-0.945073 3.80727,-0.966884 4.29948,-0.521441 0.28253,0.255689 0.5137,0.805373 0.5137,1.22152 0,0.897296 -0.8237,1.479461 -3.36032,2.374964 -1.41269,0.498719 -1.66677,0.684169 -1.66677,1.21656 0,0.37402 0.11316,0.558209 0.2797,0.455279 0.15384,-0.09508 0.54079,-0.202563 0.8599,-0.238863 0.31911,-0.0363 0.82938,-0.146216 1.13394,-0.24426 0.73604,-0.236951 1.9598,0.723174 1.9598,1.537606 0,0.930615 -0.54906,1.217593 -3.8878,2.032033 -3.2349,0.789111 -3.47889,0.767528 -4.08295,-0.361176 -0.19856,-0.371001 -0.15855,-0.670999 0.15283,-1.146239 0.41142,-0.627893 0.40397,-0.643716 -0.30307,-0.643716 -0.39868,0 -1.23486,0.194769 -1.85819,0.432821 -1.13332,0.43282 -1.13332,0.43282 -1.13332,3.307291 0,3.364406 -0.37972,3.135936 3.87508,2.331544 z m 11.33939,-6.335213 c -0.21879,-0.241762 -0.39781,-0.698084 -0.39781,-1.014048 0,-0.658955 0.86793,-1.632812 1.45521,-1.632812 0.43954,0 1.45521,0.914653 1.45521,1.310467 0,0.36276 -0.58545,1.5959 -0.77007,1.621998 -1.04065,0.147113 -1.40498,0.0874 -1.74254,-0.285605 z m 5.09356,-0.984876 c -0.44241,-0.488855 -0.39385,-1.445893 0.106,-2.089467 0.28588,-0.368067 3.07884,-0.977637 3.91504,-0.854467 0.80881,0.119134 1.19231,0.762297 0.97376,1.633061 -0.21998,0.876508 -1.24473,1.415606 -3.10358,1.632729 -1.2101,0.141346 -1.51971,0.08866 -1.89122,-0.321856 z m -4.90333,-4.455112 c -1.00859,-0.706447 -0.61476,-2.202469 0.68871,-2.616177 0.42439,-0.134696 0.77039,-0.05244 1.12347,0.26709 0.71433,0.646463 0.63675,1.564679 -0.18694,2.212595 -0.8353,0.657049 -0.87703,0.660554 -1.62524,0.136492 z m 5.16665,-1.188043 c -0.56707,-0.34103 -0.59824,-1.264283 -0.0682,-2.020972 0.28824,-0.411523 0.90442,-0.654714 2.28319,-0.901114 1.77458,-0.317134 1.91095,-0.306657 2.26226,0.173796 0.5734,0.78417 0.32861,1.746658 -0.57461,2.25931 -1.00694,0.571517 -3.28976,0.857544 -3.90261,0.48898 z m 18.19001,5.960952 c 1.01859,-0.215754 2.10097,-0.392281 2.40529,-0.392281 0.58425,0 8.83936,-8.237672 8.83986,-8.821186 1.4e-4,-0.168817 -1.76532,-2.051565 -3.92324,-4.183886 -4.42776,-4.375219 -3.60097,-4.075771 -8.11556,-2.939288 -1.85209,0.466235 -1.85209,0.466235 -1.93082,2.273997 -0.0711,1.63298 -0.0328,1.794771 0.39688,1.673399 1.64113,-0.463635 2.11462,-0.445857 2.81585,0.105729 0.77154,0.606896 1.49621,0.530419 1.49621,-0.157902 0,-0.233242 0.18141,-0.605482 0.40312,-0.827198 0.36111,-0.361106 0.51967,-0.298424 1.52136,0.601413 2.54419,2.285506 3.36665,3.115654 3.3569,3.388278 -0.006,0.158227 -1.01274,1.343631 -2.23797,2.634232 -1.96362,2.068402 -2.30866,2.326218 -2.91095,2.175055 -0.37579,-0.09432 -0.61184,-0.287062 -0.52454,-0.428316 0.41141,-0.665677 -0.6616,-0.1521 -1.38179,0.661367 -0.58339,0.658946 -1.12006,0.967309 -1.90077,1.092149 -1.08786,0.173956 -1.08786,0.173956 -1.08786,1.859931 0,1.945347 -0.1074,1.895688 2.77803,1.284507 z m -3.53914,-6.458367 c 3.06222,-0.799921 3.74067,-1.034475 4.7081,-1.6277 0.70719,-0.433649 0.82252,-0.606247 0.52916,-0.79193 -0.49616,-0.314051 -2.09543,-0.303565 -4.21156,0.02761 -2.19573,0.343634 -3.05244,0.691004 -3.54022,1.435464 -0.34867,0.532129 -0.34392,0.643857 0.0438,1.031576 0.23915,0.239147 0.45376,0.434813 0.47691,0.434813 0.0231,0 0.92037,-0.229426 1.99382,-0.509836 z m -33.30399,-5.432175 c 0.99218,-0.167384 0.99218,-0.167384 0.99218,-2.107373 0,-1.239118 0.11949,-2.032442 0.33073,-2.195897 0.70542,-0.545827 1.24343,-0.556999 1.90135,-0.03948 0.58208,0.457867 0.67834,0.741382 0.67834,1.997899 0,1.28795 0.0558,1.442259 0.46302,1.281203 0.25466,-0.10071 0.84998,-0.248089 1.32292,-0.327509 0.85989,-0.144401 0.85989,-0.144401 0.85989,-3.15249 0,-3.00809 0,-3.00809 -3.40651,-3.00809 -5.43754,0 -5.00554,-0.355325 -5.04583,4.150249 -0.0318,3.558723 -8.3e-4,3.820036 0.43874,3.699053 0.26014,-0.0716 0.91946,-0.205502 1.46517,-0.297563 z"
       id="path1" /></g><path
     style="fill:#ffbf00;stroke:#3e1e17;stroke-width:1.19371;stroke-linecap:round;stroke-linejoin:round;fill-opacity:1"
     d="m 135.80892,641.04607 c -43.644405,-0.27123 -80.702177,-0.76451 -82.350601,-1.09616 -3.022979,-0.6082 -5.293527,-3.32885 -5.293527,-6.3429 0,-2.18237 2.554452,-5.77429 4.690597,-6.59564 1.11149,-0.42737 10.980059,-1.06423 21.930154,-1.41524 16.701151,-0.53537 20.114811,-0.84382 21.184874,-1.91422 0.724438,-0.72466 1.548672,-3.47782 1.907579,-6.37178 0.347576,-2.80267 1.711595,-7.54632 3.031154,-10.54145 1.67736,-3.80726 2.18644,-5.84321 1.69204,-6.76701 -0.64839,-1.21152 -11.90882,-6.42504 -16.207252,-7.50387 -1.907381,-0.47873 -4.276915,-3.4134 -4.276915,-5.29696 0,-0.60328 0.871317,-2.03703 1.936264,-3.18614 1.738654,-1.87603 2.500542,-2.08926 7.465156,-2.08926 7.278008,0 14.238837,2.54556 22.541237,8.24326 5.54302,3.80404 6.89476,4.39013 10.12521,4.39013 2.53953,0 3.72817,-0.32845 3.72817,-1.03019 0,-0.5666 -1.59892,-3.30084 -3.55315,-6.07609 -1.95422,-2.77525 -3.55314,-5.52147 -3.55314,-6.10272 0,-0.58125 1.21844,-1.77571 2.70764,-2.65436 l 2.70763,-1.59755 -1.20304,-4.10033 c -0.66168,-2.25518 -3.43619,-9.6077 -6.16558,-16.33892 -6.29435,-15.5231 -6.56637,-16.72818 -4.26092,-18.87603 4.38877,-4.08877 8.64026,-0.78495 14.51659,11.28075 4.86888,9.99712 8.45675,20.26281 10.743,30.73799 0.86616,3.96862 1.73786,7.3787 1.93711,7.57794 0.52673,0.52674 4.34193,-2.46693 6.03655,-4.7367 1.42408,-1.90739 1.41239,-2.09089 -0.54997,-8.63666 -4.27595,-14.26309 -4.76878,-16.52364 -3.90198,-17.8978 1.65358,-2.62147 3.23568,-3.02128 6.25606,-1.58097 2.25067,1.07327 3.35715,2.43986 5.24927,6.48323 4.05895,8.67376 5.8885,6.28084 4.53462,-5.93093 -0.74792,-6.74592 -4.24277,-21.85716 -7.34325,-31.7511 -1.07325,-3.42487 -1.05389,-3.85918 0.24343,-5.4613 1.85043,-2.28519 5.89982,-2.32146 8.1483,-0.073 0.91716,0.91715 3.29579,4.97365 5.28585,9.01444 l 3.61828,7.34689 h 3.15059 c 2.86171,0 3.19704,-0.2172 3.65712,-2.36876 0.70825,-3.31213 0.7074,-102.52985 -9.3e-4,-107.49248 -0.4692,-3.2873 -1.26676,-4.82155 -4.2056,-8.09026 -3.82795,-4.25759 -5.98339,-10.15268 -5.05893,-13.83602 0.2585,-1.02994 2.07514,-4.00794 4.03699,-6.61777 4.40129,-5.85501 5.59307,-8.67538 6.2995,-14.90781 0.93648,-8.2621 5.60259,-7.61631 -59.91908,-8.29276 C 86.452849,372.23084 59.658586,371.75017 57.783223,371.48143 53.825683,370.9143 53.83961,370.92602 27.496108,346.00995 17.648287,336.69576 9.1664706,328.0502 8.64763,326.7976 c -0.7395041,-1.78532 -0.7282043,-2.79685 0.052292,-4.68113 0.929646,-2.24436 17.908536,-18.47948 38.087161,-36.41871 7.458017,-6.63035 8.937725,-7.61077 12.151402,-8.05125 2.012602,-0.27585 24.839702,-0.52851 50.726885,-0.56144 47.58876,-0.0605 65.01105,-0.57222 66.34429,-1.94844 0.98027,-1.01188 2.01458,-58.12777 1.28215,-70.80256 -0.48149,-8.33225 -0.80175,-10.10361 -1.88401,-10.42034 -1.35037,-0.39521 -22.80206,-2.37906 -35.25615,-3.26048 -10.53562,-0.74565 -84.051471,-8.12963 -87.176053,-8.75601 -2.06277,-0.41353 -5.768648,-3.50327 -15.888137,-13.24659 -20.064867,-19.319 -36.29787324,-36.39542 -36.29787324,-38.18379 0,-1.60764 15.53623724,-17.19919 36.63166924,-36.762083 14.561745,-13.50386 16.338533,-14.746101 21.091486,-14.746101 3.698755,0 42.187818,4.251214 89.139978,9.845728 12.81105,1.526485 24.62879,2.778177 26.26165,2.781541 l 2.96883,0.0061 -0.20527,-36.518387 -0.20529,-36.518388 -3.48208,-0.464662 c -5.25695,-0.701508 -7.92412,-4.782156 -6.854,-10.4863419 1.17796,-6.2791175 4.78531,-6.83838768 44.46486,-6.89368149 27.98792,-0.0390013 36.32749,0.34079389 39.09722,1.78053799 1.75244,0.9109446 3.75871,4.7661761 3.75871,7.2227156 0,3.2072158 -3.2577,7.1083468 -7.12799,8.5358478 l -3.53143,1.302521 -0.2272,7.213345 c -0.17865,5.671615 0.0135,7.30571 0.89895,7.645492 1.49663,0.574311 23.8683,-4.790675 67.6275,-16.217863 45.36864,-11.8474707 44.22687,-11.6014201 47.51504,-10.2394099 3.68965,1.5282997 45.42529,43.1223889 46.09987,45.9435139 0.40072,1.675777 0.009,2.861718 -1.69406,5.132314 -2.52353,3.363972 -27.42704,28.166556 -37.28966,37.138528 l -6.56179,5.969223 -9.62474,2.21727 c -5.2936,1.21951 -29.74839,6.31555 -54.34397,11.32456 -24.59558,5.009 -46.49709,9.63525 -48.67,10.28054 -3.58797,1.0655 -3.99913,1.43099 -4.47731,3.97993 -0.2896,1.54368 -0.27942,7.03151 0.0226,12.19518 0.5446,9.31063 0.56625,9.39192 2.61092,9.80362 1.13398,0.22834 9.16805,1.15159 17.85351,2.05166 8.68545,0.90007 22.36504,2.33183 30.39909,3.18169 8.03404,0.84984 18.87112,1.93519 24.08239,2.41188 7.77981,0.71164 10.01258,1.21234 12.47944,2.79848 1.65242,1.06248 12.22437,11.06313 23.49324,22.22368 17.61343,17.44414 20.48841,20.61965 20.48581,22.62732 -0.002,1.88072 -1.11691,3.37258 -5.72409,7.66243 -4.02725,3.74987 -5.47345,5.57464 -4.88473,6.16336 0.5849,0.5849 4.14472,0.59781 11.84036,0.043 16.46773,-1.18729 24.43422,-1.04588 27.42716,0.48687 5.41796,2.77464 57.54503,41.29044 61.15709,45.18793 1.35519,1.46226 1.78685,2.73566 1.61417,4.76167 -0.2088,2.44977 -1.40795,3.79964 -10.50035,11.82022 -5.64554,4.98003 -18.21671,16.26017 -27.93592,25.06697 -9.7192,8.8068 -18.90656,16.59854 -20.41634,17.31498 -3.26325,1.54851 -19.01414,2.1766 -88.64104,3.53469 -47.51396,0.92677 -73.91747,1.78429 -74.55452,2.42133 -0.20741,0.20741 -0.48373,12.44598 -0.61406,27.19682 l -0.23696,26.81971 1.87572,3.55314 c 1.03164,1.95423 3.096,5.22868 4.58747,7.27656 1.49146,2.04788 3.01406,4.77756 3.38357,6.06595 1.03749,3.61753 -0.55379,8.21631 -4.40369,12.72658 -1.90978,2.23737 -3.73809,5.01518 -4.0629,6.17294 -1.04227,3.71496 -0.62301,108.39337 0.44426,110.92064 0.79487,1.88224 1.33001,2.18364 3.50478,1.97397 2.16716,-0.20895 2.81246,-0.78228 4.14583,-3.68346 6.40191,-13.92936 8.39367,-16.22097 12.76297,-14.68437 4.06012,1.42788 4.13894,3.95449 0.46117,14.78205 -3.20789,9.4442 -4.26951,14.47705 -5.326,25.24901 -0.58254,5.93965 0.06,10.30374 1.45143,9.85823 0.50328,-0.16114 1.87234,-2.04536 3.04234,-4.18715 3.58593,-6.56437 8.36657,-9.31661 10.89372,-6.27159 1.13832,1.37159 0.75874,4.11242 -1.91482,13.82642 -3.19127,11.59502 -3.20412,10.69877 0.20564,14.3542 3.95119,4.23589 5.28989,3.76741 6.02399,-2.10812 0.62549,-5.00623 4.03729,-15.75811 7.927,-24.98096 7.41885,-17.59077 13.97953,-24.09663 18.50195,-18.34731 0.90006,1.14425 1.63648,2.43493 1.63648,2.86818 0,0.43326 -2.8941,7.38448 -6.43135,15.44717 -3.53724,8.06269 -6.59524,16.11356 -6.79557,17.89082 -0.32486,2.88218 -0.14183,3.3327 1.69383,4.16909 3.22103,1.4676 2.63879,4.09036 -2.26355,10.1963 l -4.3216,5.38262 4.46178,0.24098 c 4.19073,0.22634 4.79075,0.0162 9.8766,-3.45879 6.30542,-4.30831 12.80354,-7.09347 20.2144,-8.66412 7.39407,-1.56708 9.15834,-1.4343 11.93,0.8979 4.19007,3.52571 2.56208,8.32411 -3.32407,9.79754 -5.90758,1.47878 -13.76463,4.76518 -15.20948,6.36171 -1.35243,1.49443 -1.34071,1.69942 0.3029,5.29597 1.96479,4.29938 4.04991,12.80582 4.067,16.5917 0.009,1.992 0.44374,2.74997 1.89341,3.30113 1.03496,0.39349 10.99866,1.06423 22.14156,1.49053 23.76701,0.90927 24.14149,1.01957 24.14149,7.11056 0,3.05504 -0.3959,4.16414 -2.03686,5.7063 l -2.03687,1.91421 -42.77218,0.19886 c -23.5247,0.10937 -57.34006,0.28703 -75.14524,0.39479 -17.80518,0.10777 -68.08212,-0.026 -111.72653,-0.29724 z m 166.15661,-16.4634 c 2.54226,-0.96657 2.67526,-3.70558 0.40742,-8.3903 -3.29652,-6.80972 5.15314,-6.2366 -91.94808,-6.2366 -67.54846,0 -86.67211,0.21566 -88.887,1.00237 -3.1408,1.1156 -5.10103,4.31668 -5.9696,9.74839 -0.37509,2.34573 -0.21532,3.41846 0.58459,3.92498 1.552,0.98275 183.225,0.93499 185.81267,-0.0488 z m -45.44874,-32.78739 c 0.50325,-0.51715 -0.595,-2.48772 -3.18297,-5.71116 -3.05291,-3.80254 -4.66176,-5.11287 -7.07583,-5.76291 -2.05345,-0.55294 -14.95571,-0.76051 -37.6393,-0.60554 -34.00841,0.23235 -34.55535,0.26132 -37.27836,1.97494 -2.82045,1.77494 -7.10628,6.62506 -7.10628,8.04191 0,1.21458 1.64876,1.97387 5.5271,2.54535 5.83039,0.85911 85.88332,0.41381 86.75564,-0.48259 z m -16.0429,-28.99503 c 0.31279,-0.31345 -0.4576,-2.623 -1.71197,-5.13232 -3.76974,-7.54118 -3.67482,-7.5192 -30.55356,-7.07517 -25.29057,0.4178 -24.40981,0.22228 -27.40093,6.08271 -3.12564,6.12401 -3.63617,5.85001 11.85174,6.36086 18.55316,0.61195 47.10918,0.47096 47.81472,-0.23608 z m -16.25707,-31.01357 c 0.98503,-1.99464 1.21663,-10.1005 1.46637,-51.32314 0.27845,-45.9616 -0.0761,-56.93429 -1.89842,-58.75537 -0.80677,-0.80621 -7.47327,-0.3494 -8.39814,0.57547 -0.60076,0.60076 -0.83195,5.33281 -0.71825,14.70119 0.13437,11.07178 -0.071,14.27686 -1.03433,16.13967 -1.50168,2.90393 -2.64128,3.32652 -5.32251,1.97366 -2.42018,-1.22113 -2.6324,-2.42323 -3.45508,-19.57058 -0.62119,-12.94773 -0.95808,-13.88825 -4.97478,-13.88825 -1.84991,0 -3.49655,0.50046 -4.12056,1.25234 -1.47668,1.77929 -2.19723,19.56111 -2.18896,54.01873 0.009,35.52854 0.72563,53.83471 2.17734,55.58392 0.67025,0.8076 2.29762,1.26633 4.49238,1.26633 2.91369,0 3.50807,-0.27242 3.87608,-1.77657 0.23907,-0.97711 0.68998,-14.99698 1.00203,-31.15526 0.54275,-28.10421 0.63587,-29.43044 2.14653,-30.57138 2.0904,-1.57879 3.01816,-1.53444 5.22134,0.24958 1.77776,1.43954 1.86251,2.03465 2.38962,16.77872 0.30056,8.40742 0.57646,22.27408 0.6131,30.81477 0.0726,16.91527 -0.0565,16.47949 4.79852,16.20874 2.20326,-0.12287 2.99321,-0.63021 3.92772,-2.52257 z m -0.58643,-128.18605 c 3.35459,-0.30549 6.49419,-0.95038 6.9769,-1.43309 0.64382,-0.64382 0.19224,-2.42683 -1.69486,-6.69207 -2.06587,-4.66929 -2.69254,-7.36945 -3.18198,-13.71027 -0.33521,-4.34273 -0.62944,-7.9847 -0.65385,-8.09327 -0.0244,-0.10856 -0.72731,-0.19739 -1.56202,-0.19739 -2.43242,0 -7.10861,6.17327 -8.59738,11.34983 -1.48002,5.14612 -3.69638,7.28071 -6.76098,6.51155 -2.48904,-0.62471 -2.82264,-2.20005 -2.9463,-13.91345 -0.0573,-5.42841 -0.33061,-10.93578 -0.60733,-12.23859 -0.47003,-2.21288 -0.76729,-2.38418 -4.51684,-2.60301 -2.89949,-0.16922 -4.29881,0.10929 -5.04076,1.00328 -0.65855,0.7935 -1.27437,5.41035 -1.71636,12.86763 -0.82869,13.98168 -1.58055,17.48083 -4.74406,22.07884 -1.34188,1.95036 -2.11392,3.80954 -1.73674,4.18234 1.33956,1.32399 25.57012,1.90875 36.78256,0.88767 z M 70.611616,355.65244 c 0.831937,-0.83194 1.240779,-2.69469 1.240779,-5.65319 0,-5.11686 0.113592,-4.98715 -14.607355,-16.67944 -4.904457,-3.89543 -8.784409,-7.57301 -8.912768,-8.44791 -0.168542,-1.14878 1.972098,-3.28288 8.279576,-8.25423 4.678789,-3.68767 10.021962,-8.08255 11.873718,-9.76638 3.286487,-2.98846 3.366829,-3.18092 3.366829,-8.06549 0,-4.29188 -0.23845,-5.13158 -1.675636,-5.90074 -2.296536,-1.22907 -5.664402,-0.41125 -9.613254,2.33439 -3.798786,2.64129 -29.829574,26.48471 -30.818975,28.22925 -0.397087,0.70016 -0.241794,1.65617 0.394793,2.43043 1.85419,2.25518 28.57553,26.46561 31.764309,28.77952 3.426199,2.48621 6.827409,2.87436 8.707984,0.99379 z m 104.120424,-0.55399 c 1.88769,-1.23759 2.13539,-1.89842 2.13539,-5.69673 0,-3.29531 -0.32204,-4.4622 -1.38177,-5.00664 -0.75998,-0.39044 -7.37384,-0.94512 -14.69748,-1.23261 -7.32364,-0.2875 -13.9484,-0.86133 -14.7217,-1.27519 -1.88498,-1.00881 -3.09705,-4.69691 -2.27442,-6.92068 1.01649,-2.74783 3.80017,-3.33249 16.34806,-3.43358 6.37725,-0.0514 12.66094,-0.32027 13.96376,-0.59752 2.33193,-0.49627 2.37232,-0.59082 2.59788,-6.08073 l 0.2291,-5.57663 -15.13656,-0.77465 c -15.12722,-0.77417 -15.13772,-0.776 -17.00628,-2.94832 -1.75704,-2.04269 -1.79794,-2.31245 -0.67871,-4.4768 0.65505,-1.26672 1.80912,-2.63207 2.5646,-3.03412 0.75549,-0.40205 7.27078,-0.85672 14.47843,-1.01039 16.02013,-0.34156 15.87092,-0.26383 15.5498,-8.1012 l -0.2295,-5.60118 -45.20384,-0.20386 -45.203843,-0.20387 v 5.77746 c 0,3.4521 0.397249,6.26306 0.986983,6.98396 0.542841,0.66359 3.829496,3.47701 7.303678,6.25205 7.360012,5.8789 14.607352,12.54294 14.607352,13.43169 0,0.34082 -4.95443,4.72658 -11.009837,9.74611 -6.055412,5.01954 -11.336271,9.70973 -11.735241,10.42266 -0.84849,1.51617 -0.287497,8.16123 0.805528,9.54152 1.118703,1.41272 6.127454,1.56949 47.6371,1.49097 34.91608,-0.066 38.10613,-0.1832 40.07152,-1.47172 z m 38.85118,-10.48885 c 3.90845,-0.26625 7.87855,-0.97721 8.82243,-1.57993 3.6373,-2.32256 3.79945,-5.62451 3.56498,-72.59151 -0.13017,-37.17972 -0.51563,-62.6699 -0.95431,-63.10858 -0.45484,-0.45484 -2.3706,0.90047 -5.01581,3.54844 -4.11552,4.11983 -4.2972,4.48148 -4.73091,9.41669 -0.24805,2.82277 -0.66663,17.74596 -0.93015,33.16264 -0.32536,19.03389 -0.7794,28.66388 -1.41467,30.0043 -1.19827,2.52835 -3.75397,2.8938 -5.64262,0.80686 -1.37046,-1.51433 -1.52202,-4.02423 -2.11206,-34.97397 -0.7682,-40.29602 -1.02258,-43.93719 -3.29882,-47.2208 -2.38997,-3.44766 -5.70266,-5.34397 -7.02521,-4.0215 -0.7948,0.79476 -1.00252,15.10513 -1.00252,69.06491 0,37.43434 0.2921,69.77579 0.6491,71.86988 0.9432,5.53246 2.7855,7.05727 7.88946,6.52982 2.25215,-0.23274 7.29265,-0.641 11.20111,-0.90725 z M 83.102183,331.88032 c 5.561067,-3.89469 7.700294,-5.85545 7.700294,-7.05791 0,-1.13713 -10.73305,-9.78364 -12.121925,-9.76538 -1.393808,0.0183 -11.565376,7.75401 -12.129846,9.225 -0.338588,0.88234 0.371246,2.0477 2.203712,3.61792 4.05517,3.4748 8.775994,6.88484 9.531309,6.88484 0.368113,0 2.535513,-1.30701 4.816456,-2.90447 z M 281.88247,316.23975 c 70.83677,-2.29282 85.6554,-3.16441 88.08517,-5.18095 0.70908,-0.58849 1.13814,-2.40993 1.13814,-4.83171 0,-3.07431 0.40527,-4.29241 1.93808,-5.82521 2.48622,-2.48623 3.79241,-2.44126 6.7758,0.23328 1.84005,1.64957 2.55624,3.12007 2.98032,6.1193 l 0.55823,3.94793 5.12539,0.24873 c 10.48193,0.50867 9.90302,0.82737 28.1109,-15.47527 9.07161,-8.12238 18.61723,-16.7853 21.21248,-19.25095 4.71828,-4.48265 4.71852,-4.48312 3.19442,-6.16722 -2.0502,-2.26545 -38.81515,-29.46347 -42.08455,-31.13336 -1.94008,-0.99092 -4.2134,-1.26454 -9.08024,-1.09289 l -6.49224,0.22898 -0.42432,4.34273 c -0.77249,7.906 -5.05478,12.56068 -9.11081,9.90306 -1.92436,-1.26088 -2.55871,-3.51362 -2.89978,-10.29786 l -0.19848,-3.94793 -7.50107,0.23812 c -8.89593,0.28241 -29.72698,1.66362 -73.82636,4.8951 -45.21375,3.31313 -44.59345,3.25203 -45.85836,4.51694 -0.91215,0.91216 -1.12205,4.96321 -1.12205,21.65548 v 20.53342 l 10.06723,-0.51488 c 5.53697,-0.28318 20.54899,-1.19863 33.36004,-2.03434 12.81104,-0.8357 26.24029,-1.51954 29.84278,-1.51965 5.90166,-1.8e-4 6.74182,0.19164 8.48806,1.93789 4.24971,4.2497 1.12374,10.90647 -5.56362,11.84778 -1.73675,0.24446 -9.19806,0.78703 -16.58069,1.20571 -37.53162,2.12844 -54.718,3.21027 -56.97141,3.58614 -2.90735,0.48495 -3.43198,1.50748 -3.43198,6.68906 0,4.94621 0.57614,6.31797 2.65063,6.31106 0.93065,-0.003 17.85888,-0.52892 37.61829,-1.16849 z m -17.59582,-88.27431 c 1.29801,-1.29822 1.40929,-3.55316 1.40929,-28.55605 0,-14.9306 -0.232,-27.37884 -0.51556,-27.66277 -0.94528,-0.94652 -19.94917,-2.58735 -21.39547,-1.84733 -1.31139,0.671 -1.87589,4.26522 -1.40444,8.94211 0.2503,2.4829 1.07214,2.88827 7.22501,3.56368 6.54896,0.7189 8.58939,2.29565 8.58939,6.63751 0,4.58236 -1.43346,5.53681 -8.81259,5.86775 -3.73453,0.16748 -6.83543,0.68401 -7.16445,1.19342 -1.12737,1.74544 -0.65886,8.16056 0.67695,9.26918 0.70467,0.58483 3.73086,1.20174 6.72486,1.37092 4.68239,0.26457 5.66259,0.58595 7.00943,2.29818 0.9388,1.19348 1.5658,3.19474 1.5658,4.99768 0,4.25081 -2.02188,5.4654 -9.09802,5.4654 -3.29367,0 -5.97735,0.38906 -6.5358,0.9475 -1.03468,1.03469 -1.30988,7.89853 -0.35531,8.86214 0.3257,0.3288 5.11006,0.47684 10.6319,0.329 8.34897,-0.22354 10.27705,-0.50618 11.44901,-1.67832 z m 23.55865,-3.27964 c 1.10348,-1.68414 1.22953,-5.07545 1.00518,-27.04335 l -0.25652,-25.11774 -2.52467,-5.32971 c -1.38857,-2.93134 -2.74098,-5.32971 -3.00535,-5.32971 -0.26437,0 -1.26016,1.68774 -2.21285,3.75053 -1.65984,3.59393 -1.74304,4.89802 -1.99235,31.22952 -0.19472,20.56458 -0.0214,27.76672 0.68886,28.62252 0.52817,0.6364 2.29878,1.14354 3.99252,1.14354 2.35469,0 3.32901,-0.4358 4.30518,-1.9256 z m 20.14544,0.31865 c 1.1101,-0.59411 1.52727,-1.66045 1.52727,-3.90391 0,-5.86033 6.17982,-9.79939 10.22937,-6.52026 1.53499,1.24296 1.8546,2.18611 1.74276,5.14286 -0.11429,3.02165 0.13057,3.70566 1.47983,4.13391 2.0225,0.64191 7.59171,-0.24801 10.33541,-1.65154 3.26959,-1.67253 14.86854,-12.95006 15.36869,-14.9428 0.24848,-0.99004 -0.0815,-2.81545 -0.73334,-4.05648 -1.38248,-2.63216 -23.75653,-24.90096 -26.39259,-26.26844 -0.98321,-0.51005 -5.38783,-1.14669 -9.78807,-1.41476 -7.20442,-0.43892 -8.10675,-0.34199 -9.06917,0.97421 -1.34307,1.83676 -1.57183,45.33005 -0.25139,47.79731 0.89968,1.68105 3.18947,1.97388 5.55123,0.7099 z m -82.31714,-47.6899 c 0.33309,-5.26219 -0.33614,-7.47644 -2.50942,-8.30271 -1.65004,-0.62735 -17.58691,-2.42842 -73.23941,-8.27697 -18.95626,-1.99212 -24.51702,-3.28028 -25.98268,-6.01891 -2.49341,-4.65897 0.92084,-9.432 6.74692,-9.432 4.50947,0 31.80915,2.54637 88.12727,8.22006 6.28569,0.63324 7.00553,0.1389 7.00553,-4.81091 0,-5.94681 -0.80747,-7.08812 -5.72205,-8.08782 -4.55803,-0.92716 -22.95345,-3.07168 -47.96985,-5.59227 -34.56424,-3.48261 -45.35864,-5.09872 -47.84652,-7.16347 -1.57959,-1.31094 -1.38319,-6.52781 0.32517,-8.63754 1.78914,-2.20949 2.2816,-2.20281 28.8363,0.39143 11.21972,1.09611 21.04812,1.99292 21.8409,1.99292 1.20915,0 1.49064,-0.79519 1.74696,-4.93492 0.49881,-8.05645 0.46967,-8.08614 -9.38418,-9.56118 -10.0218,-1.50018 -65.25219,-7.612328 -68.786308,-7.612328 -3.659609,0 -4.90211,1.767268 -4.897002,6.965288 0.008,8.12709 0.943485,9.88189 10.46039,19.62126 l 8.7351,8.93927 -1.49862,1.77936 c -0.82423,0.97865 -4.92421,5.35558 -9.11105,9.72651 -6.407342,6.68904 -7.701254,8.47269 -8.173332,11.26691 -0.61399,3.63421 0.130495,10.94215 1.180843,11.5913 0.99724,0.61633 39.941009,4.76982 66.701519,7.11394 13.02818,1.14123 29.9056,2.72849 37.50537,3.52725 7.59977,0.79876 16.48262,1.39354 19.73967,1.32172 l 5.9219,-0.13058 z M 81.169519,168.02406 c 0.985823,-0.98582 1.341705,-11.31904 0.468233,-13.59527 -0.320636,-0.83556 -1.471972,-1.24896 -3.478434,-1.24896 -2.271176,0 -3.802058,-0.6708 -6.306923,-2.76355 -3.778129,-3.15654 -6.417205,-3.51126 -8.031786,-1.07958 -1.738764,2.61872 -3.600094,1.49245 -13.83983,-8.3743 l -9.317061,-8.9777 6.316694,-6.4368 c 3.474182,-3.54024 8.050027,-7.9031 10.168545,-9.69525 l 3.85185,-3.25844 2.344033,2.9219 c 1.289218,1.60704 2.688591,2.9219 3.109717,2.9219 0.421126,0 2.029114,-0.96366 3.573307,-2.14147 2.218139,-1.69186 3.560667,-2.10871 6.394257,-1.98539 5.136293,0.22355 5.694902,-0.54289 5.694902,-7.81361 0,-8.549105 -0.412512,-8.894075 -12.146816,-10.15807 L 60.77046,95.348492 57.82337,97.30084 c -4.768143,3.15873 -34.135767,32.21216 -34.135767,33.77056 0,1.54314 29.345278,30.59699 34.055954,33.71775 4.558252,3.01977 21.325669,5.33521 23.425962,3.23491 z m 12.646179,-29.86951 c 3.655392,-2.22862 3.14727,-4.41539 -1.724615,-7.42217 -3.643256,-2.24851 -4.367962,-2.38856 -13.896024,-2.68543 -8.851365,-0.27578 -10.491037,-0.11913 -13.724595,1.31123 -6.819992,3.01681 -4.031647,5.44975 9.670137,8.43758 10.813944,2.3581 16.233715,2.45693 19.675097,0.35879 z M 220.31606,114.47408 c 10.62794,-2.18016 26.60746,-5.40628 35.51005,-7.16915 27.96791,-5.53815 53.15063,-10.939403 57.10097,-12.247172 2.75898,-0.913363 3.68077,-1.58005 3.35575,-2.427064 -0.24647,-0.642281 -0.44813,-3.45062 -0.44813,-6.240743 0,-4.295092 -0.2724,-5.30033 -1.77657,-6.555797 -9.06354,-7.565013 -13.31906,-11.418608 -13.98627,-12.665299 -0.66286,-1.23856 0.35609,-2.774012 6.31648,-9.51832 3.90876,-4.422843 7.58407,-8.988279 8.16735,-10.145415 0.58328,-1.157134 1.26665,-4.679908 1.51861,-7.828385 0.42659,-5.330574 0.35068,-5.724504 -1.10306,-5.724504 -2.11044,0 -118.25735,29.101998 -120.11523,30.096308 -1.28104,0.685589 -1.44034,1.616958 -1.24107,7.256152 l 0.22861,6.469605 3.33689,-0.147619 c 1.83528,-0.08119 10.70009,-1.967342 19.69956,-4.191449 8.99948,-2.224105 17.13521,-3.849939 18.07941,-3.612961 2.31699,0.581529 3.92733,4.485955 2.75423,6.677915 -1.07772,2.013736 -2.59949,2.893912 -11.10224,6.421462 -6.38664,2.64964 -6.72384,2.912911 -6.96687,5.439352 -0.22038,2.291049 -0.0583,2.579304 1.18262,2.103128 0.7909,-0.303502 3.13966,-0.916758 5.21948,-1.362795 4.31035,-0.924409 7.04538,0.253646 8.62187,3.713671 1.72536,3.786739 -2.69816,6.066569 -18.45729,9.51266 -6.72877,1.47141 -7.87822,1.28815 -9.73966,-1.55275 -1.16833,-1.783107 -1.1724,-2.167731 -0.046,-4.345948 1.63212,-3.156183 1.60128,-3.257724 -0.98968,-3.257724 -3.70876,0 -10.32693,2.321211 -11.18396,3.922588 -0.88083,1.64583 -1.12444,19.970124 -0.27676,20.817794 1.20587,1.20588 8.07493,0.30946 26.34091,-3.43754 z m 122.14578,-24.371216 8.07184,-1.463215 6.14072,-5.573464 c 11.67968,-10.600764 26.27518,-26.136261 26.27518,-27.967398 0,-1.256174 -25.95537,-27.326241 -28.58331,-28.70962 -1.17269,-0.617315 -3.30457,-1.121494 -4.73752,-1.120399 -3.58244,0.0027 -17.35678,3.76521 -18.70961,5.110545 -0.66683,0.663138 -1.25546,3.485577 -1.4904,7.146453 l -0.38829,6.050462 5.07077,-0.543034 c 4.39764,-0.470948 5.46112,-0.312735 8.01115,1.191823 3.57084,2.106849 4.8879,1.706949 6.41494,-1.94777 0.64298,-1.53885 1.47449,-2.797909 1.84782,-2.797909 0.87596,0 14.19793,11.987868 15.69126,14.119893 1.06227,1.51662 0.72055,2.087823 -5.19876,8.689713 -3.48468,3.886512 -7.27589,7.805882 -8.42492,8.709712 -2.45171,1.928511 -4.89691,2.131129 -5.53858,0.458946 -0.74705,-1.94676 -2.38838,-1.373744 -6.48385,2.263623 -2.47877,2.201495 -4.98532,3.654935 -6.93344,4.020404 -1.67814,0.314822 -3.31302,0.983929 -3.63307,1.486912 -0.72732,1.143045 -0.79452,11.122316 -0.0797,11.837129 0.84375,0.843745 4.05887,0.599573 12.67777,-0.962806 z M 329.89033,65.216377 c 14.05343,-3.930507 19.90092,-7.168589 16.65592,-9.223315 -2.85803,-1.809692 -21.63404,0.350146 -26.19365,3.013102 -1.39026,0.81196 -3.05258,2.411333 -3.69403,3.554162 -1.05871,1.886216 -1.02996,2.228504 0.31168,3.711003 0.81289,0.898223 1.88992,1.633132 2.39343,1.633132 0.5035,0 5.24049,-1.209638 10.52665,-2.688084 z M 199.73476,45.728851 c 2.43779,-0.522814 4.29955,-1.425885 4.77638,-2.316852 0.42978,-0.803046 0.78142,-4.140107 0.78142,-7.415691 0,-5.449625 0.16442,-6.063339 1.93531,-7.223668 4.14038,-2.712884 7.5438,0.596149 8.13049,7.905007 0.22827,2.843748 0.63287,5.15477 0.89912,5.135604 1.29157,-0.09297 7.7086,-2.025539 8.57735,-2.583172 0.70165,-0.450379 0.98698,-3.437969 0.98698,-10.334385 0,-12.175869 0.20486,-11.94322 -11.05421,-12.553599 -10.97714,-0.595093 -18.80616,0.263099 -20.23574,2.218175 -0.81184,1.11025 -1.0831,4.6734 -1.0831,14.226896 0,7.010119 0.23687,12.982547 0.52639,13.272061 0.69581,0.695808 1.07651,0.67397 5.75961,-0.330376 z"
     id="path2"
     transform="scale(0.26458333)" /><path
     style="fill:#ffbf00;fill-opacity:1;stroke:#3e1e17;stroke-width:1.19371;stroke-linecap:round;stroke-linejoin:round"
     d="m 345.08841,297.47707 c -1.64701,-0.59679 -3.33721,-2.0398 -4.27362,-3.6486 -1.50511,-2.58586 -1.50854,-2.73659 -0.12098,-5.31313 1.70022,-3.15712 3.35095,-3.80448 7.9446,-3.11562 4.13634,0.62028 6.5859,-0.49178 10.90043,-4.94862 3.672,-3.79311 3.4613,-5.23665 -1.33842,-9.16966 -4.5414,-3.72133 -6.90565,-4.53505 -9.89648,-3.40614 -1.96311,0.74099 -2.91279,0.66312 -5.19705,-0.42617 -2.26402,-1.07964 -2.795,-1.77374 -2.795,-3.65364 0,-4.11293 6.6227,-8.80816 12.33021,-8.74163 2.8318,0.033 7.82749,2.9882 13.17171,7.79168 2.9521,2.65341 5.75106,4.82437 6.21992,4.82437 0.46886,0 3.73853,-2.44364 7.26593,-5.43031 8.00942,-6.78162 11.27602,-8.77554 14.38291,-8.7793 2.86304,-0.003 9.41751,4.4161 21.16744,14.27284 l 7.81803,6.55836 -4.81569,4.52642 c -8.31025,7.81106 -17.02304,15.00313 -20.06656,16.56416 -3.59278,1.84274 -7.00354,1.91314 -10.3353,0.21334 -3.10461,-1.58392 -12.39678,-9.00675 -12.39678,-9.90288 0,-1.84758 -3.69191,-0.16972 -8.08464,3.67422 -2.71895,2.37927 -6.41722,5.23421 -8.21839,6.34432 -3.87735,2.38971 -9.82075,3.15795 -13.66227,1.76599 z m 49.16469,-13.34131 c 0.94856,-0.49779 3.4124,-2.30744 5.4752,-4.02146 5.00025,-4.15481 4.96435,-5.92109 -0.2034,-10.00596 -5.03542,-3.98028 -6.66529,-4.48424 -9.17796,-2.83787 -3.78768,2.48178 -8.18695,6.90254 -8.18695,8.22694 0,1.34815 4.3222,5.87178 7.87416,8.24114 2.32286,1.54948 2.06879,1.52556 4.21895,0.39721 z"
     id="path3"
     transform="scale(0.26458333)" /><path
     style="fill:#ffbf00;fill-opacity:1;stroke:#3e1e17;stroke-width:1.19371;stroke-linecap:round;stroke-linejoin:round"
     d="m 255.23392,272.24771 c -3.43198,-3.70138 -1.65728,-10.08109 3.22302,-11.58617 1.37582,-0.4243 6.76525,-0.99644 11.97653,-1.27143 5.21127,-0.27498 13.20583,-0.82844 17.7657,-1.22991 4.55986,-0.40147 11.94331,-0.78746 16.40767,-0.85776 7.41627,-0.11678 8.2796,0.0249 10.00042,1.64156 4.17206,3.91945 2.80535,9.60672 -2.66241,11.07903 -2.87959,0.7754 -23.45636,2.41446 -45.45932,3.6211 -9.32673,0.51148 -9.50285,0.48962 -11.25161,-1.39642 z"
     id="path4"
     transform="scale(0.26458333)" /><path
     style="fill:#ffbf00;fill-opacity:1;stroke:#3e1e17;stroke-width:1.19371;stroke-linecap:round;stroke-linejoin:round"
     d="m 206.52171,329.08199 c -0.9853,-1.40672 -1.22915,-4.20518 -1.22915,-14.10608 0,-11.2998 0.13931,-12.52832 1.63648,-14.43167 2.08556,-2.65136 5.01316,-2.72181 6.69106,-0.161 1.04862,1.60039 1.2157,4.03619 1.00519,14.65412 -0.24819,12.51811 -0.28606,12.76045 -2.22645,14.24953 -2.6051,1.99919 -4.37659,1.93742 -5.87713,-0.2049 z"
     id="path5"
     transform="scale(0.26458333)" /><path
     style="fill:#ffbf00;fill-opacity:1;stroke:#3e1e17;stroke-width:1.19371;stroke-linecap:round;stroke-linejoin:round"
     d="m 122.99799,317.76224 c -2.29372,-1.24475 -3.77039,-3.38569 -3.77039,-5.46647 0,-2.00885 3.92138,-5.14652 6.43199,-5.14652 5.17494,0 7.44917,6.96825 3.33136,10.20732 -2.44081,1.91994 -3.11812,1.96579 -5.99296,0.40567 z"
     id="path6"
     transform="scale(0.26458333)" /><path
     style="fill:#ffbf00;fill-opacity:1;stroke:#3e1e17;stroke-width:1.19371;stroke-linecap:round;stroke-linejoin:round"
     d="m 121.16568,340.74258 c -1.06594,-1.06594 -1.93808,-2.51453 -1.93808,-3.21909 0,-2.02413 4.36792,-5.89705 6.65075,-5.89705 2.7347,0 5.19305,2.61649 5.19305,5.52711 0,5.14331 -6.13031,7.36444 -9.90572,3.58903 z"
     id="path7"
     transform="scale(0.26458333)" /><path
     style="fill:#ffbf00;fill-opacity:1;stroke:#3e1e17;stroke-width:1.19371;stroke-linecap:round;stroke-linejoin:round"
     d="m 271.42045,89.160059 c -2.14735,-1.250716 -1.88327,-6.689324 0.39479,-8.130707 1.98857,-1.258211 8.94423,-2.860263 12.41846,-2.860263 4.9094,0 6.3408,4.841997 2.40935,8.1501 -3.50874,2.952408 -12.23509,4.580936 -15.2226,2.84087 z"
     id="path8"
     transform="scale(0.26458333)" /><path
     style="fill:#ffbf00;fill-opacity:1;stroke:#3e1e17;stroke-width:1.19371;stroke-linecap:round;stroke-linejoin:round"
     d=""
     id="path9"
     transform="scale(0.26458333)" /><path
     style="fill:#ffbf00;fill-opacity:1;stroke:#3e1e17;stroke-width:1.19371;stroke-linecap:round;stroke-linejoin:round"
     d="m 252.05386,71.412829 c -2.488,-1.742663 -2.33105,-5.309278 0.32559,-7.398993 2.56581,-2.018264 4.38355,-2.075751 6.08784,-0.192533 1.96967,2.176469 1.63436,5.290017 -0.7737,7.184197 -2.49184,1.960085 -3.33583,2.021042 -5.63973,0.407329 z"
     id="path10"
     transform="scale(0.26458333)" /><path
     style="fill:#ffbf00;fill-opacity:1;stroke:#3e1e17;stroke-width:1.19371;stroke-linecap:round;stroke-linejoin:round"
     d="m 271.3708,66.755029 c -3.60529,-3.605287 0.45908,-8.440007 8.2333,-9.793829 7.01729,-1.222008 7.39019,-1.177909 8.56251,1.012592 2.52573,4.71937 -1.87585,8.516381 -11.13372,9.60446 -3.48012,0.40902 -4.59142,0.247447 -5.66209,-0.823223 z"
     id="path11"
     transform="scale(0.26458333)" /><path
     style="fill:#ffbf00;fill-opacity:1;stroke:#3e1e17;stroke-width:1.19371;stroke-linecap:round;stroke-linejoin:round"
     d="m 250.97145,91.255496 c -1.18603,-2.60305 -0.27521,-5.686643 2.14884,-7.274942 1.89733,-1.24318 2.12243,-1.228415 4.13279,0.271088 2.55607,1.906536 2.97778,3.541758 1.70551,6.61329 -0.82477,1.99116 -1.3761,2.306306 -4.03479,2.306306 -2.49359,0 -3.24555,-0.364482 -3.95235,-1.915742 z"
     id="path12"
     transform="scale(0.26458333)" /><path
     style="fill:#ffbf00;fill-opacity:1;stroke:#3e1e17;stroke-width:1.19371;stroke-linecap:round;stroke-linejoin:round"
     d="m 311.45427,197.67619 c -2.43254,-2.62476 -2.4322,-3.80328 0.002,-6.23729 5.07455,-5.07456 12.75786,0.74483 8.67657,6.57169 -1.79533,2.56319 -6.14844,2.39545 -8.67839,-0.3344 z"
     id="path13"
     transform="scale(0.26458333)" /></svg>
