<?xml version="1.0" encoding="UTF-8" standalone="no"?>
<!-- Created with Inkscape (http://www.inkscape.org/) -->

<svg
   width="167.43472mm"
   height="191.55969mm"
   viewBox="0 0 167.43472 191.55969"
   version="1.1"
   id="svg1"
   xml:space="preserve"
   sodipodi:docname="tablon.svg"
   inkscape:version="1.3 (0e150ed6c4, 2023-07-21)"
   xmlns:inkscape="http://www.inkscape.org/namespaces/inkscape"
   xmlns:sodipodi="http://sodipodi.sourceforge.net/DTD/sodipodi-0.dtd"
   xmlns="http://www.w3.org/2000/svg"
   xmlns:svg="http://www.w3.org/2000/svg"><sodipodi:namedview
     id="namedview1"
     pagecolor="#ffffff"
     bordercolor="#000000"
     borderopacity="0.25"
     inkscape:showpageshadow="2"
     inkscape:pageopacity="0.0"
     inkscape:pagecheckerboard="0"
     inkscape:deskcolor="#d1d1d1"
     inkscape:document-units="mm"
     inkscape:zoom="1.1229202"
     inkscape:cx="316.14"
     inkscape:cy="290.75975"
     inkscape:window-width="1920"
     inkscape:window-height="1009"
     inkscape:window-x="-8"
     inkscape:window-y="-8"
     inkscape:window-maximized="1"
     inkscape:current-layer="svg1" /><defs
     id="defs1" /><g
     id="layer1"
     transform="translate(-23.365256,-60.149309)"><path
       style="fill:#000000"
       d="m 24.340054,251.37808 c -0.6892,-0.52336 -1.01665,-1.67753 -0.707,-2.49198 0.52612,-1.3838 0.58644,-1.39317 9.02501,-1.40221 7.85133,-0.008 7.85133,-0.008 7.30882,-1.52977 -0.32722,-0.91762 -0.59608,-2.49258 -0.67749,-3.96875 -0.1196,-2.16869 -0.0844,-2.4474 0.30929,-2.4474 0.53519,0 2.76013,2.0264 4.1658,3.79407 1.01829,1.28053 1.01829,1.28053 1.01847,-5.95312 1.7e-4,-7.23366 1.7e-4,-7.23366 -7.2099,-7.15797 -8.27055,0.0868 -8.98103,-0.0368 -10.04276,-1.74719 -0.60481,-0.97433 -0.60481,-0.97433 -0.60585,-15.94266 -0.001,-14.96833 -0.001,-14.96833 0.64832,-15.91603 0.90074,-1.31456 1.9916,-1.89679 3.84855,-2.05408 1.47273,-0.12475 1.59329,-0.1843 1.66751,-0.82363 0.0758,-0.65262 0.004,-0.69702 -1.3553,-0.8373 -1.90273,-0.19638 -3.42576,-1.00937 -4.18815,-2.23563 -0.62197,-1.00042 -0.62197,-1.00042 -0.57994,-21.67058 0.0461,-22.6538 -0.006,-21.92197 1.59913,-22.53085 0.40705,-0.15442 3.32132,-0.3423 6.47617,-0.41752 4.7856,-0.1141 5.7884,-0.0737 6.05179,0.24364 0.44752,0.53923 0.61255,2.49643 0.28253,3.35066 -0.27878,0.7216 -0.27878,0.7216 -5.11626,0.79375 -4.83748,0.0721 -4.83748,0.0721 -4.91745,1.46121 -0.08,1.38907 -0.08,1.38907 4.23333,1.39297 2.93212,0.003 4.52512,0.11052 4.97477,0.33686 0.87129,0.43858 1.00886,1.56079 0.28061,2.28904 -0.50648,0.50648 -0.85519,0.5452 -4.91082,0.5452 -4.36563,0 -4.36563,0 -4.36563,1.45521 0,1.4552 0,1.4552 6.42938,1.4552 6.88377,0 7.06437,0.0341 7.06437,1.33483 0,1.47724 -0.36478,1.55913 -7.29145,1.63683 -6.33459,0.071 -6.33459,0.071 -6.41523,1.32782 -0.0806,1.25677 -0.0806,1.25677 8.20208,1.26415 8.28273,0.007 8.28273,0.007 5.97904,2.24896 -2.30369,2.24158 -2.30369,2.24158 -8.26823,2.24158 -5.96454,0 -5.96454,0 -5.96454,3.30729 0,3.30729 0,3.30729 4.16719,3.31119 4.72358,0.004 5.44327,0.1945 5.56909,1.47086 0.14832,1.5046 -0.36841,1.67773 -5.25167,1.75958 -4.35232,0.073 -4.35232,0.073 -4.43167,1.59431 -0.0793,1.52135 -0.0793,1.52135 4.29948,1.52135 4.02605,0 4.42146,0.0426 4.908,0.52917 0.66116,0.66116 0.66661,1.09442 0.0238,1.88892 -0.48846,0.6037 -0.65239,0.6276 -4.89479,0.71353 -4.38941,0.0889 -4.38941,0.0889 -4.38941,1.52136 0,1.43244 0,1.43244 6.35,1.43244 6.35,0 6.35,0 6.35,-8.27533 0,-8.27532 0,-8.27532 1.81401,-10.07543 1.81401,-1.80012 1.81401,-1.80012 1.98146,-0.78666 0.0921,0.55741 0.16876,10.56823 0.17037,22.24627 0.003,21.23282 0.003,21.23282 0.63815,21.23282 0.86027,0 3.86267,2.27965 3.86267,2.93284 0,0.27871 -0.14882,0.51333 -0.33072,0.52139 -0.18191,0.008 -4.79558,0.006 -10.25261,-0.004 -5.45703,-0.0102 -10.04746,0.0725 -10.20096,0.18379 -0.15457,0.11202 -0.23262,0.74544 -0.17493,1.41965 0.10416,1.21737 0.10416,1.21737 3.29719,1.38906 1.75617,0.0944 8.98564,0.17169 16.0655,0.17169 14.20992,0 13.87828,-0.0385 13.72205,1.59314 -0.15516,1.62043 0.21992,1.58576 -17.02031,1.57329 -8.58573,-0.006 -15.75924,-0.007 -15.94114,-0.001 -0.34784,0.0104 -0.46501,1.7334 -0.17013,2.50183 0.14571,0.37973 5.13706,0.41852 53.85792,0.41852 53.697316,0 53.697316,0 53.615956,-1.12448 -0.0814,-1.12448 -0.0814,-1.12448 -5.37303,-1.25677 -5.29166,-0.1323 -5.29166,-0.1323 -5.36595,-3.53716 -0.0664,-3.04164 -0.0288,-3.38741 0.35237,-3.24115 0.23466,0.0901 1.13129,0.16372 1.99252,0.16372 1.56586,0 1.56586,0 1.56586,1.45521 0,1.45521 0,1.45521 4.30942,1.45521 4.30943,0 4.30943,0 5.55625,1.26586 1.23661,1.25548 1.24683,1.28042 1.24683,3.04271 0,1.77685 0,1.77685 1.57541,1.77685 1.57541,0 1.57541,0 1.65364,-1.78594 0.0782,-1.78594 0.0782,-1.78594 1.93032,-1.78594 1.85208,0 1.85208,0 1.88131,1.71979 0.0292,1.71979 0.0292,1.71979 16.20573,1.78797 16.1765,0.0682 16.1765,0.0682 16.1765,-1.38906 0,-1.45724 0,-1.45724 -3.9026,-1.46131 -7.52417,-0.008 -12.5921,-0.29105 -13.09688,-0.7319 -0.57528,-0.50243 -0.59794,-1.47256 -0.0472,-2.02326 0.36033,-0.36033 1.5245,-0.41577 8.73125,-0.41577 8.31547,0 8.31547,0 8.31547,-1.5875 0,-1.5875 0,-1.5875 -4.57133,-1.5875 -5.08975,0 -5.74742,-0.17868 -5.74742,-1.5615 0,-1.47422 0.48716,-1.6135 5.64323,-1.6135 4.67552,0 4.67552,0 4.67552,-3.57188 0,-3.57187 0,-3.57187 -4.7436,-3.57187 -3.95958,0 -4.81232,-0.0687 -5.15937,-0.41577 -0.56627,-0.56627 -0.52221,-1.32988 0.11339,-1.96548 0.48894,-0.48894 0.88194,-0.52917 5.16968,-0.52917 4.64051,0 4.64051,0 4.56406,-2.3151 -0.0764,-2.31511 -0.0764,-2.31511 -5.10353,-2.4474 -5.02708,-0.13229 -5.02708,-0.13229 -5.10517,-1.61134 -0.0524,-0.99183 0.0381,-1.5755 0.27473,-1.77185 0.19405,-0.16105 1.12215,-0.32892 2.06246,-0.37304 1.62267,-0.0761 1.71373,-0.11541 1.7899,-0.77193 0.0685,-0.59007 -0.0433,-0.71643 -0.76068,-0.8599 -0.46251,-0.0925 -1.94192,-0.16819 -3.28758,-0.16819 -2.44665,0 -2.44665,0 -2.60215,0.99219 -0.0855,0.5457 -0.16219,5.74479 -0.17036,11.55354 -0.0106,7.50069 -0.10233,10.66673 -0.31668,10.92501 -0.46353,0.55852 -15.90606,0.38275 -16.46423,-0.1874 -0.76973,-0.78624 -0.79483,-1.76926 -0.0639,-2.50023 0.67477,-0.67477 0.67477,-0.67477 6.7752,-0.67477 6.10042,0 6.10042,0 6.03129,-22.22503 -0.038,-12.22376 -0.007,-22.22501 0.0698,-22.225 0.0764,2e-5 1.00188,0.86879 2.05661,1.9306 1.91769,1.93058 1.91769,1.93058 1.92151,10.05417 0.004,8.12359 0.004,8.12359 6.47621,8.12359 6.47238,0 6.47238,0 6.47238,-1.43335 0,-1.43336 0,-1.43336 -4.59021,-1.52136 -4.99607,-0.0958 -5.46395,-0.22793 -5.46395,-1.54321 0,-1.27478 0.38059,-1.36872 5.41098,-1.33555 4.64318,0.0306 4.64318,0.0306 4.64318,-1.69816 0,-1.72879 0,-1.72879 -4.72149,-1.72879 -4.35311,0 -4.7581,-0.0404 -5.19073,-0.5185 -0.52735,-0.58271 -0.40789,-1.559 0.27423,-2.24112 0.34567,-0.34567 1.18923,-0.41538 5.02668,-0.41538 4.61131,0 4.61131,0 4.61131,-3.30729 0,-3.30729 0,-3.30729 -6.1158,-3.30729 -6.1158,0 -6.1158,0 -8.20208,-2.03026 -1.14746,-1.11664 -2.08628,-2.12867 -2.08628,-2.24896 0,-0.12028 3.69093,-0.2187 8.20208,-0.2187 8.20208,0 8.20208,0 8.20208,-1.32291 0,-1.32292 0,-1.32292 -8.29336,-1.32292 -7.69847,0 -8.32478,-0.0347 -8.73125,-0.48385 -0.5219,-0.57669 -0.57416,-1.71951 -0.0967,-2.11572 0.22163,-0.18394 3.25717,-0.31115 8.6651,-0.36313 8.32397,-0.08 8.32397,-0.08 8.40332,-1.60136 0.0794,-1.52136 0.0794,-1.52136 -1.78594,-1.52136 -2.0649,0 -2.92362,-0.49308 -2.92362,-1.67878 0,-1.2465 0.72289,-1.51983 4.45905,-1.686 5.39019,-0.23972 4.80137,-2.52411 4.80137,18.62732 0,17.89618 0,17.89618 -0.65912,19.02088 -0.86957,1.48382 -2.07181,2.19078 -4.08305,2.401 -1.56928,0.16402 -1.63219,0.19878 -1.55548,0.8594 0.0749,0.6448 0.18905,0.69789 1.79973,0.83696 2.04173,0.17628 2.9552,0.70513 3.84731,2.2274 0.65061,1.11019 0.65061,1.11019 0.65061,15.93063 0,14.82044 0,14.82044 -0.60059,15.71946 -1.16709,1.74704 -1.58084,1.82419 -9.78431,1.82465 -7.34218,4.2e-4 -7.34218,4.2e-4 -7.32831,7.21031 0.0132,6.86742 0.0352,7.17848 0.46303,6.54844 0.24702,-0.3638 1.17231,-1.4949 2.05619,-2.51354 1.16491,-1.34253 1.78366,-1.85209 2.24896,-1.85209 0.63028,0 0.64074,0.0375 0.57771,2.07095 -0.0353,1.13903 -0.24367,2.76356 -0.46302,3.61007 -0.21936,0.84651 -0.39883,1.67076 -0.39883,1.83165 0,0.20681 2.20557,0.29254 7.52587,0.29254 7.42317,0 7.53532,0.008 8.21792,0.59531 0.91456,0.78673 0.96919,2.08459 0.12553,2.98262 -0.61572,0.6554 -0.61572,0.6554 -33.5964,0.6554 -32.98068,0 -32.98068,0 -33.55596,-0.61236 -0.83907,-0.89314 -0.78079,-2.36258 0.12185,-3.0726 0.65692,-0.51673 1.03035,-0.54837 6.47289,-0.54837 5.77575,0 5.77575,0 5.25598,-1.21256 -0.91415,-2.13264 -0.51874,-3.23693 1.03672,-2.89529 0.87028,0.19114 3.40044,1.86478 4.72341,3.12443 0.47076,0.44823 0.90749,0.76341 0.9705,0.7004 0.063,-0.063 -0.0619,-0.76925 -0.27758,-1.56942 -0.21568,-0.80017 -0.46137,-2.91337 -0.54597,-4.696 -0.12956,-2.72993 -0.0931,-3.24114 0.23097,-3.24114 0.58417,0 1.08486,0.48242 2.70578,2.60703 1.48433,1.94557 1.48433,1.94557 1.48434,-4.10104 0,-6.04662 0,-6.04662 -37.82594,-5.97868 -37.825946,0.0679 -37.825946,0.0679 -37.901566,6.16983 -0.0682,5.5019 -0.0366,6.04196 0.32125,5.49237 0.8772,-1.34724 3.48836,-4.18951 3.84884,-4.18951 0.52932,0 0.52429,5.3399 -0.007,7.54062 -0.5242,2.17098 -0.52947,2.16097 0.60036,1.14023 2.30665,-2.08391 4.47855,-3.26724 5.51795,-3.00637 1.02554,0.2574 1.01777,1.17788 -0.0309,3.65208 -0.18349,0.43294 0.18453,0.46302 5.66554,0.46302 5.86177,0 5.86177,0 6.5106,0.70009 0.35685,0.38506 0.64882,0.92675 0.64882,1.20377 0,0.71628 -0.69692,1.97112 -1.20248,2.16512 -0.23556,0.0904 -15.21908,0.16435 -33.29671,0.16435 -25.88606,0 -32.96094,-0.0702 -33.30395,-0.33072 z m 27.78978,-10.31875 c -0.071,-6.15157 -0.071,-6.15157 -1.26164,-6.15157 -1.19063,0 -1.19063,0 -1.26165,6.15157 -0.071,6.15156 -0.071,6.15156 1.26165,6.15156 1.33267,0 1.33267,0 1.26164,-6.15156 z m 4.29461,-0.0821 c 0,-6.23368 0,-6.23368 -0.99219,-6.15156 -0.99219,0.0821 -0.99219,0.0821 -1.06321,6.23368 -0.071,6.15156 -0.071,6.15156 0.99219,6.15156 1.06321,0 1.06321,0 1.06321,-6.23368 z m 4.43664,0.0821 c -0.071,-6.15157 -0.071,-6.15157 -1.0632,-6.23368 -0.99219,-0.0821 -0.99219,-0.0821 -0.99219,5.73304 0,3.19834 -0.0723,6.0035 -0.1606,6.23368 -0.13218,0.34446 0.056,0.41852 1.06321,0.41852 1.22381,0 1.22381,0 1.15278,-6.15156 z m 4.03002,-0.0661 c 0,-6.21771 0,-6.21771 -0.92604,-6.21771 -0.92604,0 -0.92604,0 -0.92604,6.21771 0,6.21771 0,6.21771 0.92604,6.21771 0.92604,0 0.92604,0 0.92604,-6.21771 z m 86.254176,0 c 0,-5.95295 -0.0216,-6.21771 -0.50753,-6.21771 -1.36888,0 -1.34456,-0.1154 -1.34456,6.37831 0,6.05711 0,6.05711 0.92604,6.05711 0.92605,0 0.92605,0 0.92605,-6.21771 z m 4.43664,0.0661 c -0.071,-6.15157 -0.071,-6.15157 -1.06321,-6.23368 -0.99218,-0.0821 -0.99218,-0.0821 -1.02595,5.55625 -0.0186,3.1011 -0.0619,5.90625 -0.0962,6.23368 -0.0562,0.53628 0.0526,0.59531 1.09698,0.59531 1.15938,0 1.15938,0 1.08835,-6.15156 z m 4.29461,1.65364 c 0,-4.49792 0,-4.49792 -1.05834,-4.49792 -1.05833,0 -1.05833,0 -1.06194,3.90261 -0.002,2.14643 -0.0754,4.17049 -0.16315,4.49792 -0.14859,0.55443 -0.0757,0.59531 1.06194,0.59531 1.22149,0 1.22149,0 1.22149,-4.49792 z m 5.02708,-1.71979 c 0,-6.21771 0,-6.21771 -1.45521,-6.21771 -1.45521,0 -1.45521,0 -1.45521,6.21771 0,6.21771 0,6.21771 1.45521,6.21771 1.45521,0 1.45521,0 1.45521,-6.21771 z M 43.989024,202.86488 c 0,-10.17444 0,-10.17444 -3.24115,-10.10016 -3.24114,0.0743 -3.24114,0.0743 -3.32405,0.93419 -0.0829,0.8599 -0.0829,0.8599 1.86531,0.8599 1.16251,0 2.07627,0.12804 2.26572,0.3175 0.35236,0.35235 0.42637,2.54109 0.10313,3.0499 -0.14833,0.23349 -1.61487,0.34496 -5.22147,0.39687 -5.0152,0.0722 -5.0152,0.0722 -5.09164,2.38729 -0.0764,2.3151 -0.0764,2.3151 4.31687,2.3151 2.52245,0 4.61125,0.11664 4.90509,0.27389 0.65552,0.35083 0.67592,1.61222 0.0354,2.19184 -0.39179,0.35457 -1.24878,0.44402 -4.82864,0.50403 -4.35232,0.0729 -4.35232,0.0729 -4.35232,1.13128 0,1.05834 0,1.05834 2.91042,1.19063 2.91042,0.13229 2.91042,0.13229 2.99725,0.89213 0.0478,0.41791 -0.0118,0.85719 -0.1323,0.97619 -0.12051,0.119 -1.35021,0.23972 -2.73266,0.26827 -1.38245,0.0286 -2.66237,0.10802 -2.84427,0.1766 -0.34261,0.12915 -0.46676,1.9605 -0.15411,2.27315 0.0971,0.0971 2.95464,0.16745 6.35,0.15623 6.17338,-0.0204 6.17338,-0.0204 6.17338,-10.19483 z m 49.82511,19.47835 c -0.90296,-0.37166 -1.23197,-1.19812 -0.81957,-2.05875 0.34623,-0.72255 0.34623,-0.72255 10.107836,-0.792 8.80232,-0.0626 9.80953,-0.0261 10.24912,0.37174 0.58228,0.52695 0.6284,1.38815 0.11218,2.09454 -0.35791,0.48977 -0.80889,0.51611 -9.72344,0.56798 -5.141456,0.0299 -9.608216,-0.0527 -9.926126,-0.18351 z m 58.538666,-0.56632 c -1.14999,-0.90458 -0.68601,-2.14883 0.80129,-2.14883 1.02558,0 1.59427,0.68798 1.28487,1.55438 -0.35969,1.00726 -1.24181,1.25862 -2.08616,0.59445 z M 76.268194,185.69526 c 0,-27.38437 0,-27.38437 -1.78594,-27.37062 -0.98227,0.008 -6.84609,0.28756 -13.03073,0.62222 -6.18463,0.33467 -11.33355,0.53143 -11.44203,0.43725 -0.26003,-0.22576 -0.38172,-2.05748 -1.00283,-15.09614 -0.28768,-6.03911 -0.63653,-12.82567 -0.77522,-15.08125 -0.1387,-2.25557 -0.57495,-10.68602 -0.96945,-18.73433 -0.71728,-14.633292 -0.71728,-14.633292 -0.0769,-15.273172 0.62215,-0.62166 0.84,-0.65108 7.65184,-1.03356 3.8563,-0.21653 10.88099,-0.57971 15.61042,-0.80706 8.96035,-0.43074 21.12282,-1.07243 25.33597,-1.33671 1.89559,-0.11891 2.4725,-0.0752 2.55113,0.19319 0.0559,0.19077 0.23653,3.20435 0.40143,6.696848 0.16489,3.492504 0.41419,8.374074 0.55399,10.847924 0.13981,2.47385 0.55387,10.62963 0.920126,18.12396 0.93391,19.10925 0.94846,19.37841 1.08301,20.04218 0.12053,0.59462 0.12722,0.59532 5.67188,0.59532 3.05316,0 5.55194,-0.0893 5.55283,-0.19844 0.008,-1.0233 0.97948,-17.05135 1.73536,-28.64115 0.80053,-12.27447 1.04941,-16.91053 1.15589,-21.531432 0.0175,-0.76164 0.0175,-0.76164 2.99411,-0.58231 3.47952,0.20964 12.30181,0.76894 21.10052,1.337688 3.41974,0.22105 10.2063,0.63781 15.08125,0.92612 15.02645,0.888684 13.31927,0.309284 13.09775,4.445254 -0.19162,3.57772 -0.19162,3.57772 0.77756,2.97873 0.53306,-0.32944 1.03571,-0.53247 1.11701,-0.45117 0.0813,0.0813 0.16434,4.5895 0.18452,10.01821 0.0367,9.87037 0.0367,9.87037 3.34399,9.87037 3.3073,0 3.3073,0 3.3902,-0.85989 0.0901,-0.93484 0.0479,-0.95425 -1.88286,-0.86429 -0.55341,0.0258 -1.29755,-0.14402 -1.65365,-0.37734 -0.5373,-0.35205 -0.64744,-0.63922 -0.64744,-1.68812 0,-0.69514 0.14288,-1.40677 0.3175,-1.5814 0.20459,-0.20458 1.26316,-0.31806 2.97657,-0.31908 1.46248,-8.8e-4 3.64132,-0.0781 4.84187,-0.17151 2.18281,-0.16992 2.18281,-0.16992 2.18281,-6.21612 0,-6.04621 0,-6.04621 -4.57964,-6.04621 -5.13626,0 -5.56272,-0.1217 -5.56272,-1.5875 0,-1.46579 0.42646,-1.5875 5.56272,-1.5875 4.57964,0 4.57964,0 4.57964,-1.4552 0,-1.45521 0,-1.45521 -4.72149,-1.45521 -4.23809,0 -4.76632,-0.0495 -5.15937,-0.48386 -0.5783,-0.63901 -0.55649,-1.70804 0.046,-2.253264 0.4118,-0.37268 1.18005,-0.43788 5.15937,-0.43788 4.67552,0 4.67552,0 4.67552,-1.455208 0,-1.45521 0,-1.45521 -4.90046,-1.45521 -4.90046,0 -4.90046,0 -5.19296,-0.64195 -0.40662,-0.89244 -0.1005,-1.85527 0.70682,-2.2231 0.43181,-0.19675 2.27011,-0.30995 5.03343,-0.30995 4.35317,0 4.35317,0 4.35317,-1.32291 0,-1.322922 0,-1.322922 -7.60677,-1.33563 -6.62858,-0.01107 -7.72585,-0.071 -8.53281,-0.465988 -0.81207,-0.397494 -0.91548,-0.558432 -0.84022,-1.307677 0.0858,-0.854397 0.0858,-0.854397 -53.57813,-0.923074 -29.515166,-0.03777 -55.896356,-0.03383 -58.624876,0.0088 -4.96094,0.07744 -4.96094,0.07744 -4.96094,0.973288 0,1.741222 0.0723,1.727392 -9.02856,1.727392 -8.19701,0 -8.19701,0 -8.11704,1.389062 0.08,1.38906 0.08,1.38906 6.61409,1.38906 7.56187,0 7.57281,0.003 6.56004,1.85707 -0.64768,1.18564 -0.64768,1.18564 -2.76988,1.18652 -1.1672,4.9e-4 -3.99742,0.0787 -6.28938,0.17372 -4.16718,0.17283 -4.16718,0.17283 -4.16718,1.45432 0,1.281505 0,1.281505 3.24842,1.281505 2.4292,0 3.3884,0.098 3.80348,0.38878 0.80361,0.562874 0.91913,1.349314 0.31163,2.121614 -0.50818,0.64606 -0.61456,0.66461 -3.81086,0.66461 -3.28809,0 -3.28809,0 -3.28809,1.45521 0,1.4552 0,1.4552 4.03489,1.45911 4.35544,0.004 5.29378,0.22392 5.44437,1.27479 0.0476,0.33219 -0.10397,0.89475 -0.33683,1.25014 -0.42144,0.64321 -0.44395,0.64616 -4.92007,0.64616 -4.4967,0 -4.4967,0 -4.42568,6.15157 0.071,6.15156 0.071,6.15156 5.03071,6.16353 3.1219,0.008 5.06351,0.1158 5.23988,0.29217 0.15425,0.15426 0.24401,0.98132 0.19969,1.84011 -0.0805,1.55992 -0.0805,1.55992 -1.40342,1.62642 -2.76971,0.13925 -3.04271,0.25305 -3.04271,1.2684 0,0.91405 0,0.91405 3.13674,0.91405 3.13674,0 3.13674,0 3.3007,1.75574 0.0902,0.96565 0.10036,1.85862 0.0226,1.98437 -0.0777,0.12576 -2.93225,0.22864 -6.34341,0.22864 -6.20209,0 -6.20209,0 -6.20209,4.7447 0,4.74469 0,4.74469 4.33864,4.82864 3.82425,0.074 4.40458,0.14371 4.89479,0.58798 0.70104,0.63534 0.71235,1.58874 0.027,2.2741 -0.49898,0.49899 -0.88194,0.52917 -6.71448,0.52917 -4.65744,0 -6.25377,-0.0825 -6.46248,-0.33397 -0.44268,-0.53341 -0.72356,-11.46417 -0.33608,-13.07937 0.54147,-2.2571 2.26325,-3.52 4.79902,-3.52 1.30569,0 1.30569,0 1.30569,-0.92604 0,-0.88478 -0.0419,-0.92604 -0.94117,-0.92604 -1.51484,0 -3.15548,-0.52008 -3.94238,-1.24973 -1.48375,-1.37581 -1.47629,-1.29436 -1.46638,-16.01667 0.005,-7.45666 0.007,-14.941669 0.004,-16.633347 -0.005,-3.075781 -0.005,-3.075781 -0.8229,-3.23944 -1.02489,-0.204979 -2.2341,-1.472287 -2.45403,-2.571947 -0.092,-0.459948 -0.16053,-3.470527 -0.15232,-6.690175 0.0161,-6.304442 0.17844,-7.309583 1.31695,-8.153203 0.62363,-0.462097 1.34686,-0.500768 10.36005,-0.553948 9.68962,-0.05717 9.68962,-0.05717 9.78061,-3.761338 0.0826,-3.360952 0.14739,-3.783229 0.69962,-4.557448 0.96289,-1.349969 1.68246,-1.42909 12.20454,-1.341962 11.88898,0.09845 11.17585,-0.270714 11.39621,5.89941 0.13229,3.704166 0.13229,3.704166 1.91823,3.695898 26.38836,-0.122168 24.22859,0.227126 24.32215,-3.933549 0.13372,-5.946414 -0.35617,-5.715474 12.124206,-5.715474 10.28101,0 10.66975,0.05472 11.63488,1.637724 0.4639,0.760881 0.5341,1.33217 0.53496,4.353239 8.7e-4,3.066585 0.0557,3.498606 0.46401,3.656727 0.4987,0.193123 24.4525,-0.107459 24.6724,-0.309599 0.0728,-0.06688 0.14511,-1.632684 0.16078,-3.479555 0.021,-2.476955 0.13658,-3.566951 0.44045,-4.154577 0.80673,-1.560041 0.89453,-1.571667 11.86915,-1.571667 10.00902,0 10.00902,0 10.82606,0.817034 1.03493,1.034932 1.29562,2.181153 1.30349,5.731403 0.006,2.844271 0.006,2.844271 5.761,2.870318 3.16508,0.01433 7.31259,0.0045 9.21668,-0.02183 3.98809,-0.05515 5.07241,0.243498 5.93086,1.633504 0.51404,0.832337 0.53731,1.219583 0.46881,7.800283 -0.0721,6.924466 -0.0721,6.924466 -0.73026,7.624602 -0.362,0.385075 -1.16567,0.835869 -1.78594,1.001764 -1.12775,0.301628 -1.12775,0.301628 -1.12775,16.898283 0,11.05959 -0.0937,16.84514 -0.28081,17.34147 -0.15445,0.40966 -0.64995,1.12756 -1.10113,1.59533 -0.78005,0.80876 -2.03642,1.24947 -4.17431,1.46429 -0.54379,0.0546 -0.66146,0.20766 -0.66146,0.86021 0,0.78674 0.0155,0.79508 1.74943,0.94427 1.97403,0.16984 2.89732,0.72238 3.87161,2.31696 0.58628,0.95954 0.59398,1.09442 0.59531,10.43096 0.001,9.16014 -0.0156,9.47585 -0.53688,9.99709 -0.51949,0.5195 -0.74745,0.53274 -6.54843,0.38044 -3.30561,-0.0868 -6.27466,-0.21134 -6.59788,-0.27678 -1.32933,-0.26913 -1.4689,-2.6642 -0.18923,-3.24726 0.41888,-0.19086 2.29911,-0.30505 5.02269,-0.30505 4.35317,0 4.35317,0 4.35317,-2.77813 0,-2.77812 0,-2.77812 -4.29948,-2.78202 -4.99865,-0.005 -5.58014,-0.16897 -5.70192,-1.61233 -0.1307,-1.54929 0.16914,-1.64117 5.38236,-1.64929 4.61904,-0.007 4.61904,-0.007 4.61904,-3.27034 0,-3.26313 0,-3.26313 -6.41614,-3.19228 -6.41615,0.0709 -6.41615,0.0709 -6.48318,11.44793 -0.0765,12.98578 0.12175,12.03854 -2.51982,12.03854 -1.55968,0 -1.55968,0 -1.48726,-1.38906 0.0398,-0.76399 0.0333,-4.42516 -0.0145,-8.13594 -0.10103,-7.83749 -0.10115,-7.83654 -1.18634,9.22209 -0.35506,5.58147 -0.70143,10.20398 -0.7697,10.27225 -0.0683,0.0683 -3.73677,-0.12257 -8.15222,-0.42409 -10.52929,-0.71902 -25.14848,-1.60775 -26.44686,-1.60775 -1.0281,0 -1.0281,0 -1.0281,25.4 0,25.4 0,25.4 -25.92917,25.4 -25.929166,0 -25.929166,0 -25.929166,-27.38438 z m 3.01521,24.27552 c 0.0772,-0.25466 0.26773,-1.50889 0.42327,-2.78718 0.47129,-3.87297 0.7389,-4.88836 2.04959,-7.77646 1.40616,-3.09847 2.96481,-5.06873 5.08727,-6.43071 0.732,-0.46972 1.33091,-0.89941 1.33091,-0.95486 0,-0.0555 -0.50279,-1.1146 -1.1173,-2.35367 -0.90042,-1.81555 -1.23133,-2.25284 -1.70479,-2.25284 -0.75974,0 -1.41125,-0.94331 -1.41125,-2.04333 0,-0.76669 0.15296,-0.9516 1.31911,-1.59477 0.72551,-0.40014 1.31969,-0.84659 1.3204,-0.99211 7.1e-4,-0.14552 -1.00075,-3.21162 -2.22547,-6.81354 -1.90795,-5.61135 -2.34321,-6.64695 -3.04019,-7.23342 -0.55431,-0.46642 -0.81343,-0.92229 -0.81343,-1.43108 0,-0.62399 0.19713,-0.84206 1.20009,-1.32758 1.03412,-0.50061 1.30732,-0.53653 1.97557,-0.25973 0.8691,0.35999 1.15747,0.9652 0.9168,1.9241 -0.10886,0.43373 0.36374,2.16066 1.4362,5.24802 0.87914,2.53086 1.89867,5.61589 2.26562,6.85563 0.66718,2.25407 0.66718,2.25407 2.05077,2.20798 1.64081,-0.0547 1.62393,-0.0201 1.89258,-3.87407 0.23106,-3.31475 0.74291,-5.96385 1.79682,-9.29957 0.81,-2.56374 0.91402,-2.73677 2.72485,-4.53272 1.46426,-1.45222 2.27825,-2.02557 3.662396,-2.57968 0.97884,-0.39186 2.01997,-0.71247 2.31363,-0.71247 0.95286,0 3.74315,1.60419 5.22141,3.00188 2.46255,2.32835 3.80006,5.65042 4.8238,11.98125 0.62298,3.85252 0.96247,11.56446 0.59542,13.52573 -0.14957,0.7992 -0.15949,1.38906 -0.0233,1.38906 0.57598,0 6.29233,4.03128 7.40794,5.22422 2.07705,2.22105 3.19494,5.04374 4.06091,10.2539 0.21769,1.30969 0.46074,2.77152 0.54011,3.2485 0.0794,0.47699 0.25738,0.79738 0.39554,0.71199 0.33147,-0.20486 0.34147,-47.9266 0.0101,-48.13141 -0.13262,-0.082 -3.31754,-0.3473 -7.0776,-0.58964 -3.76006,-0.24234 -6.94244,-0.53235 -7.07196,-0.64448 -0.20704,-0.17922 0.0521,-4.18484 0.53296,-8.23923 0.14906,-1.25677 0.14906,-1.25677 -4.969,-1.25271 -2.81493,0.002 -5.24318,0.0915 -5.39611,0.19843 -0.16291,0.1139 -0.27247,1.2352 -0.26458,2.70793 0.0135,2.51354 0.0135,2.51354 -11.363616,3.13829 -6.25739,0.34361 -11.43661,0.6809 -11.50937,0.74953 -0.18514,0.17464 -0.32162,50.87857 -0.13892,51.60853 0.17768,0.70991 0.57693,0.77825 0.77288,0.13229 z m 8.59515,-2.39686 c -0.0395,-2.23602 -0.26384,-3.28032 -0.73848,-3.43825 -0.31051,-0.10332 -0.34462,0.27445 -0.20386,2.2575 0.093,1.30987 0.24349,2.57559 0.33449,2.81272 0.33923,0.88404 0.63815,0.0815 0.60785,-1.63197 z m 28.560496,-2.1827 c -0.0934,-1.65302 -0.0648,-1.77928 0.32323,-1.42808 0.62885,0.56909 1.09506,0.47407 0.99775,-0.20338 -0.0527,-0.36689 -0.63272,-0.95951 -1.53975,-1.57319 -2.01301,-1.36195 -2.26861,-1.29542 -1.42431,0.37073 0.4709,0.92927 0.73994,1.95057 0.81897,3.10885 0.1546,2.26599 0.28692,2.67801 0.65145,2.02856 0.15132,-0.26958 0.22901,-1.30615 0.17266,-2.30349 z m -13.81662,1.03381 c -0.78615,-1.12239 -2.864976,-3.13497 -3.238156,-3.13497 -0.57905,0 -0.0871,0.74503 1.539266,2.33119 1.4566,1.42058 2.46513,1.89773 1.69889,0.80378 z m 11.49228,-1.79132 c -0.81552,-1.5238 -4.53119,-3.38055 -5.51862,-2.75769 -0.81859,0.51636 -0.50653,1.00191 0.76039,1.18313 1.38228,0.19773 3.79094,1.17158 4.24203,1.71511 0.45534,0.54865 0.83039,0.44653 0.5162,-0.14055 z M 94.392154,204.2893 c 2.93556,-0.64119 3.9805,-1.51277 2.75833,-2.30072 -1.90208,-1.22629 -4.60845,-4.30784 -6.93186,-7.89279 -0.40082,-0.61847 -0.87591,-1.12269 -1.05575,-1.12049 -0.61745,0.008 -3.7669,2.54675 -4.53014,3.65238 -0.76359,1.10613 -0.76359,1.10613 0,2.22301 1.11885,1.63653 4.3895,5.02235 4.61739,4.77998 0.10773,-0.11458 0.25315,-0.44645 0.32315,-0.73749 0.0962,-0.39994 0.13478,-0.35148 0.15798,0.19844 0.0169,0.40018 0.27003,0.96694 0.56255,1.25946 0.56901,0.56901 1.25797,0.55862 4.09835,-0.0618 z m -5.03554,-2.87796 c -0.097,-0.30569 -0.0455,-0.68669 0.11446,-0.84667 0.21143,-0.21143 0.29087,-0.0596 0.29087,0.5558 0,0.97726 -0.1527,1.08684 -0.40533,0.29087 z m 16.385076,0.50468 c 3.28667,-2.01453 5.52217,-3.69255 6.19322,-4.64878 0.86746,-1.23609 2.44436,-4.37305 2.28059,-4.53682 -0.20547,-0.20547 -1.38921,1.20524 -2.27533,2.71157 -0.83095,1.41256 -2.86724,3.05792 -6.32724,5.11253 -2.1834,1.29654 -2.57619,1.44564 -3.19422,1.21252 -1.0371,-0.39118 -4.845796,-2.69591 -5.924366,-3.58495 -0.99155,-0.81732 -3.08444,-3.76087 -4.08115,-5.73995 -0.3298,-0.65484 -0.62914,-1.22485 -0.66521,-1.26668 -0.1376,-0.15958 -1.45688,0.56989 -1.45688,0.80556 0,0.13623 0.66782,1.2722 1.48403,2.52439 2.15247,3.30218 4.18452,5.19912 7.77639,7.25937 1.673486,0.95989 3.149376,1.75529 3.279746,1.76756 0.13037,0.0123 1.44006,-0.71508 2.91042,-1.61632 z m -8.217626,-7.7372 c 0.14949,-0.38958 -0.32389,-1.11783 -1.86031,-2.86192 -0.77851,-0.88372 -0.87473,-1.16437 -0.87473,-2.55124 0,-1.69719 1.97908,-10.64433 2.93349,-13.26189 0.68844,-1.88809 1.33897,-2.58579 3.578996,-3.83848 1.6896,-0.94488 1.6896,-0.94488 1.6896,-5.19834 0,-4.25346 0,-4.25346 -0.79697,-4.09406 -1.82311,0.36462 -3.469006,1.32648 -4.882736,2.85348 -1.23924,1.33854 -1.54921,1.89833 -2.21547,4.00113 -0.42605,1.34466 -0.9064,3.22206 -1.06744,4.17198 -0.72517,4.27742 -1.62053,11.95653 -1.61874,13.88328 0.002,2.00925 0.0598,2.21738 1.14118,4.10105 1.87316,3.26281 1.79403,3.175 2.86093,3.175 0.59584,0 1.02229,-0.1457 1.1122,-0.37999 z m 12.378926,-0.61785 c 0.38179,-0.5426 0.96575,-1.62032 1.29767,-2.39494 0.60227,-1.40552 0.60256,-1.41284 0.14324,-3.57188 -0.47459,-2.2308 -2.50991,-7.40598 -3.92052,-9.96868 -1.40777,-2.55752 -2.70407,-4.34308 -2.80047,-3.85745 -0.0484,0.24381 0.0259,0.5864 0.16517,0.76131 1.25711,1.57913 4.55352,9.09318 5.20907,11.87393 0.66367,2.81513 0.55653,3.5799 -0.78833,5.6275 -1.33961,2.03958 -1.45549,2.53056 -0.59532,2.5224 0.38306,-0.004 0.84282,-0.3574 1.28949,-0.99219 z m -6.30603,-5.11475 c 1.58606,-0.79212 4.1516,-2.45015 4.15433,-2.68481 0.004,-0.37501 -0.54309,-0.19618 -2.66398,0.87019 -2.12539,1.06862 -2.12539,1.06862 -3.63215,0.17405 -2.596206,-1.5414 -4.127066,-1.93085 -3.200306,-0.81418 0.34208,0.41218 3.903996,3.01109 4.126826,3.01109 0.0557,0 0.60261,-0.25035 1.21528,-0.55634 z m -14.761056,-3.76435 c 1.38138,-0.4216 2.14638,-0.79436 2.20221,-1.07308 0.1076,-0.53716 0.0192,-0.5342 -2.07076,0.0693 -2.17311,0.62757 -3.72541,1.37047 -3.52869,1.68877 0.17028,0.27552 0.40486,0.22822 3.39724,-0.68504 z m -5.56674,-17.46705 c 0.35584,-0.2602 0.40092,-0.41001 0.16689,-0.55465 -0.36313,-0.22443 -1.8762,0.32287 -1.8762,0.67865 0,0.35917 1.16402,0.27472 1.70931,-0.124 z m 78.569096,-6.85341 c 0.27459,-2.99204 0.9447,-13.37243 1.60981,-24.93698 0.35988,-6.25739 0.77273,-12.80583 0.91743,-14.55208 0.41595,-5.0195 1.12103,-17.36465 0.99876,-17.48692 -0.0996,-0.0996 -12.15723,-0.89528 -38.12238,-2.51577 -4.95893,-0.30949 -9.05136,-0.45774 -9.17164,-0.33225 -0.11946,0.12464 -0.5277,5.1677 -0.90722,11.20681 -1.80514,28.72485 -2.80674,45.71129 -2.738,46.43438 0.12252,1.28868 0.56715,0.91113 0.93479,-0.79375 0.52872,-2.45181 1.88805,-7.25874 2.47653,-8.75758 0.52974,-1.34925 0.52974,-1.34925 -0.0559,-2.34177 -0.9693,-1.64283 -0.54952,-3.55296 1.25108,-5.69285 0.63918,-0.75962 0.82957,-0.83804 1.6976,-0.69924 0.83121,0.13292 1.15135,0.0238 2.137,-0.72821 0.63763,-0.48651 1.84501,-1.27129 2.68308,-1.74396 1.43938,-0.81182 1.62286,-0.84945 3.31357,-0.67966 1.58709,0.15938 1.84413,0.11972 2.26935,-0.35014 0.46414,-0.51286 0.46141,-0.55442 -0.085,-1.29347 -0.45522,-0.61571 -0.51398,-0.89655 -0.30347,-1.45023 0.14358,-0.37766 0.20768,-1.0849 0.14244,-1.57165 -0.31819,-2.37395 -0.67524,-5.89125 -0.82272,-8.10461 -0.15228,-2.28551 -0.124,-2.49412 0.4049,-2.98687 0.31274,-0.29136 0.56862,-0.71886 0.56862,-0.94999 0,-0.23114 0.37562,-1.18324 0.83471,-2.11579 1.10744,-2.24952 3.27148,-4.23626 6.18906,-5.68198 2.25595,-1.11786 2.25595,-1.11786 3.37078,-0.57235 1.61188,0.78874 4.13394,2.82102 5.28624,4.25966 0.67661,0.84474 1.21496,1.96585 1.67732,3.49298 0.3745,1.23693 0.80561,2.5097 0.95802,2.82838 0.34933,0.73042 0.21074,1.78349 -0.9647,7.33003 -0.52099,2.45842 -0.94726,4.92095 -0.94726,5.47227 0,0.77004 -0.12267,1.04134 -0.52917,1.17036 -1.2254,0.38893 0.14408,1.90568 1.48858,1.64866 1.44212,-0.27568 3.95621,1.01175 6.25078,3.20095 0.78229,0.74637 1.21762,0.95255 2.05558,0.97357 1.23365,0.0309 1.53851,0.2954 2.50612,2.1739 1.0624,2.06252 1.1349,3.21656 0.30822,4.90623 -0.68794,1.4061 -0.68794,1.4061 -0.16306,3.11494 0.28868,0.93986 0.70997,3.25665 0.93619,5.14842 0.52637,4.40175 0.57677,4.63021 1.02137,4.63021 0.26224,0 0.4152,-0.48407 0.52254,-1.65365 z m -14.03624,-3.04271 c 0.0761,-0.40018 0.21581,-2.34586 0.31047,-4.32374 0.17209,-3.59614 0.17209,-3.59614 2.2639,-4.4514 1.15049,-0.4704 2.0918,-0.9655 2.0918,-1.10022 0,-0.37981 -0.66207,-0.293 -2.17997,0.28584 -1.79018,0.68267 -7.35867,1.76624 -10.2724,1.9989 -2.69483,0.21518 -4.91095,-0.2046 -8.71429,-1.65067 -4.17719,-1.58821 -7.62132,-3.58615 -9.75798,-5.6606 -1.30605,-1.26802 -1.64348,-1.22774 -2.49581,0.29794 -0.89235,1.5973 -0.26456,3.48174 2.58549,7.76084 2.37585,3.56714 5.57533,6.98937 6.07101,6.4937 0.0706,-0.0706 0.24897,-1.01794 0.39649,-2.10532 0.52453,-3.86629 0.88634,-5.94859 1.06846,-6.14935 0.10157,-0.11196 0.70428,-0.0202 1.33937,0.20384 4.3539,1.53614 7.90619,1.91933 12.4778,1.34597 1.84276,-0.23111 3.5394,-0.42021 3.77031,-0.42021 0.36536,0 0.41986,0.53232 0.41986,4.10105 0,2.32165 0.10567,4.10104 0.24356,4.10104 0.13396,0 0.30582,-0.32743 0.38193,-0.72761 z m -21.11533,-3.19271 c -0.099,-0.3118 -0.0678,-0.76731 0.0693,-1.01223 0.22293,-0.39837 0.26818,-0.38554 0.42914,0.12161 0.099,0.31181 0.0678,0.76732 -0.0693,1.01224 -0.22294,0.39836 -0.26818,0.38554 -0.42915,-0.12162 z m -74.104836,-0.44531 c 0.23993,-1.16416 0.53494,-3.02678 0.65557,-4.13915 0.37389,-3.44752 2.66641,-6.84106 4.62152,-6.84106 0.85452,0 2.01622,-0.8708 1.6501,-1.23692 -0.21823,-0.21823 0.59296,-1.14433 1.00236,-1.14433 0.16543,0 0.81828,-0.52729 1.45079,-1.17177 1.11126,-1.1323 1.14467,-1.21475 0.9915,-2.4474 -0.15119,-1.21675 0.0971,-3.81913 0.47769,-5.00733 0.16992,-0.53045 0.007,-0.58364 -3.45057,-1.12724 -2.77597,-0.43643 -4.04016,-0.77199 -5.37858,-1.42766 -3.22483,-1.5798 -2.86003,-1.84888 7.64304,-5.63761 1.38245,-0.49869 2.64255,-1.08125 2.80022,-1.29459 0.27717,-0.37501 0.94918,-3.29635 1.76744,-7.68327 0.47217,-2.53146 2.24255,-7.34305 3.45162,-9.38096 0.80495,-1.35675 0.96504,-1.48393 2.13758,-1.69815 1.26746,-0.23156 1.26746,-0.23156 2.59001,1.05815 0.72741,0.70934 1.65099,1.76596 2.05241,2.34804 0.96953,1.40588 2.78113,5.89207 3.31214,8.20209 0.64107,2.78877 1.72854,6.15083 2.08114,6.43409 0.39716,0.31905 4.24692,1.48783 6.66454,2.02332 2.91873,0.6465 6.05339,1.52668 6.4087,1.79951 1.21826,0.93546 -2.55345,2.82022 -8.65955,4.32726 -2.07975,0.5133 -2.2629,0.66004 -1.8233,1.46085 0.3379,0.61553 0.47933,1.57856 0.58081,3.95482 0.0565,1.32198 0.44508,1.97678 1.33253,2.24519 1.62599,0.49178 3.04571,1.27085 3.28901,1.80485 0.17977,0.39455 0.81925,0.79791 1.87565,1.1831 1.10317,0.40223 1.85994,0.89056 2.4274,1.56635 1.1,1.30999 3.59886,6.47041 4.00578,8.27235 0.17895,0.79244 0.55043,1.79799 0.82551,2.23456 0.47314,0.75088 0.4922,0.75764 0.35312,0.12503 -0.0809,-0.36779 -0.38976,-5.60654 -0.68643,-11.64166 -0.29667,-6.03513 -0.77874,-15.37827 -1.07127,-20.76254 -0.29252,-5.38427 -0.70091,-13.15135 -0.90752,-17.26017 -0.20661,-4.108822 -0.45033,-7.591402 -0.54159,-7.739062 -0.0913,-0.14766 -1.10147,-0.26848 -2.24491,-0.26848 -1.91521,0 -2.1172,-0.0524 -2.56407,-0.66473 -0.45848,-0.62826 -0.57793,-0.65501 -2.17702,-0.48747 -1.32863,0.13919 -1.87545,0.33839 -2.54665,0.92771 -0.90428,0.79397 -1.83382,0.86093 -34.52288,2.48669 -1.67349,0.0832 -3.32171,0.20866 -3.66272,0.27872 -0.6954,0.14288 -0.69256,-0.75552 -0.0309,9.762212 0.13733,2.18281 0.60579,11.29109 1.04104,20.24062 0.70016,14.39679 0.94081,18.75121 1.45987,26.41513 0.21833,3.22375 0.64197,3.19514 1.31883,-0.0891 z m 23.79349,-0.77472 c 0.46621,-0.79553 0.69353,-1.58109 0.70818,-2.44739 0.0216,-1.2758 0.0216,-1.2758 0.41275,-0.37887 0.52373,1.20091 0.93853,0.76169 1.09812,-1.16277 0.11734,-1.41499 0.14224,-1.45706 0.61113,-1.03273 0.46206,0.41816 0.50364,0.40333 0.76011,-0.27124 0.14922,-0.39248 0.27817,-1.21187 0.28656,-1.82086 0.008,-0.60899 0.11375,-1.5835 0.23415,-2.16558 0.21891,-1.05834 0.21891,-1.05834 0.24934,0.0505 0.0554,2.02027 1.35334,1.70197 1.35334,-0.3319 0,-1.1665 0.35217,-1.75213 0.62543,-1.04003 0.27032,0.70443 0.69757,0.4187 0.69462,-0.46454 -0.002,-0.47294 -0.18016,-1.44437 -0.39687,-2.15872 -0.53908,-1.77704 -0.52172,-2.17477 0.069,-1.58037 0.44172,0.44447 0.46689,0.43303 0.54704,-0.24878 0.13096,-1.11393 -0.64508,-3.40231 -1.59188,-4.69412 -0.47314,-0.64556 -0.8781,-1.26304 -0.8999,-1.37218 -0.0218,-0.10914 -0.0545,-0.31387 -0.0727,-0.45496 -0.0182,-0.14109 -0.4328,-0.2415 -0.92135,-0.22313 -0.48856,0.0184 -1.15921,-0.15638 -1.49035,-0.38831 -0.4416,-0.30931 -0.94526,-0.38105 -1.88984,-0.26918 -1.07354,0.12714 -1.28778,0.0812 -1.28778,-0.27617 0,-0.23988 -0.29992,-0.50396 -0.68097,-0.5996 -0.64624,-0.1622 -1.15642,1.2e-4 -2.36174,0.75141 -0.29104,0.1814 -1.0556,0.65852 -1.69901,1.06025 -0.64341,0.40173 -1.26959,0.73042 -1.39151,0.73042 -0.12191,0 -0.58796,-0.59531 -1.03566,-1.32292 -0.4477,-0.7276 -0.984,-1.32291 -1.19177,-1.32291 -0.20778,0 -0.60887,-0.14432 -0.89132,-0.32072 -0.28245,-0.17639 -0.59964,-0.23461 -0.70486,-0.12938 -0.38614,0.38613 -1.33216,4.81355 -1.06636,4.99059 0.14439,0.0962 0.27267,1.37568 0.28505,2.84334 0.0124,1.46766 0.11965,2.66889 0.23835,2.66941 0.11871,5.1e-4 0.43117,-0.11432 0.69437,-0.25518 0.41199,-0.22049 0.50029,-0.12196 0.63508,0.7086 0.0861,0.53059 0.0841,1.65787 -0.004,2.50506 -0.17422,1.6668 3e-4,1.86035 0.91176,1.01119 0.76724,-0.71478 0.8547,-0.67593 0.8547,0.37965 0,0.49985 0.12104,1.22717 0.26897,1.61626 0.21236,0.55855 0.34511,0.64426 0.63072,0.40721 0.29022,-0.24086 0.39421,-0.12882 0.52587,0.56656 0.0903,0.47673 0.45242,1.22397 0.8048,1.66053 0.64068,0.79375 0.64068,0.79375 0.90818,0.13229 0.14713,-0.3638 0.27505,-0.50119 0.28428,-0.3053 0.0431,0.91581 0.88356,3.21572 1.17509,3.21572 0.17987,0 0.45641,-0.32742 0.61454,-0.7276 0.28751,-0.72761 0.28751,-0.72761 0.31566,0.008 0.05,1.30851 1.26255,3.62953 1.89609,3.62953 0.10914,0 0.50741,-0.52722 0.88504,-1.1716 z m -3.94915,-20.43326 c 1.36277,-1.18259 2.01817,-1.27798 3.52712,-0.51334 2.47501,1.25419 2.30825,1.43487 -1.28216,1.3892 -3.20725,-0.0408 -3.20725,-0.0408 -2.24496,-0.87586 z m -11.20618,20.01736 c 2.97656,0 4.72943,-0.0981 4.72943,-0.26459 0,-0.16872 -2.20486,-0.26458 -6.08542,-0.26458 -3.5773,0 -6.08542,0.10146 -6.08542,0.24618 0,0.32289 0.99466,0.52085 1.95131,0.38835 0.41837,-0.058 2.88892,-0.10536 5.4901,-0.10536 z m 4.20996,-3.34204 c 0.89804,-0.35933 1.04863,-0.53446 1.04863,-1.21952 0,-1.245 -0.92021,-2.48725 -2.19335,-2.96093 -1.55114,-0.57711 -4.7598,-1.20876 -6.1403,-1.20876 -0.96159,0 -1.23995,0.122 -1.66006,0.7276 -0.85364,1.23056 -2.29621,4.26859 -2.11359,4.45121 0.095,0.095 1.28039,0.33125 2.63426,0.52507 2.93781,0.42058 6.96255,0.27025 8.42441,-0.31467 z m -5.30137,-2.87567 c 0,-0.0728 0.0595,-0.13229 0.1323,-0.13229 0.0728,0 0.13229,0.0595 0.13229,0.13229 0,0.0728 -0.0595,0.13229 -0.13229,0.13229 -0.0728,0 -0.1323,-0.0595 -0.1323,-0.13229 z m -0.79375,-0.26458 c 0,-0.0728 0.0595,-0.1323 0.1323,-0.1323 0.0728,0 0.13229,0.0595 0.13229,0.1323 0,0.0728 -0.0595,0.13229 -0.13229,0.13229 -0.0728,0 -0.1323,-0.0595 -0.1323,-0.13229 z m -1.4552,-0.39688 c -0.34892,-0.14993 -0.39398,-0.23234 -0.1323,-0.24194 0.21829,-0.008 0.57547,0.10088 0.79375,0.24194 0.48365,0.31256 0.0659,0.31256 -0.66145,0 z m 54.552616,3.65456 c -0.0845,-0.21107 -0.14716,-0.14837 -0.15986,0.15985 -0.0115,0.27892 0.0511,0.43518 0.13897,0.34727 0.0879,-0.0879 0.0973,-0.31613 0.0209,-0.50712 z m 31.63499,-1.15098 c 3.1075,-0.6296 6.7204,-1.76683 8.44286,-2.65755 0.57942,-0.29963 0.73102,-0.50183 0.52827,-0.70458 -0.29301,-0.29301 -2.16141,-0.0419 -8.77228,1.17889 -1.67349,0.30903 -3.99521,0.57174 -5.15938,0.58379 -2.35513,0.0244 -3.61543,-0.32008 -11.17528,-3.05442 -2.36287,-0.85463 -4.47623,-1.55388 -4.69636,-1.55388 -2.31996,0 5.94782,4.57982 10.97685,6.08047 1.09141,0.32567 2.28203,0.6957 2.64584,0.82229 0.91466,0.31827 3.38257,0.0804 7.20948,-0.69501 z m -3.0423,-2.65727 c 0.87386,-0.11265 1.38907,-0.30701 1.38907,-0.52402 0,-0.49582 -0.67518,-0.64225 -2.77902,-0.6027 -2.281,0.0429 -3.05357,-0.31318 -7.28703,-3.35836 -4.08782,-2.94042 -4.64573,-3.19844 -5.8243,-2.69362 -1.28416,0.55004 -3.21251,2.01444 -3.09942,2.35372 0.0522,0.15653 1.28036,0.69762 2.72929,1.20242 1.44894,0.5048 4.6585,1.62333 7.13235,2.4856 3.29789,1.1495 4.74498,1.53419 5.42396,1.4419 0.50932,-0.0692 1.55112,-0.20645 2.3151,-0.30494 z m 5.88698,-1.30152 c 0,-0.0728 -0.0595,-0.13229 -0.13229,-0.13229 -0.0728,0 -0.13229,0.0595 -0.13229,0.13229 0,0.0728 0.0595,0.13229 0.13229,0.13229 0.0728,0 0.13229,-0.0595 0.13229,-0.13229 z m -85.989586,-2.11666 c 0,-0.0728 -0.0595,-0.1323 -0.13229,-0.1323 -0.0728,0 -0.13229,0.0595 -0.13229,0.1323 0,0.0728 0.0595,0.13229 0.13229,0.13229 0.0728,0 0.13229,-0.0595 0.13229,-0.13229 z m 2.73145,-1.12448 c 0.0643,-0.10914 0.0129,-0.47372 -0.11422,-0.81016 -0.22882,-0.60577 -0.2389,-0.60709 -1.03684,-0.13574 -0.736,0.43476 -0.7662,0.50492 -0.34876,0.81016 0.50605,0.37003 1.31857,0.44357 1.49982,0.13574 z m 75.035316,-2.93782 c 0.14436,-0.26974 0.34085,-2.50216 0.43665,-4.96094 0.17417,-4.47051 0.17417,-4.47051 -1.0708,-5.20603 -0.68474,-0.40454 -1.8593,-0.86483 -2.61015,-1.02288 -1.30203,-0.27405 -2.45716,-0.73004 -1.89259,-0.7471 0.14648,-0.004 0.66945,0.10757 1.16215,0.24887 1.51942,0.43577 1.44791,0.006 -0.15954,-0.95927 -0.84344,-0.50637 -1.83769,-1.21033 -2.20946,-1.56437 -1.19495,-1.13795 -1.15619,-1.64533 -0.48642,6.36777 0.17029,2.03729 0.38242,3.84232 0.4714,4.01118 0.17731,0.33647 5.60171,4.29723 5.90717,4.31326 0.10402,0.005 0.30724,-0.21076 0.45159,-0.48049 z m -1.30218,-3.62624 c 0,-0.384 0.11453,-0.60629 0.26459,-0.51355 0.14552,0.0899 0.26458,0.39462 0.26458,0.67708 0,0.28245 -0.11906,0.51355 -0.26458,0.51355 -0.14552,0 -0.26459,-0.30469 -0.26459,-0.67708 z m -1.9513,-2.70899 c -0.0717,-0.11609 -0.0211,-0.38398 0.11263,-0.59532 0.18978,-0.3 0.24396,-0.25372 0.24712,0.21107 0.004,0.612 -0.13026,0.75557 -0.35975,0.38425 z m 5.75807,3.86525 c 0.27884,-1.39418 0.18543,-5.98971 -0.12565,-6.18197 -0.1582,-0.0978 -0.38739,-0.075 -0.50931,0.0505 -0.27249,0.28063 -0.65653,6.25332 -0.43861,6.82122 0.24239,0.63164 0.89288,0.2137 1.07357,-0.68978 z m 1.74948,-2.82804 c 0,-2.58231 -0.0888,-3.48091 -0.36694,-3.71172 -0.3082,-0.25578 -0.39745,0.24398 -0.55753,3.12198 -0.19455,3.49767 -0.12669,3.99693 0.54321,3.99693 0.31222,0 0.38126,-0.61698 0.38126,-3.40719 z m -78.769166,2.34886 c 0.0761,-0.29104 0.0305,-0.52917 -0.10144,-0.52917 -0.13189,0 -0.23981,0.23813 -0.23981,0.52917 0,0.29104 0.0456,0.52916 0.10143,0.52916 0.0558,0 0.16371,-0.23812 0.23982,-0.52916 z m 80.364936,-7.79306 c 2.08558,-0.85371 2.93279,-1.46736 2.02586,-1.46736 -0.56403,0 -4.21212,1.56957 -4.67051,2.00946 -0.6631,0.63634 0.19596,0.46025 2.64465,-0.5421 z m -85.071716,-0.81873 c 2.0972,-0.46396 11.05278,-1.15376 15.1667,-1.1682 2.42334,-0.009 2.72163,-0.0602 2.64492,-0.45854 -0.0493,-0.25575 -1.06818,-0.95545 -2.36764,-1.62587 -2.08329,-1.07482 -2.45619,-1.17933 -4.29834,-1.2047 -2.27899,-0.0314 -2.51797,-0.29751 -1.15771,-1.28924 1.1919,-0.86898 2.89555,-1.56813 3.94573,-1.61924 0.78906,-0.0384 0.89168,-0.13303 0.96537,-0.89021 0.0697,-0.71629 -0.053,-0.9298 -0.79375,-1.38144 -0.56386,-0.34378 -1.34779,-0.53666 -2.19912,-0.54108 -1.32292,-0.007 -1.32292,-0.007 -0.66146,-0.5267 0.3638,-0.28591 1.34607,-0.83995 2.18281,-1.23121 0.83675,-0.39125 1.52135,-0.80647 1.52135,-0.9227 0,-0.28773 -1.45185,-1.01867 -2.02335,-1.01867 -0.29902,0 -0.0673,-0.2904 0.65664,-0.82275 0.93626,-0.68854 1.06514,-0.88739 0.78998,-1.21893 -0.24099,-0.29038 -0.6318,-0.35464 -1.46353,-0.24064 -0.6241,0.0855 -1.13474,0.0814 -1.13474,-0.009 0,-0.0907 0.52361,-0.77773 1.16356,-1.52681 1.08842,-1.274 1.14029,-1.40399 0.80313,-2.0129 -0.19824,-0.35801 -0.36465,-0.86303 -0.36981,-1.12226 -0.005,-0.25923 -0.20673,-0.54706 -0.44794,-0.63962 -1.27377,-0.48879 -3.30516,4.51253 -4.84866,11.93748 -0.59032,2.83972 -1.16946,5.42305 -1.28698,5.74074 -0.17057,0.46109 -1.03677,0.85635 -4.29421,1.9595 -4.67328,1.58264 -5.53575,1.91047 -5.53575,2.10417 0,0.24947 1.1559,0.14657 3.0428,-0.27086 z m 80.145086,-1.77311 c 0.32341,-3.06013 0.74188,-11.87145 0.57188,-12.04145 -0.30927,-0.30927 -3.58352,1.5893 -5.09648,2.95519 -0.79116,0.71425 -1.71905,1.85234 -2.06199,2.5291 -0.80266,1.58396 -1.23054,3.83554 -0.82803,4.35714 0.53117,0.68831 5.83145,3.58908 6.55795,3.58908 0.66132,0 0.71991,-0.095 0.85667,-1.38906 z m -3.6268,-3.24946 c -0.36876,-0.50665 -0.39279,-0.65314 -0.10715,-0.65314 0.46139,0 1.30697,0.90715 1.06817,1.14595 -0.28624,0.28624 -0.45819,0.19807 -0.96102,-0.49281 z m 1.31836,-2.00049 c -0.18981,-0.72585 -0.0226,-0.98084 0.37946,-0.57874 0.18991,0.1899 0.20157,0.44131 0.0343,0.74013 -0.22504,0.40213 -0.27114,0.38415 -0.4138,-0.16139 z m 5.27591,2.3515 c 0.31482,-0.50938 0.38404,-1.7979 0.0966,-1.7979 -0.14429,0 -0.26235,0.17485 -0.26235,0.38857 0,0.23669 -0.15513,0.32904 -0.39688,0.23627 -0.41854,-0.1606 -0.5247,0.32168 -0.23627,1.07331 0.19125,0.4984 0.52666,0.54027 0.79892,0.0998 z m 43.75506,-39.897903 c 0,-1.322917 0,-1.322917 -10.94453,-1.322917 -10.67165,0 -10.96191,-0.01367 -11.64166,-0.54837 -0.78946,-0.620987 -0.89268,-1.334964 -0.28137,-1.946273 0.3649,-0.364896 1.788,-0.415774 11.62968,-0.415774 11.2139,0 11.2139,0 11.37979,-0.884254 0.0912,-0.486341 0.1264,-1.230481 0.0781,-1.653646 -0.0877,-0.769391 -0.0877,-0.769391 -79.3966,-0.835973 -79.308856,-0.06658 -79.308856,-0.06658 -79.349156,1.058333 -0.0222,0.618704 -0.0546,1.303509 -0.072,1.52179 -0.0175,0.218282 0.14951,0.477804 0.37103,0.576717 0.22151,0.09891 3.53597,0.188209 7.36546,0.198437 4.25653,0.01137 7.16161,0.125049 7.47448,0.292489 0.72343,0.387169 0.67856,1.695943 -0.0763,2.224646 -0.49733,0.348344 -1.70133,0.411878 -7.80521,0.411878 -7.21717,0 -7.21717,0 -7.21717,1.322917 0,1.322916 0,1.322916 79.242706,1.322916 79.24271,0 79.24271,0 79.24271,-1.322916 z M 55.050224,80.248206 c -0.67255,-0.67255 -0.77765,-0.943515 -0.64139,-1.653645 0.20927,-1.090674 1.28666,-2.039921 2.3153,-2.039921 1.02637,0 2.34614,1.265106 2.34614,2.248958 0,0.423298 -0.30716,1.00932 -0.7734,1.475561 -1.05154,1.051546 -2.17487,1.040837 -3.24665,-0.03095 z m 50.706986,0.154919 c -1.41531,-1.415309 -0.42096,-3.848485 1.57274,-3.848485 1.35271,0 2.38158,0.97157 2.38158,2.248958 0,1.996388 -2.5329,3.020948 -3.95432,1.599527 z M 155.799,80.238507 c -0.37673,-0.447728 -0.68497,-1.111731 -0.68497,-1.475561 0,-0.96144 1.34451,-2.208306 2.38125,-2.208306 1.03673,0 2.38125,1.246866 2.38125,2.208306 0,0.36383 -0.30824,1.027833 -0.68498,1.475561 -0.54488,0.647552 -0.89182,0.81405 -1.69627,0.81405 -0.80446,0 -1.1514,-0.166498 -1.69628,-0.81405 z m -31.77352,0.09343 c -0.29104,-0.07154 -0.67799,-0.2509 -0.85989,-0.39858 -0.42083,-0.341658 -0.42906,-1.587055 -0.0132,-2.002882 0.23439,-0.234393 2.65339,-0.3175 9.24152,-0.3175 7.75996,0 8.97825,0.05423 9.33979,0.415774 0.55756,0.557566 0.52573,1.519371 -0.0681,2.056761 -0.43022,0.389342 -1.40543,0.43448 -8.7974,0.40719 -4.57245,-0.01688 -8.55166,-0.08922 -8.84271,-0.160763 z M 64.834894,67.357346 c 0.0761,-2.444372 0.0761,-2.444372 -0.8599,-2.444372 -0.93597,0 -0.93597,0 -0.93597,2.361849 0,2.025845 0.0659,2.379457 0.46302,2.485612 1.16294,0.310842 1.25346,0.147623 1.33285,-2.403089 z m -12.64379,-0.06312 c 0,-2.38125 0,-2.38125 -1.4552,-2.38125 -1.45521,0 -1.45521,0 -1.45521,2.38125 0,2.38125 0,2.38125 1.45521,2.38125 1.4552,0 1.4552,0 1.4552,-2.38125 z m 4.23334,0 c 0,-2.38125 0,-2.38125 -1.05834,-2.38125 -1.05833,0 -1.05833,0 -1.05833,2.38125 0,2.38125 0,2.38125 1.05833,2.38125 1.05834,0 1.05834,0 1.05834,-2.38125 z m 4.23333,-0.132292 c 0,-2.513542 0,-2.513542 -0.92604,-2.513542 -0.92604,0 -0.92604,0 -0.92604,2.513542 0,2.513542 0,2.513542 0.92604,2.513542 0.92604,0 0.92604,0 0.92604,-2.513542 z m 42.068746,-0.03409 c 0,-2.547628 0,-2.547628 -1.38426,-2.363999 -0.76135,0.100996 -1.405256,0.205632 -1.430916,0.232524 -0.0525,0.05502 -0.16516,4.172226 -0.12261,4.480665 0.0151,0.109141 0.682216,0.198438 1.482576,0.198438 1.45521,0 1.45521,0 1.45521,-2.547628 z m 4.23334,0.01732 c 0,-2.530305 0,-2.530305 -0.8599,-2.447395 -0.85989,0.08291 -0.85989,0.08291 -0.93597,2.530305 -0.0761,2.447396 -0.0761,2.447396 0.8599,2.447396 0.93597,0 0.93597,0 0.93597,-2.530306 z m 4.23333,0.07084 c 0,-2.459464 0,-2.459464 -0.92604,-2.521829 -0.92604,-0.06237 -0.92604,-0.06237 -0.92604,2.459464 0,2.52183 0,2.52183 0.92604,2.52183 0.92604,0 0.92604,0 0.92604,-2.459465 z m 4.17712,0.01207 c -0.0761,-2.447396 -0.0761,-2.447396 -0.93597,-2.473854 -0.8599,-0.02646 -0.8599,-0.02646 -0.8599,2.447396 0,2.473854 0,2.473854 0.93597,2.473854 0.93597,0 0.93597,0 0.8599,-2.447396 z m 35.82233,0.04291 c 0.0467,-1.322466 0.0588,-2.430077 0.0269,-2.461357 -0.0319,-0.03128 -0.47842,-0.0078 -0.99219,0.05218 -0.93413,0.109054 -0.93413,0.109054 -0.93413,2.461357 0,2.352303 0,2.352303 0.90727,2.352303 0.90726,0 0.90726,0 0.99218,-2.404484 z m 4.18597,-0.109058 c 0,-2.513542 0,-2.513542 -0.92604,-2.513542 -0.92604,0 -0.92604,0 -0.94629,2.050521 -0.0111,1.127787 -0.0601,2.25888 -0.10888,2.513542 -0.0722,0.377163 0.10327,0.463021 0.94629,0.463021 1.03492,0 1.03492,0 1.03492,-2.513542 z m 4.4417,0.06615 c -0.0761,-2.447396 -0.0761,-2.447396 -1.04976,-2.52841 -0.97368,-0.08101 -0.97368,-0.08101 -1.05833,2.447989 -0.0847,2.529003 -0.0847,2.529003 1.04976,2.52841 1.1344,-5.93e-4 1.1344,-5.93e-4 1.05833,-2.447989 z m 5.0833,0.06615 c 0,-2.38125 0,-2.38125 -1.45521,-2.38125 -1.45521,0 -1.45521,0 -1.45521,2.38125 0,2.38125 0,2.38125 1.45521,2.38125 1.45521,0 1.45521,0 1.45521,-2.38125 z m 9.84845,142.992284 c -1.15443,-0.8086 -0.5706,-1.97203 0.98624,-1.96532 1.13231,0.005 1.46709,0.20387 1.66583,0.99012 0.29006,1.14751 -1.4779,1.79762 -2.65207,0.9752 z m -1.05105,-75.5454 c -0.71636,-0.21481 -0.8599,-0.38753 -0.8599,-1.03473 0,-0.93938 0.60507,-1.32466 2.08037,-1.32466 1.05145,0 1.88838,0.51365 1.88838,1.15896 0,1.07478 -1.54212,1.67024 -3.10885,1.20043 z M 39.020814,118.4761 c -0.63974,-0.44809 -0.77571,-1.41129 -0.27054,-1.91646 0.70226,-0.70226 2.32833,-0.0793 2.32833,0.89202 0,0.39843 -0.9134,1.43631 -1.26404,1.43631 -0.11314,0 -0.47033,-0.18534 -0.79375,-0.41187 z m 133.873216,0.0944 c -0.94571,-0.9457 0.19276,-2.3984 1.43576,-1.83206 1.11451,0.50781 0.68479,2.14956 -0.56264,2.14956 -0.30559,0 -0.6985,-0.14287 -0.87312,-0.3175 z m 0.0983,-5.12535 c -0.51342,-0.51342 -0.52495,-0.92128 -0.0446,-1.57817 0.44389,-0.60705 2.24036,-0.70017 2.90272,-0.15046 0.50552,0.41954 0.56452,1.37517 0.11279,1.8269 -0.46334,0.46334 -2.47584,0.39677 -2.97089,-0.0983 z"
       id="path1" /></g><path
     style="fill:#ffbf00;stroke:#3e1e17;stroke-width:1.34632;stroke-linecap:round;stroke-linejoin:round"
     d="m 388.1038,472.28015 c -0.15164,-47.59189 -0.47608,-86.73004 -0.72098,-86.97366 -0.2449,-0.24363 -12.0602,-1.31293 -26.25624,-2.37623 -14.19603,-1.0633 -26.175,-2.15826 -26.61994,-2.43324 -0.75515,-0.46671 -0.52177,-7.46011 0.90247,-27.04267 0.54709,-7.52227 0.51943,-7.66772 -1.5639,-8.2253 -3.27431,-0.8763 -35.79786,-0.66801 -37.23012,0.23844 -0.8803,0.55714 -1.39267,3.16071 -1.67297,8.50097 -0.34988,6.66612 -0.66281,7.86744 -2.33477,8.96294 -2.91995,1.91322 -12.18101,2.87308 -46.81963,4.85254 -17.3877,0.99364 -32.85127,2.00878 -34.36349,2.25587 l -2.74949,0.44924 -0.59002,37.53532 c -0.32451,20.64442 -0.62953,62.61609 -0.67782,93.27037 l -0.0878,55.73504 -2.04609,-6.23374 c -3.84698,-11.72045 -4.19462,-18.54485 -4.92208,-96.62308 -0.4255,-45.6698 -1.0455,-75.69651 -1.60693,-77.8245 -1.63077,-6.18111 -1.19614,-6.08187 -22.04671,-5.03381 -50.17948,2.52228 -72.22918,3.59457 -73.97565,3.59748 -1.67466,0.003 -1.98698,-0.6424 -2.47711,-5.11738 C 99.295604,361.1309 89.896726,175.35558 89.324272,153.94833 l -0.538872,-20.15131 2.187911,-1.43357 c 2.970577,-1.9464 12.622449,-2.65928 86.243199,-6.36995 34.04071,-1.71573 68.30405,-3.51392 76.14076,-3.99597 7.83671,-0.48206 17.75505,-0.87833 22.04075,-0.8806 7.62264,-0.004 7.79218,0.0422 7.79218,2.12341 0,1.17016 0.40217,9.08479 0.8937,17.58807 0.49153,8.50329 2.89143,55.10929 5.33312,103.56889 2.44168,48.4596 4.74451,88.39676 5.11742,88.74926 0.80834,0.76411 18.97538,1.33021 32.83883,1.02327 l 9.89747,-0.21912 0.61026,-10.46379 c 0.33564,-5.75508 2.57933,-42.12232 4.98596,-80.81607 2.40665,-38.69376 4.65281,-77.10101 4.99147,-85.34945 0.47361,-11.53499 0.90083,-15.10655 1.8506,-15.47101 1.02246,-0.39236 73.04247,3.86034 169.19366,9.99068 19.67901,1.25468 25.96464,2.47029 26.21757,5.07032 0.062,0.63724 0.0204,6.06769 -0.0924,12.06767 -0.11283,5.99998 0.0567,10.90906 0.37678,10.90906 0.32007,0 1.8015,-0.63066 3.29208,-1.40148 1.49058,-0.7708 2.95096,-1.16064 3.2453,-0.8663 0.29434,0.29433 0.77229,15.65222 1.06212,34.12863 0.66652,42.49017 -0.19056,40.23592 15.30717,40.26034 4.24564,0.007 8.35324,-0.23108 9.12799,-0.52839 1.72029,-0.66013 1.98389,-6.56544 0.29547,-6.61913 -12.05445,-0.3833 -14.02593,-1.50895 -14.02593,-8.0084 0,-2.31309 0.50092,-4.60094 1.11317,-5.08411 0.61224,-0.48318 8.01094,-1.13757 16.44155,-1.45421 8.43061,-0.31664 16.32369,-0.95412 17.54017,-1.41662 3.05255,-1.16059 3.35956,-3.61885 3.03167,-24.27534 -0.36464,-22.97206 1.00262,-21.39722 -19.21324,-22.13018 -8.19825,-0.29724 -15.57105,-0.83355 -16.38398,-1.19179 -3.26339,-1.43812 -2.67646,-7.86607 0.80922,-8.86242 0.85766,-0.24516 8.37197,-0.7031 16.69848,-1.01764 8.3265,-0.31455 15.86018,-0.77551 16.74151,-1.02435 1.3237,-0.37374 1.55604,-1.24646 1.3358,-5.01759 -0.33768,-5.78215 -0.2946,-5.76911 -19.43759,-5.88457 -16.47482,-0.0994 -18.67676,-0.73977 -18.67676,-5.43198 0,-4.62007 2.30418,-5.33687 17.34095,-5.39453 7.36038,-0.0282 14.98547,-0.33558 16.94465,-0.683 l 3.56214,-0.6317 v -4.88283 -4.88284 l -4.00741,-0.60189 c -2.20407,-0.33104 -10.23892,-0.6316 -17.85523,-0.6679 -9.50376,-0.0453 -14.18305,-0.40124 -14.91646,-1.13465 -1.67688,-1.67688 -1.2531,-5.61258 0.80498,-7.47606 1.65385,-1.49747 3.76909,-1.74869 18.03334,-2.14172 8.88784,-0.2449 16.66064,-0.76948 17.27288,-1.16573 1.74604,-1.13006 1.41042,-7.52338 -0.44527,-8.48217 -0.85714,-0.44286 -13.8764,-1.01838 -28.9317,-1.27892 -24.68104,-0.42712 -27.65574,-0.63868 -30.2453,-2.15106 -1.57961,-0.92254 -3.10417,-2.66539 -3.38791,-3.87299 -0.43068,-1.83297 -1.24514,-2.3124 -4.93085,-2.90251 -5.96678,-0.95532 -427.01285,-1.83379 -433.207665,-0.90383 -4.86234,0.72992 -4.899956,0.75947 -5.174179,4.06458 -0.193388,2.33084 -0.861067,3.6465 -2.226338,4.38698 -1.336284,0.72475 -11.280855,1.21612 -31.593953,1.56108 -25.002134,0.42459 -29.775903,0.71257 -30.487194,1.83921 -1.378905,2.1841 -0.990504,5.22333 0.910452,7.12429 1.649411,1.64941 3.015374,1.78575 18.478606,1.84443 17.278068,0.0656 29.933588,0.85362 31.011018,1.93105 0.817484,0.81749 -1.167355,5.53316 -3.043604,7.23115 -1.172291,1.0609 -6.073187,1.52259 -23.563767,2.21982 -15.133448,0.60326 -22.50345,1.22872 -23.417566,1.98738 -0.881771,0.7318 -1.243523,2.3286 -1.067212,4.71072 0.333225,4.50219 1.222315,4.80153 14.617823,4.92166 8.584374,0.077 10.209923,0.33379 12.244859,1.93448 2.874177,2.26083 2.980309,4.37746 0.34273,6.83519 -1.776983,1.6558 -3.292322,1.90009 -13.392206,2.15893 -8.923938,0.2287 -11.570873,0.58094 -12.231222,1.62767 -1.219302,1.93272 -1.060134,7.63929 0.243175,8.71842 0.612243,0.50693 7.60875,1.21214 15.547794,1.56712 7.939044,0.355 15.35275,1.10048 16.474902,1.65664 1.352626,0.67038 2.132178,1.95098 2.312952,3.79958 0.470185,4.8081 -1.856847,5.63108 -15.922304,5.63108 -13.627621,0 -17.438555,0.88055 -18.780142,4.33933 -1.405822,3.62438 -1.889177,18.23796 -0.955983,28.90282 1.210772,13.83711 0.438378,13.32528 21.277952,14.09999 12.24926,0.45538 16.789602,0.92535 17.340983,1.79499 1.154449,1.82082 0.90845,9.31151 -0.338943,10.3208 -0.612243,0.49538 -4.001833,1.18455 -7.532423,1.5315 -7.029206,0.69075 -8.551693,1.727 -8.116291,5.52423 l 0.286982,2.50282 10.652904,0.66619 c 6.551552,0.4097 11.06565,1.09541 11.724976,1.78107 0.589639,0.61318 1.205835,3.51933 1.369322,6.45809 l 0.297249,5.34321 -20.726561,0.51017 c -27.372291,0.67374 -26.608176,0.14252 -26.806743,18.63634 -0.115619,10.76827 0.926279,15.56042 3.713409,17.07959 1.128521,0.61513 7.806945,1.31692 15.691305,1.6489 13.378866,0.56335 13.777392,0.63707 15.733107,2.91072 2.308333,2.68361 2.008303,5.34492 -0.826416,7.33043 -1.523914,1.06739 -5.975921,1.30605 -24.156096,1.29492 -12.258326,-0.007 -22.813607,-0.34704 -23.45618,-0.75454 -1.54266,-0.97829 -3.205519,-27.54128 -2.496395,-39.87815 0.600346,-10.44444 1.397089,-13.04225 5.213568,-16.99905 3.116271,-3.23085 5.923012,-4.32055 13.367607,-5.18989 l 5.120577,-0.59796 v -3.45952 c 0,-3.19234 -0.191888,-3.45953 -2.484505,-3.45953 -4.031048,0 -12.66464,-2.55749 -15.536173,-4.60219 -5.715957,-4.07012 -5.533369,-1.90189 -6.023773,-71.53213 L 12.912761,105.54132 9.7958875,104.05974 C 8.0816072,103.24487 5.4767916,101.3128 4.0074085,99.766251 L 1.3358028,96.954342 1.0718279,72.313072 C 0.85261445,51.850165 1.0395558,47.065102 2.1742872,44.09385 4.564047,37.836353 3.9658831,37.946026 39.18355,37.308238 c 19.471247,-0.352623 33.068625,-0.97098 35.401156,-1.609912 5.4896,-1.503721 6.388791,-3.461018 7.029914,-15.302248 0.619419,-11.4403509 1.730182,-15.0792371 5.32126,-17.4325717 2.30388,-1.5097998 5.131427,-1.6277035 39.0353,-1.6277035 40.06671,0 42.15243,0.2300044 44.57544,4.9155905 0.85081,1.6452935 1.51859,6.7199137 1.89452,14.3970227 0.31931,6.520866 0.9268,12.7931 1.34996,13.938297 l 0.76939,2.082177 43.85107,-0.387184 c 44.59015,-0.39371 48.82514,-0.70951 52.42986,-3.909646 1.16409,-1.03344 1.52611,-3.589546 1.81313,-12.80191 0.60515,-19.42239302 -0.62417,-18.91138084 45.3625,-18.85646741 21.46557,0.0256325 34.79949,0.39231821 37.13506,1.02122291 2.41632,0.6506475 4.33416,1.9488177 5.6925,3.8532049 1.86161,2.6099707 2.08911,4.1042933 2.49376,16.3801296 0.2449,7.429486 0.78227,13.84134 1.19415,14.248564 0.808,0.798864 77.9271,0.599206 88.43808,-0.228963 l 6.36717,-0.501675 0.62854,-13.067774 c 0.40293,-8.377009 1.0967,-14.0771867 1.93276,-15.8798524 2.35754,-5.0832203 3.34611,-5.2027368 43.0344,-5.2027368 19.83667,0 37.16796,0.308 38.51396,0.6844444 1.40549,0.3930797 3.44083,2.1857854 4.78121,4.2112441 2.09368,3.163747 2.40818,4.7433967 3.05518,15.3451897 0.39668,6.500114 0.74977,11.904475 0.78463,12.009691 0.0349,0.105216 0.96506,0.706327 2.06709,1.335803 1.49491,0.853882 10.60723,1.257567 35.88563,1.589769 37.51419,0.493002 36.72799,0.366907 40.55712,6.504767 1.68285,2.697488 1.76188,4.171164 1.51593,28.267244 -0.29474,28.876165 -0.27473,28.789855 -7.34603,31.686135 -3.33625,1.36648 -4.2295,2.23092 -4.9441,4.78467 -0.48105,1.71912 -0.92255,16.89478 -0.98451,33.84034 -0.0618,16.89791 -0.36458,44.58131 -0.67287,61.51867 l -0.56053,30.79521 -2.49501,3.2687 c -3.15315,4.13094 -6.28409,5.74358 -13.79357,7.10459 l -5.9748,1.08287 v 3.07829 3.07829 l 6.54458,1.09578 c 7.42325,1.24291 9.65041,2.44121 13.21053,7.10787 2.47817,3.24842 2.51568,3.48642 3.12556,19.83273 0.33952,9.09968 0.37523,25.52582 0.0794,36.50255 -0.49425,18.33695 -0.68192,20.10167 -2.31095,21.7307 -1.71281,1.71281 -2.55919,1.75191 -24.92662,1.15165 -12.73447,-0.34174 -23.88964,-1.01527 -24.78925,-1.49672 -3.27617,-1.75335 -3.23171,-8.82372 0.0666,-10.58892 0.93623,-0.50106 8.78168,-1.17809 17.43432,-1.50453 11.72535,-0.44235 16.05207,-0.91349 16.98849,-1.8499 1.92766,-1.92767 1.75695,-16.52422 -0.21243,-18.16295 -1.05997,-0.882 -5.60123,-1.35043 -16.31495,-1.68288 -17.19942,-0.53371 -19.61871,-1.34722 -19.61871,-6.59702 0,-2.57462 0.40504,-3.15042 2.80449,-3.98687 1.54248,-0.53771 8.52935,-0.97766 15.5264,-0.97766 12.32264,0 16.97075,-0.74634 18.37193,-2.94995 0.36982,-0.5816 0.67853,-4.88808 0.68603,-9.56997 0.0203,-12.69738 1.32786,-11.9698 -21.51071,-11.9698 -28.48317,0 -26.57056,-3.23072 -27.53958,46.51907 -0.51862,26.62608 -0.99993,36.4648 -1.87331,38.29302 -1.07321,2.24653 -1.65839,2.4834 -6.73307,2.7255 l -5.5577,0.26512 -0.0997,-19.41163 c -0.0548,-10.6764 -0.37042,-23.21868 -0.70134,-27.87172 -0.54321,-7.63801 -0.66423,-8.07068 -1.24551,-4.45268 -0.35412,2.20408 -1.8418,22.44149 -3.30597,44.97203 -1.46416,22.53054 -2.87068,41.86833 -3.12559,42.97286 -0.43873,1.90105 -0.78335,1.9826 -6.45648,1.52795 -7.0223,-0.56278 -81.75175,-5.25075 -107.36202,-6.73508 -13.00934,-0.75401 -17.92068,-0.76149 -18.65377,-0.0284 -1.74827,1.74827 -2.3,19.67282 -2.36367,76.78976 -0.0741,66.50501 -1.00531,81.51549 -5.73963,92.52235 -1.20842,2.80947 -1.36784,-5.41733 -1.61635,-83.41383 z m 134.95158,-88.68764 c 0.76092,-3.03176 2.90312,-33.67028 6.36618,-91.05169 1.71448,-28.40807 3.70253,-59.66586 4.41788,-69.46175 1.90141,-26.03728 3.54847,-59.12226 2.97196,-59.69877 -0.6959,-0.69591 -13.40088,-1.62275 -85.31004,-6.22349 -77.39326,-4.95161 -94.39423,-5.65435 -94.40302,-3.90223 -0.003,0.68931 -0.59828,8.86736 -1.32184,18.17345 -1.3149,16.91187 -9.24713,144.83438 -11.25333,181.48182 -0.82674,15.10201 -0.82492,19.64174 0.008,20.47486 1.57753,1.57753 2.26431,0.0259 5.00375,-11.30466 1.31292,-5.43035 4.01884,-14.94658 6.01316,-21.14716 l 3.62603,-11.2738 -1.92537,-4.47566 c -1.05897,-2.46161 -1.91659,-5.60359 -1.90583,-6.98218 0.0266,-3.41457 2.71286,-9.06908 6.18929,-13.02853 2.47293,-2.8165 3.4181,-3.28128 6.67278,-3.28128 3.03963,0 5.09693,-0.85871 10.37153,-4.32904 11.65513,-7.66829 13.40385,-8.31976 20.46479,-7.62399 5.25674,0.51799 6.46473,0.36913 7.95597,-0.98043 2.01115,-1.82005 2.26249,-4.01609 0.64503,-5.63563 -0.69401,-0.69491 -1.11989,-3.6961 -1.13102,-7.97029 -0.01,-3.77064 -0.79669,-14.75649 -1.74863,-24.41303 l -1.73078,-17.55735 1.84606,-2.49691 c 1.01533,-1.37332 2.1486,-3.49104 2.51838,-4.70605 1.81362,-5.9592 7.27253,-14.56569 11.99975,-18.91873 5.85868,-5.39494 17.1712,-12.10239 21.53276,-12.76727 3.91904,-0.5974 12.06411,4.17791 19.8595,11.64332 6.38669,6.11632 8.85458,10.53229 13.01229,23.28388 l 2.93854,9.01243 -4.17038,21.71103 c -2.2937,11.94106 -4.16521,22.60929 -4.1589,23.70718 0.006,1.09789 -0.79002,2.49669 -1.76961,3.10845 -4.29419,2.68177 -0.88349,6.53305 6.28207,7.09358 5.88292,0.4602 11.75927,3.13672 17.92988,8.16657 8.02983,6.54538 9.95815,7.6871 12.98325,7.6871 3.77615,0 6.68193,2.83983 9.81214,9.58946 2.9679,6.39966 3.03497,11.05465 0.24511,17.01111 l -2.17225,4.63784 1.90617,7.75735 c 1.0484,4.26654 2.75269,13.94813 3.78731,21.51465 1.03463,7.56653 2.07968,14.07856 2.32234,14.4712 0.88097,1.42545 2.82661,0.66606 3.3189,-1.29536 z m -52.54133,-15.14012 c 0.2775,-1.10563 0.76126,-7.01656 1.075,-13.13539 0.87573,-17.07843 0.88033,-17.08879 9.32246,-21.0405 3.90598,-1.82836 7.10179,-3.85186 7.10179,-4.49665 0,-1.63021 -1.29081,-1.4917 -9.78131,1.04962 -9.61477,2.87783 -27.99898,6.45041 -37.0983,7.20927 -8.61974,0.71886 -16.44284,-0.49006 -27.48008,-4.24651 -16.40506,-5.58335 -31.60233,-13.83968 -41.25572,-22.41324 -2.56646,-2.27939 -5.42711,-4.14434 -6.357,-4.14434 -0.92988,0 -2.54405,1.19841 -3.58703,2.66315 -4.23738,5.95086 -3.09089,12.54173 4.38266,25.19471 10.109,17.1149 26.58181,35.12964 28.09607,30.72597 0.21642,-0.62936 1.20076,-6.55431 2.18744,-13.16653 2.21458,-14.84106 2.80072,-17.81381 3.5095,-17.79933 0.30613,0.006 3.68186,1.00945 7.50164,2.22934 15.33219,4.89651 28.06307,5.85386 47.35019,3.56069 8.2749,-0.98385 10.8115,-1.02743 11.34069,-0.19485 0.37492,0.58985 0.69328,6.68283 0.70746,13.53995 0.0256,12.39139 0.46929,16.4749 1.78987,16.4749 0.37958,0 0.91718,-0.90461 1.19467,-2.01026 z m -361.46506,-8.00826 c 0.66185,-1.59183 1.87056,-7.10202 2.68603,-12.24486 2.49945,-15.76308 3.16474,-18.45822 5.91483,-23.96163 2.93526,-5.87398 7.53675,-10.46917 11.27146,-11.25604 5.35283,-1.1278 8.08575,-2.91264 8.38029,-5.47306 0.18441,-1.60313 1.07737,-2.86709 2.51243,-3.5563 1.22449,-0.58808 3.99838,-2.88047 6.1642,-5.09422 l 3.93787,-4.02499 0.24918,-9.60618 c 0.13706,-5.28342 0.67184,-11.00879 1.18841,-12.72307 1.17657,-3.9045 0.0147,-4.94404 -6.48797,-5.80474 -9.86829,-1.30619 -21.34108,-4.06185 -25.91025,-6.22342 -11.0521,-5.22848 -9.62846,-6.55697 18.05219,-16.84567 18.09004,-6.72395 19.51706,-7.37964 20.99435,-9.64647 0.71653,-1.09948 2.77894,-9.21239 4.58313,-18.02869 3.53948,-17.29596 7.42304,-29.69239 12.83904,-40.98263 4.06565,-8.47525 5.77292,-10.20986 10.69935,-10.87063 3.58968,-0.48148 3.87704,-0.32377 9.46745,5.19605 3.17097,3.13092 6.90097,7.6963 8.28888,10.14527 3.71442,6.55409 8.48975,19.129 11.55575,30.42984 3.81622,14.06605 6.2888,21.04672 7.90972,22.33099 1.82607,1.4468 12.31321,4.59546 30.01194,9.01077 21.08369,5.25976 21.92175,5.7167 17.15421,9.35308 -3.908,2.98078 -14.13148,6.99141 -26.54631,10.41401 -12.27858,3.38505 -12.92818,3.84921 -11.21852,8.01609 0.69074,1.68348 1.5383,6.55807 1.88348,10.83241 0.63222,7.82864 2.54635,12.26551 5.29151,12.26551 1.99507,0 11.91258,5.35183 12.43361,6.70961 0.27695,0.72171 3.50558,2.73716 7.17475,4.47877 3.66916,1.7416 7.71843,4.4111 8.99837,5.93223 3.23042,3.83914 11.52895,20.64184 14.30165,28.95768 2.84691,8.53847 4.76136,12.69704 5.84521,12.69704 0.45619,0 0.60671,-1.30241 0.3345,-2.89424 -0.2722,-1.59183 -1.28531,-18.12239 -2.25134,-36.73458 -0.96604,-18.61219 -3.37842,-65.09812 -5.36084,-103.30209 -1.98242,-38.20396 -3.90429,-71.06471 -4.27081,-73.02388 l -0.6664,-3.56214 -7.69511,-0.52845 c -6.61595,-0.45433 -8.0925,-0.86284 -10.52887,-2.9129 -2.52604,-2.12552 -3.33166,-2.3263 -7.41857,-1.8489 -2.52164,0.29457 -6.81862,1.66556 -9.54885,3.04667 -7.15806,3.62095 -10.33564,3.88892 -101.00964,8.5182 -33.3697,1.70365 -44.826491,2.56997 -45.722957,3.45737 -1.001184,0.99105 -0.964218,4.94013 0.226739,24.22318 0.78262,12.6715 2.8272,51.09094 4.54352,85.37655 3.280878,65.53977 5.432968,102.5439 6.331548,108.86793 0.64315,4.52644 1.77613,4.82225 3.41084,0.89053 z m 89.81364,-6.71161 c 2.12522,-2.34833 4.1794,-7.74791 4.1794,-10.98588 0,-2.79287 0.0288,-2.81217 1.80211,-1.20734 2.47841,2.24293 3.52769,0.91246 4.16722,-5.28391 0.36711,-3.55693 0.80429,-4.79263 1.46266,-4.13426 2.75848,2.75848 5.0035,-1.77244 5.05034,-10.19265 l 0.0248,-4.45267 1.71877,2.22634 c 1.59694,2.0685 1.82352,2.12235 3.19613,0.75968 0.81253,-0.80666 1.68524,-3.31129 1.93937,-5.56584 0.44012,-3.90471 1.45936,-5.31026 2.21245,-3.05099 0.19218,0.57651 0.82669,0.75323 1.41002,0.39271 1.43822,-0.88887 1.31788,-6.19217 -0.27519,-12.12734 -1.59678,-5.94901 -1.59748,-5.9611 -0.26716,-4.63078 2.08386,2.08386 2.70301,1.00574 2.33604,-4.06763 -0.2486,-3.43688 -1.32516,-7.04627 -3.25381,-10.90906 -5.14002,-10.29469 -6.67201,-12.4468 -8.8622,-12.44939 -1.11776,-0.001 -3.47096,-0.60352 -5.22933,-1.33821 -1.75837,-0.73469 -5.25577,-1.3358 -7.772,-1.3358 -3.61051,0 -4.80945,-0.37547 -5.68727,-1.78107 -1.87583,-3.0037 -6.16837,-2.27398 -13.60564,2.3129 -10.33567,6.37445 -9.3,6.23877 -12.46857,1.63343 -3.05715,-4.44341 -7.28739,-7.49991 -10.38727,-7.50514 -1.60525,-0.003 -2.22762,0.86077 -3.36737,4.67198 -0.76899,2.57142 -1.64597,7.07975 -1.94883,10.01852 -0.31109,3.01866 -1.07381,5.65302 -1.7532,6.05536 -1.40497,0.83203 -1.63196,4.18579 -0.28332,4.18579 0.50559,0 1.28166,-0.90167 1.72463,-2.0037 0.57991,-1.44273 0.8246,0.11553 0.874,5.56584 0.0914,10.08644 0.60007,11.85406 3.22174,11.19606 2.62518,-0.65888 3.21715,1.10098 3.0485,9.06287 -0.07,3.30652 -0.0969,6.51279 -0.0598,7.12503 0.10269,1.69175 1.94366,1.33437 4.24022,-0.82313 l 2.0611,-1.93631 0.005,2.60421 c 0.003,1.43231 0.43307,4.14598 0.95632,6.03037 0.74581,2.68594 1.30661,3.33326 2.59567,2.99617 1.20769,-0.31582 1.79984,0.19323 2.22998,1.91704 1.3318,5.33737 6.56929,10.80485 6.72695,7.02235 0.0255,-0.61224 0.9862,1.41708 2.13484,4.5096 1.14864,3.09253 2.36448,5.89772 2.70186,6.23375 0.33739,0.33604 1.38041,-0.33508 2.31784,-1.49138 l 1.70441,-2.10237 0.0196,2.10237 c 0.0371,3.98394 4.79829,12.34351 7.03031,12.34351 0.3789,0 1.33685,-0.71596 2.12876,-1.59103 z m -37.74996,-5.21161 c 0.20407,-0.1769 0.0703,-0.62219 -0.29728,-0.98954 -0.83541,-0.83488 -44.67407,-0.89196 -45.50635,-0.0592 -2.13171,2.1328 1.63929,2.4482 22.98888,1.92278 12.34403,-0.3038 22.61066,-0.69709 22.81475,-0.87399 z m -7.25737,-10.57813 c 2.09007,-0.22003 4.99544,-1.01819 6.45638,-1.77367 2.22791,-1.15209 2.65573,-1.90845 2.65294,-4.69024 -0.004,-4.13465 -2.64173,-8.58514 -6.16897,-10.40915 -7.68805,-3.97564 -27.64268,-6.63077 -30.72005,-4.08755 -2.12737,1.7581 -9.6379,16.88552 -9.09099,18.31073 1.08018,2.81492 21.41867,4.27663 36.87069,2.64988 z m 183.65755,0.0679 c 0,-0.70579 -0.40074,-1.53092 -0.89054,-1.83363 -0.48979,-0.30271 -0.89053,0.27474 -0.89053,1.28324 0,1.0085 0.40074,1.83363 0.89053,1.83363 0.4898,0 0.89054,-0.57746 0.89054,-1.28324 z m 119.33172,-5.26451 c 10.71347,-2.30242 24.97043,-6.67923 30.26656,-9.29168 1.70787,-0.84246 3.24003,-2.23175 3.4048,-3.08731 0.43171,-2.24173 -2.21,-2.05991 -23.63626,1.62681 -23.8374,4.1016 -32.5363,4.6556 -40.75857,2.59577 -3.42856,-0.85892 -15.18437,-4.71445 -26.12402,-8.56785 -10.93965,-3.85341 -20.85799,-7.00619 -22.04074,-7.00619 -9.38168,0 14.7246,14.11244 38.93851,22.79561 10.90172,3.90939 11.09704,3.94337 20.35794,3.5415 5.14285,-0.22317 13.95914,-1.39616 19.59178,-2.60666 z m -9.57325,-10.46793 c 1.83672,-0.47502 3.3395,-1.16882 3.3395,-1.54177 0,-1.9371 -2.65064,-2.8154 -8.49666,-2.8154 -10.91189,0 -11.79205,-0.41696 -36.24801,-17.17216 -10.65282,-7.29843 -12.11189,-7.72675 -17.46394,-5.12652 -4.59935,2.23454 -10.81528,6.8911 -10.81528,8.10208 0,1.34493 5.07311,3.52311 22.22729,9.54351 28.96828,10.16666 31.79658,10.93193 38.32911,10.37099 3.18366,-0.27339 7.29126,-0.88571 9.12799,-1.36073 z m 19.8144,-4.35717 c 0.30272,-0.48979 0.126,-0.89053 -0.3927,-0.89053 -0.5187,0 -0.9431,0.40074 -0.9431,0.89053 0,0.4898 0.17672,0.89054 0.39271,0.89054 0.21599,0 0.64038,-0.40074 0.94309,-0.89054 z m -325.04535,-8.01481 c 0.30271,-0.4898 0.12599,-0.89054 -0.39271,-0.89054 -0.5187,0 -0.94309,0.40074 -0.94309,0.89054 0,0.48979 0.17671,0.89053 0.3927,0.89053 0.21599,0 0.64039,-0.40074 0.9431,-0.89053 z m 10.64024,-4.37794 c 0.79659,-1.28893 -1.11225,-5.41795 -2.50473,-5.41795 -0.69255,0 -2.20524,0.80121 -3.36155,1.78047 -2.06313,1.74726 -2.0701,1.80542 -0.37371,3.11688 1.92184,1.48576 5.461,1.78102 6.23999,0.5206 z m 283.60568,-11.81655 c 0.54383,-1.56005 1.246,-9.93741 1.56038,-18.61636 l 0.57158,-15.77992 -2.51057,-2.32671 c -1.38081,-1.27969 -4.40539,-2.9997 -6.72128,-3.82223 -2.55196,-0.90637 -4.04626,-1.92411 -3.79324,-2.58347 0.23506,-0.61255 -2.44462,-3.01931 -6.13228,-5.50772 -3.60238,-2.43085 -7.08808,-5.06834 -7.746,-5.8611 -2.10667,-2.53838 -3.65019,-1.73451 -3.64468,1.89815 0.007,4.41411 2.54673,33.83042 3.1902,36.94606 0.36507,1.76758 2.74943,4.12334 8.67263,8.56856 8.14958,6.11608 13.88372,9.91156 14.98367,9.91787 0.31944,0.002 1.02575,-1.27307 1.56959,-2.83313 z m 9.00336,-7.46267 c 0.94417,-2.48334 1.20665,-21.62378 0.32795,-23.91364 -0.7206,-1.87786 -2.68376,-1.79211 -3.42957,0.1498 -0.32918,0.85714 -0.83437,7.06862 -1.12264,13.80329 -0.51989,12.14584 -0.50844,12.24486 1.41583,12.24486 1.26299,0 2.243,-0.79712 2.80843,-2.28431 z m 6.5617,-0.0149 c 0.90795,-2.36608 0.60094,-22.36102 -0.38308,-24.94919 -1.75471,-4.61524 -2.84638,-0.82356 -3.31749,11.5226 -0.25219,6.60913 -0.21517,12.65079 0.0823,13.42591 0.6977,1.81818 2.9207,1.8186 3.6183,6.8e-4 z m 4.8325,-31.69421 c 7.57477,-3.12821 10.84714,-4.99353 10.84714,-6.18312 0,-1.44613 -3.25541,-0.81359 -9.88717,1.92113 -7.37316,3.04045 -10.59514,4.93092 -10.59514,6.21663 0,1.48953 2.5459,0.97305 9.63517,-1.95464 z m -320.80759,-3.40098 c 6.38026,-1.47372 31.22117,-3.63099 49.41331,-4.29122 9.69594,-0.35187 17.94314,-0.95395 18.32712,-1.33793 1.439,-1.43899 -1.40545,-3.85512 -9.37066,-7.95963 -7.37353,-3.79961 -8.81619,-4.23143 -14.17761,-4.24368 -7.19976,-0.0164 -9.53611,-1.10294 -6.85932,-3.18987 3.21499,-2.50654 8.81397,-5.10871 14.24856,-6.62217 5.32551,-1.48307 5.34322,-1.49914 5.34322,-4.85343 0,-2.93126 -0.40033,-3.58014 -3.10299,-5.02959 -1.70663,-0.91528 -4.81238,-1.66415 -6.90164,-1.66415 -2.08927,0 -3.79867,-0.38045 -3.79867,-0.84545 0,-0.465 3.20593,-2.51336 7.12428,-4.55191 3.91836,-2.03855 7.12428,-4.23393 7.12428,-4.8786 0,-0.64468 -1.64249,-1.89681 -3.64998,-2.78251 l -3.64998,-1.61036 2.84187,-2.37251 c 4.11857,-3.43832 3.39106,-5.59174 -2.00629,-5.93873 -4.35249,-0.27982 -5.12287,-0.98921 -2.99344,-2.75647 0.67572,-0.56081 2.30805,-2.57731 3.62739,-4.48112 l 2.39879,-3.46146 -1.61008,-4.53328 c -1.27901,-3.60116 -2.01555,-4.53329 -3.58207,-4.53329 -5.63208,0 -12.16375,17.21538 -19.54493,51.51413 -2.81663,13.08828 -3.63566,15.65145 -5.36288,16.78317 -1.12121,0.73464 -6.55843,2.90549 -12.08271,4.8241 -19.62273,6.81509 -22.9569,8.10744 -22.9569,8.89819 0,1.03892 6.55585,0.99079 11.20133,-0.0822 z m 303.56851,-4.68343 c 1.9138,-11.26716 2.94005,-48.7568 1.33469,-48.7568 -2.5691,0 -14.39012,7.26153 -19.41868,11.92869 -6.49751,6.03053 -10.82404,15.00611 -10.82404,22.45491 0,3.21631 0.41497,4.08362 2.74903,5.74561 5.32462,3.79147 20.87876,11.48383 23.25877,11.50272 2.0284,0.0161 2.48623,-0.43777 2.90023,-2.87513 z m 12.20107,-15.36173 c 0.77883,-2.8986 0.23214,-5.78848 -1.09503,-5.78848 -0.45678,0 -0.83052,0.60111 -0.83052,1.3358 0,0.7347 -0.57746,1.33581 -1.28325,1.33581 -1.92318,0 -2.39589,1.35738 -1.39213,3.99748 1.17827,3.09909 3.65921,2.62424 4.60093,-0.88061 z M 589.53432,86.421495 c 11.99996,-0.429441 22.92015,-1.205219 24.26708,-1.723952 1.73026,-0.666356 2.44897,-1.570996 2.44897,-3.082487 0,-4.547684 -0.0289,-4.551092 -42.65859,-5.029027 -41.56057,-0.465948 -42.53212,-0.562914 -44.61386,-4.452676 -0.72859,-1.36139 -0.56422,-2.107379 0.75501,-3.426613 1.59368,-1.593679 3.93188,-1.708133 42.54347,-2.082492 29.79615,-0.288889 41.39955,-0.69017 42.86081,-1.482254 1.65388,-0.896499 2.0037,-1.841402 2.0037,-5.412189 0,-3.259535 -0.38421,-4.498753 -1.55844,-5.026518 C 613.20962,53.636788 453.10731,52.732089 259.14575,52.68915 77.645467,52.648969 21.542328,53.216079 17.971699,55.127023 c -1.777176,0.951115 -1.997877,1.665145 -1.764055,5.70722 l 0.267258,4.620096 28.754515,0.890535 c 23.914147,0.740628 28.896276,1.115396 29.596659,2.226338 1.240048,1.966953 1.06389,3.124526 -0.83199,5.467188 l -1.701406,2.102362 -26.573087,0.445267 c -14.615197,0.244897 -27.074012,0.769474 -27.686255,1.165726 -0.612243,0.396252 -1.113169,2.067559 -1.113169,3.714017 0,2.649595 0.332551,3.068653 2.89424,3.647113 1.591831,0.359455 10.708686,0.925945 20.259676,1.258866 26.01788,0.906912 524.247815,0.952018 549.460235,0.04974 z M 155.62873,36.28931 c 1.2018,-1.496949 2.24332,-15.945584 1.25654,-17.431499 -0.46816,-0.70498 -1.99906,-1.063126 -3.80659,-0.890535 l -3.02349,0.288696 -0.25881,8.445582 c -0.2198,7.172925 -0.0264,8.61551 1.28337,9.573254 1.95187,1.427236 3.41106,1.431888 4.54898,0.0145 z m -47.01476,-1.499892 c 1.29073,-2.41176 1.17843,-14.584862 -0.14678,-15.910071 -1.28298,-1.282986 -9.286189,-1.435091 -10.055015,-0.1911 -0.298294,0.482648 -0.542354,4.295533 -0.542354,8.473077 0,4.177545 0.24406,7.990429 0.542354,8.473078 0.298293,0.482648 2.508295,0.877542 4.911135,0.877542 3.40787,0 4.57155,-0.378871 5.29066,-1.722526 z m 15.88285,0.653884 c 1.22739,-1.227394 1.46885,-14.73208 0.29646,-16.581054 -0.46675,-0.736121 -2.04117,-1.068652 -4.2164,-0.890536 l -3.4715,0.28426 -0.25952,7.944337 c -0.14274,4.369386 -0.0551,8.476979 0.19468,9.127986 0.56677,1.476991 6.01034,1.560952 7.45628,0.115007 z m 16.17642,-0.653884 c 1.09956,-2.054563 1.21386,-15.139339 0.14693,-16.822142 -0.44964,-0.709198 -1.95279,-1.06416 -3.77113,-0.890536 l -3.02349,0.288697 -0.25811,8.393279 c -0.14196,4.616304 -0.0544,8.924268 0.19468,9.573254 0.71268,1.85721 5.63999,1.458868 6.71112,-0.542552 z m 158.47216,0.476414 c 0.66733,-0.804079 0.94293,-4.196395 0.77694,-9.563078 -0.28998,-9.375806 -0.34639,-9.43885 -7.48609,-8.368186 l -3.90284,0.585268 V 26.6222 c 0,4.7863 0.26716,8.969525 0.5937,9.296054 1.13,1.130004 8.96232,0.619939 10.01829,-0.652422 z m 16.80266,-8.827996 0.25333,-9.628841 -3.3702,0.278221 -3.3702,0.278221 -0.25811,8.393279 c -0.14196,4.616304 -0.0445,8.949864 0.2165,9.630134 0.30467,0.793957 1.5132,1.136765 3.37499,0.95734 l 2.90037,-0.279513 z m 15.77631,0.278221 v -9.35062 l -3.21887,-0.2692 c -2.98241,-0.249423 -3.26046,-0.06133 -3.78478,2.560289 -0.85159,4.257971 -0.68039,11.985651 0.32407,14.627572 0.74685,1.9644 1.35542,2.295901 3.78477,2.061678 l 2.89481,-0.279099 z m 16.28685,1.564509 c 0.29857,-9.037892 -0.55693,-11.360397 -4.18464,-11.360397 -2.12,0 -2.61896,0.450022 -3.08554,2.782923 -0.84339,4.216957 -0.66657,11.950965 0.33338,14.581006 0.74686,1.9644 1.35542,2.295901 3.78478,2.061678 l 2.8948,-0.279099 z m 134.62754,6.508852 c 0.50703,-0.947388 0.92187,-5.355538 0.92187,-9.795887 0,-8.843309 -0.32996,-9.258154 -5.73051,-7.204868 -2.22745,0.846877 -2.28431,1.075924 -2.28431,9.202197 0,4.583537 0.26716,8.600865 0.59369,8.927394 1.29998,1.299983 5.59901,0.553299 6.49926,-1.128836 z m 16.02964,0 c 1.09956,-2.054563 1.21386,-15.139339 0.14693,-16.822142 -0.44964,-0.709198 -1.95279,-1.06416 -3.77113,-0.890536 l -3.02349,0.288697 -0.51077,8.905352 c -0.28092,4.897944 -0.35746,9.205908 -0.17008,9.573254 0.18739,0.367346 1.70554,0.667901 3.37368,0.667901 2.0872,0 3.32046,-0.53714 3.95486,-1.722526 z m 16.97194,0.36209 c 1.25286,-1.509602 0.56931,-16.216728 -0.8182,-17.604238 -0.41626,-0.416261 -2.11021,-0.627462 -3.76432,-0.469335 l -3.00748,0.287502 -0.25811,8.393279 c -0.14196,4.616304 -0.0544,8.924268 0.19468,9.573254 0.62408,1.626317 6.26431,1.493325 7.65343,-0.180462 z m 18.60771,0.112697 c 0.66286,-0.798704 0.94247,-4.083683 0.77695,-9.127986 l -0.2586,-7.880247 h -5.34321 -5.34321 l -0.25859,7.880247 c -0.30406,9.265968 0.29509,10.375725 5.6018,10.375725 2.16302,0 4.23376,-0.535507 4.82486,-1.247739 z"
     id="path2"
     transform="scale(0.26458333)" /><path
     style="fill:#ffbf00;stroke:#3e1e17;stroke-width:1.34632;stroke-linecap:round;stroke-linejoin:round"
     d="m 120.61952,75.533883 c -2.7607,-2.423924 -3.14914,-3.221793 -2.6889,-5.523033 0.65342,-3.267097 3.48247,-6.441627 6.39118,-7.171666 3.98346,-0.999786 10.14902,3.73892 10.14902,7.800302 0,2.502134 -5.63961,7.727614 -8.34005,7.727614 -1.29731,0 -3.67872,-1.224227 -5.51125,-2.833217 z"
     id="path3"
     transform="scale(0.26458333)" /><path
     style="fill:#ffbf00;stroke:#3e1e17;stroke-width:1.34632;stroke-linecap:round;stroke-linejoin:round"
     d="m 312.89874,77.066764 c -1.02106,-0.715184 -2.34718,-2.48497 -2.94691,-3.932855 -1.89389,-4.572243 2.44372,-10.796443 7.52398,-10.796443 2.51777,0 5.95385,2.189312 7.19107,4.581826 1.89812,3.670567 1.55318,5.957433 -1.33409,8.844705 -2.93815,2.938149 -7.31839,3.485055 -10.43405,1.302767 z"
     id="path4"
     transform="scale(0.26458333)" /><path
     style="fill:#ffbf00;stroke:#3e1e17;stroke-width:1.34632;stroke-linecap:round;stroke-linejoin:round"
     d="m 383.37541,75.799272 c -2.44897,-0.319426 -4.9536,-0.897842 -5.56584,-1.285369 -1.41767,-0.897327 -1.44681,-5.252839 -0.0445,-6.655119 1.39993,-1.399927 65.85189,-1.538125 68.45165,-0.146775 2.14971,1.15049 2.30155,5.50329 0.25138,7.206542 -1.17262,0.974197 -7.27157,1.246488 -30.05556,1.341853 -15.72143,0.0658 -30.58812,-0.141706 -33.0371,-0.461132 z"
     id="path5"
     transform="scale(0.26458333)" /><path
     style="fill:#ffbf00;stroke:#3e1e17;stroke-width:1.34632;stroke-linecap:round;stroke-linejoin:round"
     d="m 501.28335,75.601315 c -1.53379,-1.641935 -2.58362,-3.745396 -2.58362,-5.1766 0,-2.633942 3.58435,-6.600238 6.85714,-7.58782 4.24227,-1.28013 10.88454,5.037418 9.48091,9.017413 -0.31323,0.888167 -1.58759,2.716885 -2.83192,4.06382 -3.21948,3.484981 -7.48672,3.361208 -10.92251,-0.316813 z"
     id="path6"
     transform="scale(0.26458333)" /><path
     style="fill:#ffbf00;stroke:#3e1e17;stroke-width:1.34632;stroke-linecap:round;stroke-linejoin:round"
     d="m 566.15777,201.21164 c -3.71038,-2.2135 -0.4136,-7.07496 4.79786,-7.07496 4.29309,0 6.33484,1.69155 5.96496,4.94186 -0.28279,2.48499 -0.54083,2.6395 -4.75171,2.84525 -2.44897,0.11966 -5.15397,-0.20081 -6.01111,-0.71215 z"
     id="path7"
     transform="scale(0.26458333)" /><path
     style="fill:#ffbf00;stroke:#3e1e17;stroke-width:1.34632;stroke-linecap:round;stroke-linejoin:round"
     d="m 184.34079,275.57794 c 0,-1.09757 5.05885,-4.80674 7.23364,-5.30375 2.35616,-0.53845 12.35814,3.57844 12.35814,5.08671 0,0.38776 -4.40815,0.70502 -9.79589,0.70502 -5.38774,0 -9.79589,-0.21959 -9.79589,-0.48798 z"
     id="path8"
     transform="scale(0.26458333)" /><path
     style="fill:#ffbf00;stroke:#3e1e17;stroke-width:1.34632;stroke-linecap:round;stroke-linejoin:round"
     d="m 59.755204,220.02959 c -1.467029,-1.10658 -1.93862,-2.23862 -1.7226,-4.13507 0.248312,-2.17992 0.74634,-2.65525 3.014564,-2.87718 3.670033,-0.35908 6.358115,2.42189 4.781395,4.94662 -1.939669,3.1059 -3.838198,3.75162 -6.073359,2.06563 z"
     id="path9"
     transform="scale(0.26458333)" /><path
     style="fill:#ffbf00;stroke:#3e1e17;stroke-width:1.34632;stroke-linecap:round;stroke-linejoin:round"
     d="m 52.350217,723.2001 c -53.8120642,-0.59708 -50.9739353,-0.19566 -50.9739353,-7.20978 0,-6.47818 0.4081639,-6.60259 23.8116033,-7.25805 11.371073,-0.31847 24.104568,-0.61903 28.296654,-0.6679 4.736976,-0.0552 8.22441,-0.52938 9.213566,-1.25266 1.504947,-1.10045 1.5123,-1.42768 0.135081,-6.01112 -2.022918,-6.73234 -2.968116,-22.21275 -1.356259,-22.21275 0.65427,0 4.986766,3.79103 9.627768,8.4245 4.641002,4.63347 8.774746,8.21649 9.186098,7.96226 0.411351,-0.25423 0.74729,-10.15656 0.746528,-22.00516 -0.0012,-18.72622 -0.204965,-21.95032 -1.558436,-24.65877 -2.708411,-5.41986 -4.131589,-5.69788 -31.835251,-6.21897 -26.942415,-0.50676 -27.313588,-0.57383 -30.884168,-5.57984 l -2.065635,-2.89605 v -57.59666 c 0,-57.04552 0.01783,-57.62073 1.862954,-60.11113 2.710619,-3.65858 6.995643,-6.29186 11.293182,-6.94004 8.092312,-1.22052 8.649188,-1.44715 9.228615,-3.75577 0.694749,-2.7681 -0.295076,-3.45516 -5.941085,-4.12385 -8.742282,-1.03539 -15.43871,-6.45132 -16.446925,-13.30192 -0.306014,-2.0793 -0.419684,-37.64315 -0.252599,-79.03077 0.332101,-82.2626 0.184156,-80.0349 5.441033,-81.92913 1.648662,-0.59407 11.752464,-1.23247 24.208837,-1.52962 24.563367,-0.58596 23.728976,-0.8399 23.922276,7.28037 0.182592,7.67047 0.0048,7.74773 -19.082407,8.29499 -14.24191,0.40833 -16.443873,0.66868 -17.890444,2.11525 -0.907283,0.90728 -1.643469,2.75164 -1.635969,4.09857 0.02756,4.9489 0.323475,5.03867 18.275992,5.54391 16.102845,0.4532 16.651653,0.53025 18.30201,2.56957 2.109605,2.6068 2.109711,2.98376 0.0016,5.59116 -1.640603,2.02915 -2.240651,2.11787 -17.230029,2.54763 -17.198638,0.4931 -18.47265,0.89545 -18.47265,5.83391 0,3.92856 2.001376,5.72183 6.51999,5.84205 31.21783,0.83051 43.313806,1.34587 43.834093,1.8676 1.152225,1.15541 0.648577,5.29719 -0.823106,6.76887 -1.231378,1.23138 -4.870177,1.54285 -23.933135,2.04864 -12.364533,0.32806 -23.142776,0.86875 -23.951651,1.20153 -2.242891,0.92276 -3.18117,5.20655 -1.665974,7.60613 0.709881,1.12423 5.214389,1.40633 28.439173,1.78107 21.412846,0.34551 27.855029,0.71227 28.75318,1.63694 0.956858,0.98512 0.101651,2.17798 -4.933935,6.88197 -3.696624,3.45319 -7.372753,6.04618 -9.35062,6.59554 -1.792559,0.49789 -9.671052,0.93138 -17.507762,0.96331 -16.131239,0.0657 -22.15854,0.80118 -24.325615,2.96825 -2.249172,2.24918 -2.203473,19.76665 0.05588,21.41873 1.030542,0.75355 6.291916,1.29842 15.584366,1.61391 16.783965,0.56984 18.926529,1.18498 18.926529,5.4339 0,1.66643 -0.609452,3.53568 -1.354337,4.15388 -0.905275,0.75131 -6.525925,1.32934 -16.951466,1.7433 -9.11526,0.36193 -15.996046,1.01822 -16.55703,1.5792 -0.527945,0.52795 -1.162626,2.75848 -1.410403,4.95675 -0.369416,3.27745 -0.15094,4.15632 1.213832,4.8829 0.915383,0.48733 8.365814,1.02786 16.556514,1.20117 13.846112,0.29299 15.027204,0.45019 16.814412,2.23781 2.248216,2.24875 1.802356,5.93719 -0.891997,7.37916 -0.9179,0.49125 -8.361823,1.1675 -16.542052,1.50279 -16.679324,0.68364 -17.666042,1.05212 -17.213938,6.42846 0.422616,5.02568 2.139318,5.45497 21.642633,5.41217 19.353902,-0.0425 22.175793,-0.6411 24.889105,-5.27982 1.686057,-2.88252 1.862193,-5.05874 2.34249,-28.9424 0.332198,-16.51914 0.894499,-26.72898 1.560406,-28.33264 0.572582,-1.37891 3.345289,-4.78521 6.161571,-7.56955 l 5.120513,-5.06243 0.554608,9.79589 c 0.305035,5.38774 0.609999,41.45441 0.677697,80.14817 0.06771,38.69375 0.358556,71.77534 0.646342,73.51463 0.448527,2.71085 1.117969,3.43519 4.688792,5.07334 4.431213,2.03286 11.688533,8.16944 11.688533,9.88349 0,0.7585 -9.14648,1.02935 -34.953507,1.03507 -19.224429,0.004 -37.057397,0.26044 -39.628817,0.56931 l -4.67531,0.56157 v 4.21959 c 0,2.81421 0.483546,4.6209 1.451828,5.4245 1.168483,0.96976 12.927143,1.34216 60.25008,1.90812 64.187646,0.76767 63.659086,0.72078 63.135206,5.60011 -0.15569,1.45015 -0.60947,2.97019 -1.0084,3.37787 -1.77273,1.81165 -16.54696,2.31926 -68.297619,2.3465 -49.624663,0.0261 -55.396372,0.17463 -55.881086,1.43778 -0.81273,2.11794 -0.624867,6.87493 0.331231,8.38725 0.746667,1.18105 24.035243,1.33253 201.024694,1.30762 135.50693,-0.0191 201.04332,-0.32579 202.85179,-0.94936 3.54092,-1.22094 4.25511,-5.23853 1.1716,-6.59067 -1.13418,-0.49734 -9.3961,-1.2336 -18.35983,-1.63613 -20.60282,-0.92521 -19.78171,-0.3493 -20.4448,-14.33927 l -0.47071,-9.93099 7.02965,0.2624 7.02964,0.2624 0.28386,3.98993 c 0.15613,2.19447 0.65602,4.43836 1.11088,4.98644 0.508,0.61209 6.57239,1.23912 15.72089,1.62549 16.70413,0.70545 18.56527,1.31474 22.83465,7.47546 1.79145,2.58505 2.35014,4.47402 2.35014,7.94586 0,7.00663 0.31204,7.37189 6.2977,7.37189 6.05995,0 7.06033,-1.03901 7.06033,-7.3329 0,-5.00715 1.12845,-6.02513 6.67902,-6.02513 5.54763,0 6.67901,1.0184 6.67901,6.01203 0,3.616 0.223,3.97532 3.33951,5.38102 3.02328,1.36365 8.70227,1.50692 59.97297,1.51299 46.69923,0.006 56.89202,-0.20767 58.10742,-1.21549 2.14728,-1.78052 1.98095,-7.79442 -0.24857,-8.98762 -0.99839,-0.53432 -8.39219,-0.92957 -17.58807,-0.94021 -16.62984,-0.0192 -40.75713,-1.28938 -43.34322,-2.28174 -3.5395,-1.35825 -3.66648,-6.46035 -0.19394,-7.79289 0.72614,-0.27864 14.26228,-0.78348 30.0803,-1.12187 15.81803,-0.33839 29.66172,-0.94911 30.76376,-1.35718 1.7093,-0.63291 2.0037,-1.39165 2.0037,-5.16408 0,-2.55979 -0.4688,-4.72558 -1.11317,-5.14261 -0.61224,-0.39626 -8.57223,-0.92645 -17.68886,-1.1782 -18.37634,-0.50747 -19.49098,-0.84528 -19.49098,-5.9071 0,-4.02595 2.05244,-4.75158 13.63863,-4.82191 14.35621,-0.0871 21.98031,-1.08103 23.42254,-3.05338 0.87445,-1.1959 1.23184,-4.56648 1.23184,-11.61758 0,-13.78209 0.85708,-13.1968 -20.16302,-13.76926 -13.27908,-0.36164 -16.57904,-0.70251 -17.26035,-1.78292 -1.19703,-1.89822 -1.06616,-3.84323 0.39304,-5.84091 1.14849,-1.57234 2.74668,-1.7689 17.67493,-2.17391 12.06524,-0.32733 16.80202,-0.76899 17.88383,-1.66747 2.00135,-1.66223 2.09554,-12.72044 0.12513,-14.69085 -1.63588,-1.63589 -5.20757,-2.11061 -21.35319,-2.83808 -6.85216,-0.30874 -13.16383,-0.93885 -14.02593,-1.40023 -1.17083,-0.62661 -1.56745,-1.94973 -1.56745,-5.22889 0,-4.98421 1.30474,-6.23375 6.50915,-6.23375 1.68526,0 4.33775,-0.25473 5.89443,-0.56607 2.53409,-0.50681 2.80207,-0.85594 2.56029,-3.3356 -0.33156,-3.40044 -1.95538,-3.8577 -14.23236,-4.00779 -6.33625,-0.0774 -8.95118,0.22672 -9.87286,1.14839 -1.0025,1.00251 -1.37216,7.1884 -1.84468,30.86884 -0.32501,16.2883 -0.59707,35.26024 -0.60457,42.15984 -0.007,6.89962 -0.39478,13.14587 -0.86063,13.88056 -0.72434,1.14237 -5.01589,1.33581 -29.63591,1.33581 -26.06087,0 -29.01727,-0.14963 -31.19864,-1.57897 -3.13743,-2.0558 -3.22766,-5.80224 -0.20807,-8.63899 2.11017,-1.9824 2.92275,-2.08645 19.55767,-2.50411 19.88272,-0.49922 21.67999,-1.05294 24.54313,-7.56136 3.09278,-7.03049 3.56708,-18.817 3.58116,-88.99468 0.007,-37.36612 0.33681,-68.44758 0.73179,-69.0699 1.02362,-1.61279 11.16808,9.15305 12.39451,13.15372 0.52552,1.71428 1.21437,13.67814 1.53076,26.58636 0.62052,25.31551 1.17056,28.66011 5.2065,31.65864 2.32634,1.72837 3.8713,1.88715 20.92905,2.15081 22.21625,0.34339 23.31229,0.0813 23.31229,-5.57452 0,-2.90691 -0.42535,-4.21816 -1.55844,-4.80433 -0.85714,-0.44343 -8.32333,-1.08851 -16.59154,-1.43353 -17.48459,-0.7296 -19.2525,-1.17185 -19.2525,-4.81612 0,-4.58126 1.43178,-4.98234 19.05072,-5.33678 9.09324,-0.18292 16.61087,-0.71955 17.23859,-1.23053 1.47214,-1.19834 1.47214,-10.1465 0,-11.09928 -0.61224,-0.39626 -8.65983,-0.92084 -17.88353,-1.16573 -15.28315,-0.40578 -16.88236,-0.59857 -18.03334,-2.17391 -1.69956,-2.32621 -1.58963,-4.34965 0.36763,-6.76677 1.55594,-1.9215 2.35684,-2.03369 17.49043,-2.44998 19.84611,-0.54592 19.17198,-0.10698 19.17198,-12.48359 0,-5.87617 -0.38884,-9.26692 -1.18806,-10.35991 -1.69065,-2.3121 -7.64945,-3.05335 -25.08273,-3.1202 -8.3265,-0.0319 -16.62544,-0.47086 -18.4421,-0.9754 -2.18659,-0.60729 -5.49759,-3.0737 -9.79589,-7.29712 l -6.49288,-6.37976 4.00741,-0.64673 c 2.20407,-0.3557 14.82741,-0.71638 28.05186,-0.80151 13.22444,-0.0851 25.0463,-0.43345 26.27079,-0.77406 1.94798,-0.54185 2.22633,-1.11421 2.22633,-4.57779 0,-3.67771 -0.18951,-3.99904 -2.6716,-4.5298 -1.46939,-0.3142 -14.69383,-0.65864 -29.38766,-0.76541 -14.69384,-0.10678 -27.71791,-0.47169 -28.9424,-0.81093 -2.50817,-0.69487 -4.74792,-4.52435 -3.91526,-6.69421 0.30226,-0.7877 1.40704,-1.62386 2.45505,-1.85814 1.04802,-0.23427 14.98616,-0.74668 30.97365,-1.13868 22.51781,-0.55213 29.40038,-0.98845 30.54239,-1.93624 1.09525,-0.90897 1.40631,-2.38847 1.21003,-5.75527 l -0.2642,-4.53178 -7.02247,-0.49731 c -5.91361,-0.4188 -7.28464,-0.82107 -8.68272,-2.54763 -2.10633,-2.6012 -2.09496,-4.08989 0.0476,-6.23245 1.92445,-1.92446 6.83044,-2.67389 19.54468,-2.98562 8.09167,-0.1984 8.39303,-0.13409 10.1306,2.16172 2.94221,3.88749 3.57431,20.96568 2.98922,80.76345 -0.48967,50.04544 -0.64128,54.00296 -2.20416,57.53612 -2.81349,6.36035 -6.33548,8.31454 -19.53421,10.83868 -1.63967,0.31357 -2.00299,0.88381 -1.78107,2.79544 0.30602,2.6361 1.82321,3.35824 8.89626,4.23434 5.68606,0.7043 9.65735,3.5761 12.29041,8.88768 l 2.20664,4.45139 0.0159,54.76791 c 0.0154,53.13977 -0.037,54.85781 -1.76138,57.79171 -3.28025,5.58103 -5.43424,6.50008 -17.07205,7.28426 -5.79189,0.39027 -16.74218,0.75787 -24.334,0.81687 -8.06425,0.0627 -15.09921,0.54922 -16.92016,1.1702 -5.06076,1.72581 -6.3358,5.51209 -6.89539,20.47605 -0.50309,13.45316 0.38905,32.05963 1.51587,31.61463 0.37221,-0.147 3.53432,-3.70765 7.02689,-7.91256 6.7533,-8.13069 10.45454,-10.8185 11.42282,-8.29519 0.77293,2.01423 -0.41344,15.89218 -1.87633,21.94905 -0.67988,2.81492 -0.972,5.27735 -0.64915,5.47207 0.32283,0.1947 13.38258,0.65045 29.02164,1.01277 28.13942,0.6519 28.45612,0.6802 30.50083,2.72491 2.53334,2.53334 2.68803,6.52491 0.36411,9.39539 l -1.70206,2.10235 -48.39054,0.70024 c -49.22908,0.71238 -194.67585,0.094 -200.0719,-0.85062 -6.16965,-1.08003 -7.04716,-10.38087 -1.19168,-12.63062 1.30491,-0.50137 11.49343,-1.1816 22.64114,-1.51162 11.14771,-0.33004 20.48648,-0.95265 20.75283,-1.38361 0.26634,-0.43096 -0.2199,-3.01741 -1.08053,-5.74767 -3.58848,-11.38397 3.98298,-10.85311 19.06158,1.33647 6.14956,4.97132 7.60179,5.49574 6.92133,2.49936 -0.25027,-1.10203 -0.86055,-3.80704 -1.35618,-6.01111 -0.49564,-2.20407 -1.16179,-9.31722 -1.48035,-15.807 -0.45008,-9.16926 -0.33045,-11.79959 0.53666,-11.79959 1.30479,0 4.64169,3.44206 9.45245,9.75033 1.88672,2.47403 3.9246,4.49823 4.52863,4.49823 1.65448,0 2.31629,-6.54978 1.96643,-19.4611 -0.35419,-13.07076 -1.21347,-15.22475 -7.27583,-18.23875 -10.13933,-5.04095 -45.42919,-6.33418 -153.33429,-5.61912 -107.93105,0.71524 -119.0305,1.69877 -124.48038,11.03026 -1.36011,2.32884 -1.72791,5.37019 -2.09623,17.33392 -0.52018,16.89673 0.051,18.96971 3.87498,14.06426 1.33635,-1.71428 4.63699,-5.45385 7.33475,-8.31013 l 4.905,-5.19326 0.78862,2.96692 c 0.93998,3.53641 0.20579,18.87884 -1.21701,25.43206 -1.70342,7.84576 -1.10903,8.21376 4.91658,3.04397 11.21403,-9.62129 20.92757,-12.55335 20.92757,-6.31704 0,1.47579 -0.60111,4.12191 -1.3358,5.88027 -0.73469,1.75837 -1.3358,3.70415 -1.3358,4.32396 0,0.86063 5.19226,1.28269 21.97232,1.78605 21.38762,0.64157 22.02746,0.71426 24.04446,2.73124 2.53416,2.53416 2.62419,5.24411 0.30081,9.05473 l -1.76465,2.89424 -45.20775,10e-4 c -24.86427,7.2e-4 -59.8348,0.13938 -77.71229,0.30813 -17.8775,0.16876 -54.030287,0.068 -80.339535,-0.22395 z m 56.510803,-19.67727 c 0.92891,-3.99063 -0.11992,-40.01217 -1.22514,-42.0773 -1.06641,-1.99261 -5.49066,-2.04756 -7.119,-0.0884 -0.935806,1.12594 -1.289028,6.16593 -1.50737,21.50835 -0.156841,11.02081 -0.04365,21.00014 0.25155,22.17629 0.484424,1.93007 0.94293,2.11211 4.70558,1.8682 3.9569,-0.25651 4.20576,-0.42873 4.89438,-3.38712 z m 15.92718,0.44526 c 0.77026,-3.63228 0.75374,-38.62989 -0.0196,-41.40988 -0.50784,-1.82567 -1.173,-2.22634 -3.696,-2.22634 -2.96363,0 -3.09885,0.1473 -3.67863,4.00741 -0.76327,5.08185 -0.8929,38.05386 -0.16037,40.78882 0.4642,1.73308 1.04766,2.00882 3.76862,1.78107 2.77062,-0.23191 3.29837,-0.64188 3.78593,-2.94108 z m 17.07643,-0.89053 c 1.0526,-4.77034 -0.0606,-40.53033 -1.30845,-42.03395 -0.52813,-0.63636 -2.09523,-1.15701 -3.48244,-1.15701 -3.31033,0 -3.40157,0.65439 -3.69972,26.53354 l -0.239,20.74506 3.9718,-0.26275 c 3.8441,-0.2543 3.99708,-0.37728 4.75781,-3.82489 z m 14.98294,0.89053 c 0.31154,-1.46938 0.56644,-10.68642 0.56644,-20.48231 0,-21.85654 -0.20125,-23.0631 -3.90686,-23.42429 -2.25899,-0.22018 -2.876,0.11048 -3.32345,1.78107 -0.71594,2.67299 -0.71594,40.61346 0,43.28644 0.44745,1.6706 1.06446,2.00126 3.32345,1.78108 2.27311,-0.22156 2.87627,-0.75278 3.34042,-2.94199 z m 325.92139,0.44527 c 0.77988,-2.8272 0.97812,-38.02867 0.23508,-41.74384 -0.46982,-2.3491 -0.95913,-2.78292 -3.13891,-2.78292 -1.95255,0 -2.79415,0.5571 -3.45083,2.28431 -0.94093,2.47483 -1.19558,39.59461 -0.29471,42.95809 0.80161,2.99287 5.77401,2.45771 6.64937,-0.71564 z m 17.04519,-0.44527 c 1.09031,-3.69793 -0.008,-41.41194 -1.24901,-42.90785 -1.45466,-1.75275 -5.8887,-1.48733 -6.42842,0.3848 -0.37865,1.31345 -0.99825,42.88118 -0.67111,45.02323 0.0604,0.39551 1.78631,0.59588 3.83533,0.44527 3.27314,-0.24059 3.82115,-0.59824 4.51321,-2.94545 z m 15.82779,0.83257 c 0.47767,-1.25637 0.86849,-8.04288 0.86849,-15.08113 0,-14.92358 -0.60768,-17.36544 -4.32159,-17.36544 -1.42153,0 -2.98904,0.50093 -3.48335,1.11317 -0.49797,0.6168 -1.06314,8.36026 -1.26745,17.36544 l -0.36872,16.25227 h 3.85207 c 3.31551,0 3.97302,-0.31817 4.72055,-2.28431 z m 18.70123,0 c 0.47768,-1.25637 0.8685,-10.84807 0.8685,-21.31488 0,-10.4668 -0.39082,-20.0585 -0.8685,-21.31487 -0.75661,-1.99006 -1.39038,-2.28431 -4.91998,-2.28431 -3.5296,0 -4.16337,0.29425 -4.91998,2.28431 -0.47768,1.25637 -0.8685,10.84807 -0.8685,21.31487 0,10.46681 0.39082,20.05851 0.8685,21.31488 0.75661,1.99006 1.39038,2.28431 4.91998,2.28431 3.5296,0 4.16337,-0.29425 4.91998,-2.28431 z M 73.373447,575.37743 c 4.273146,-4.01773 4.548385,-6.34053 4.548385,-38.38469 0,-38.54767 0.521632,-37.4119 -16.5614,-36.05983 -7.39358,0.58518 -7.979027,0.77566 -8.476527,2.75786 -1.037309,4.13296 -0.0395,4.80484 7.135664,4.80484 7.940259,0 9.448613,1.04305 9.428542,6.51999 -0.02284,6.23282 0.332175,6.10633 -19.064139,6.79171 -13.662673,0.48277 -17.786852,0.90789 -18.818802,1.93984 -0.753048,0.75305 -1.540255,3.7906 -1.829905,7.06095 -0.821241,9.27239 -0.962672,9.19716 18.504126,9.84364 8.978427,0.29816 16.410498,0.59871 16.515714,0.6679 1.359892,0.89413 1.892569,3.91679 1.025582,5.81963 -1.263966,2.77409 -2.381132,2.99026 -19.027588,3.68168 -7.346915,0.30517 -14.059325,0.75196 -14.916465,0.99288 -1.144131,0.32158 -1.558436,1.36455 -1.558436,3.9232 0,4.08537 -0.137146,4.03195 12.444002,4.8474 8.654953,0.56098 10.019373,1.19476 9.601845,4.46017 -0.207449,1.62242 -1.1924,1.84893 -11.057472,2.54283 -9.99956,0.70337 -10.869018,0.90817 -11.342164,2.67161 -0.713993,2.66109 -0.660786,6.3869 0.102103,7.14979 0.351368,0.35137 9.737338,0.51834 20.857713,0.37106 19.936708,-0.26406 20.250546,-0.29759 22.489222,-2.40246 z"
     id="path10"
     transform="scale(0.26458333)" /><path
     style="fill:#ffbf00;stroke:#3e1e17;stroke-width:1.34632;stroke-linecap:round;stroke-linejoin:round"
     d="m 271.31803,612.77075 c -4.59016,-0.39821 -6.39382,-0.95216 -7.34692,-2.25643 -1.58861,-2.17393 -1.5886,-3.27419 9e-5,-5.44806 1.2094,-1.65487 2.82037,-1.73974 37.74691,-1.98851 32.6023,-0.23222 36.63643,-0.10703 37.92024,1.17678 0.79015,0.79015 1.4305,2.30968 1.423,3.37674 -0.0282,4.00809 -1.23106,4.58233 -10.86178,5.18523 -11.26419,0.70516 -50.57801,0.67461 -58.88154,-0.0457 z"
     id="path11"
     transform="scale(0.26458333)" /><path
     style="fill:#ffbf00;stroke:#3e1e17;stroke-width:1.34632;stroke-linecap:round;stroke-linejoin:round"
     d="m 260.03629,577.0368 c -18.20361,-0.65535 -25.4729,-1.6232 -34.21176,-4.55505 -4.71385,-1.58147 -12.26186,-5.94065 -13.28304,-7.67131 -0.50665,-0.85866 2.4494,-20.87306 3.84552,-26.03663 1.77305,-6.55763 9.24379,-21.46961 13.31593,-26.57926 2.08692,-2.61863 6.35937,-6.62134 9.49433,-8.8949 3.13495,-2.27357 5.68617,-4.73957 5.66937,-5.48001 -0.0586,-2.58114 -7.54929,-15.58697 -9.53658,-16.55797 -3.97749,-1.94346 -5.57197,-4.10406 -5.57197,-7.55034 0,-2.99684 0.39562,-3.57134 3.85577,-5.59912 6.65237,-3.89855 6.74205,-2.41989 -1.65362,-27.26514 -8.1365,-24.0783 -9.07331,-26.31816 -13.1076,-31.33944 -3.16978,-3.94526 -2.94171,-5.8398 1.02479,-8.51283 6.17727,-4.16286 11.118,-1.60883 11.29805,5.84036 0.0975,4.03363 14.65793,50.01197 16.61254,52.45838 0.51407,0.64341 2.91961,1.11317 5.70033,1.11317 5.92864,0 5.9263,0.005 7.33661,-15.05618 1.18763,-12.68295 2.82892,-21.38681 6.06107,-32.14219 3.17777,-10.57444 4.59366,-12.98905 11.53951,-19.67904 6.52037,-6.28019 9.30653,-8.02293 17.15453,-10.73014 l 4.97557,-1.71636 6.67877,3.37265 c 12.77449,6.45085 21.0542,17.01831 25.66802,32.7603 4.89111,16.68807 6.5652,30.3288 6.86445,55.93249 l 0.24779,21.2016 5.15541,3.10443 c 8.04014,4.84153 20.57281,14.4536 23.87437,18.31072 6.76755,7.90636 11.11386,19.80142 14.41527,39.45195 l 1.49081,8.87357 -3.36762,2.91108 c -3.98374,3.44367 -10.81519,6.16304 -20.02561,7.97154 -12.67491,2.48876 -61.91201,3.48963 -101.52101,2.06367 z m -16.02964,-20.44687 c 0,-8.72473 -0.96827,-12.47291 -3.22214,-12.47291 -1.33008,0 -1.41999,0.94599 -0.86115,9.05999 0.62456,9.06816 1.65062,12.82068 3.23744,11.83997 0.46522,-0.28751 0.84585,-4.07969 0.84585,-8.42705 z m 107.94818,-0.96254 c 0.37645,-1.67765 0.44968,-4.95124 0.16273,-7.27462 l -0.52171,-4.22433 2.75438,0.55087 c 2.34749,0.4695 2.75439,0.28662 2.75439,-1.23788 0,-2.57775 -9.82563,-10.90137 -12.86853,-10.90137 -1.03447,0 -0.41449,3.5053 1.30916,7.40188 1.48446,3.35587 3.40235,13.32156 3.51706,18.27522 0.0542,2.34035 2.22171,0.39972 2.89252,-2.58977 z m -50.95392,-1.27505 c 0,-1.82713 -11.87474,-13.79746 -13.68728,-13.79746 -2.06321,0 -1.80431,1.43778 0.89653,4.97876 2.44573,3.20651 10.66995,10.16034 12.01654,10.16034 0.42581,0 0.77421,-0.60374 0.77421,-1.34164 z m 42.74569,-7.05011 c 0,-4.13303 -12.33027,-12.09056 -18.73444,-12.09056 -4.15031,0 -6.50408,2.26764 -4.14461,3.99294 0.8489,0.62073 3.16776,1.38833 5.15303,1.70579 4.09285,0.65447 14.49457,5.14246 15.43126,6.65806 0.87183,1.41066 2.29476,1.24557 2.29476,-0.26623 z m -72.57862,-2.72375 c 5.71446,-1.4985 9.63283,-3.83031 10.05754,-5.98523 0.14787,-0.75031 -1.86086,-2.93012 -4.61949,-5.0129 -5.09591,-3.84745 -14.22342,-14.2752 -21.21838,-24.24101 -6.16015,-8.77643 -6.12085,-8.75921 -11.61504,-5.09207 -6.1186,4.0839 -13.86351,11.79668 -14.53586,14.47555 -0.67319,2.68217 2.50678,7.43278 11.22247,16.76545 3.86479,4.13838 7.10223,6.84768 8.18254,6.84768 0.98317,0 2.61672,1.05409 3.63012,2.34243 1.74711,2.22107 2.14586,2.31545 7.69772,1.82183 3.22034,-0.28633 8.25961,-1.15111 11.19838,-1.92173 z m 39.07232,-7.56272 c 11.37222,-6.93367 18.91798,-12.39504 22.98639,-16.63678 3.16129,-3.29596 10.51991,-16.41877 10.51991,-18.7604 0,-3.05662 -3.10354,-0.099 -8.73689,8.32609 -4.06673,6.08208 -11.26851,12.19994 -22.12036,18.79105 -11.45069,6.95483 -11.74576,7.02635 -17.35327,4.20618 -16.01528,-8.05457 -24.04027,-15.58667 -32.45049,-30.4574 -4.15385,-7.34473 -5.21921,-8.15468 -8.45106,-6.42505 -2.70429,1.4473 -2.10846,3.40877 3.70827,12.20775 7.71055,11.66374 17.41518,20.54533 30.65768,28.05764 5.82793,3.30611 11.02772,6.01111 11.55509,6.01111 0.52736,0 4.88549,-2.39409 9.68473,-5.32019 z m -31.13034,-29.06069 c 2.52141,-0.96756 1.50079,-3.92458 -3.60116,-10.43352 l -5.0098,-6.39137 0.52595,-7.56955 c 0.56571,-8.14166 5.29686,-30.3065 9.17294,-42.97409 2.81552,-9.20154 5.95796,-13.33745 13.71303,-18.04841 2.92508,-1.77689 5.71695,-3.97555 6.20415,-4.8859 1.184,-2.21233 1.16913,-30.87974 -0.0164,-31.61244 -1.69662,-1.04857 -10.29837,2.17167 -15.16447,5.67711 -12.7582,9.19077 -17.21331,22.12136 -22.16693,64.33764 -1.01225,8.62668 -1.84045,19.66386 -1.84045,24.52709 v 8.84222 l 4.54968,7.97744 c 2.50233,4.38759 5.16925,8.67875 5.9265,9.53589 1.37452,1.55583 5.04261,2.04029 7.70696,1.01789 z m 47.3296,-2.3537 c 3.53465,-4.1874 7.50963,-13.06719 7.51045,-16.77772 3.8e-4,-1.75838 -0.76131,-6.16653 -1.69265,-9.79588 -4.82602,-18.80651 -22.15732,-53.0114 -25.27877,-49.88994 -0.72202,0.72202 -0.44448,1.88333 1.0344,4.32824 6.44584,10.65637 16.83297,35.3143 19.22659,45.64188 2.18311,9.41935 2.08001,9.86146 -5.24892,22.50632 -1.35491,2.33769 -2.23632,4.84232 -1.95868,5.56584 0.84738,2.20826 3.83157,1.473 6.40758,-1.57874 z m -21.05799,-21.26766 c 7.48648,-4.20128 14.32058,-8.86138 14.32058,-9.76503 0,-1.55822 -3.03542,-0.76619 -10.83753,2.8278 l -7.88406,3.63175 -7.95254,-4.07701 c -9.23394,-4.73395 -13.3695,-5.40042 -10.93735,-1.76262 1.46154,2.18604 15.02307,11.92486 16.61189,11.92934 0.93999,0.003 3.94554,-1.25025 6.67901,-2.78423 z m -60.03912,-12.54459 c 7.76248,-2.22111 11.13169,-3.92114 11.13169,-5.6168 0,-1.78772 -2.27698,-1.65117 -9.47944,0.56847 -6.81749,2.101 -12.78394,4.90273 -12.78394,6.00309 0,2.07037 0.79866,2.00187 11.13169,-0.95476 z m -18.64881,-66.98091 c 1.31304,-0.96911 1.48073,-1.52748 0.69746,-2.32246 -1.3624,-1.38278 -7.4289,0.5212 -7.4289,2.33157 0,1.67351 4.45985,1.66747 6.73144,-0.009 z"
     id="path12"
     transform="scale(0.26458333)" /><path
     style="fill:#ffbf00;stroke:#3e1e17;stroke-width:1.34632;stroke-linecap:round;stroke-linejoin:round"
     d="m 487.46857,609.71169 c -2.79755,-2.40635 -2.47506,-4.51206 0.92853,-6.06284 1.78374,-0.81272 2.65529,-0.72056 4.47767,0.47351 2.66353,1.74521 2.90877,4.14311 0.63426,6.20151 -2.16969,1.96355 -3.16305,1.86287 -6.04046,-0.61218 z"
     id="path13"
     transform="scale(0.26458333)" /><path
     style="fill:#ffbf00;stroke:#3e1e17;stroke-width:1.34632;stroke-linecap:round;stroke-linejoin:round"
     d="m 572.22884,566.44666 c -2.157,-2.38346 -1.43247,-4.75953 1.72723,-5.66435 3.77219,-1.08022 7.56343,0.50957 7.56343,3.17161 0,1.13865 -0.48089,2.55116 -1.06864,3.13891 -1.66299,1.66299 -6.47447,1.28485 -8.22202,-0.64617 z"
     id="path14"
     transform="scale(0.26458333)" /><path
     style="fill:#ffbf00;stroke:#3e1e17;stroke-width:1.34632;stroke-linecap:round;stroke-linejoin:round"
     d="m 567.93884,281.30544 c -4.86718,-1.85879 -1.86443,-7.91113 3.92495,-7.91113 3.45931,0 6.6448,1.39343 7.3426,3.21187 1.39271,3.62936 -5.99797,6.71173 -11.26755,4.69926 z"
     id="path15"
     transform="scale(0.26458333)" /><path
     style="fill:#ffbf00;stroke:#3e1e17;stroke-width:1.34632;stroke-linecap:round;stroke-linejoin:round"
     d="m 566.15777,220.7814 c -2.14129,-1.24718 -1.9865,-4.98012 0.25627,-6.18041 4.06441,-2.17521 7.83413,2.07959 4.80655,5.42503 -1.74056,1.92329 -2.78905,2.07973 -5.06282,0.75538 z"
     id="path16"
     transform="scale(0.26458333)" /></svg>
