<?xml version="1.0" encoding="UTF-8" standalone="no"?>
<!-- Created with Inkscape (http://www.inkscape.org/) -->

<svg
   width="173.9951mm"
   height="144.21066mm"
   viewBox="0 0 173.9951 144.21066"
   version="1.1"
   id="svg1"
   xml:space="preserve"
   sodipodi:docname="yunke.svg"
   inkscape:version="1.3 (0e150ed6c4, 2023-07-21)"
   xmlns:inkscape="http://www.inkscape.org/namespaces/inkscape"
   xmlns:sodipodi="http://sodipodi.sourceforge.net/DTD/sodipodi-0.dtd"
   xmlns="http://www.w3.org/2000/svg"
   xmlns:svg="http://www.w3.org/2000/svg"><sodipodi:namedview
     id="namedview1"
     pagecolor="#ffffff"
     bordercolor="#000000"
     borderopacity="0.25"
     inkscape:showpageshadow="2"
     inkscape:pageopacity="0.0"
     inkscape:pagecheckerboard="0"
     inkscape:deskcolor="#d1d1d1"
     inkscape:document-units="mm"
     inkscape:zoom="1.3929032"
     inkscape:cx="328.80964"
     inkscape:cy="272.45253"
     inkscape:window-width="1920"
     inkscape:window-height="1009"
     inkscape:window-x="-8"
     inkscape:window-y="-8"
     inkscape:window-maximized="1"
     inkscape:current-layer="svg1" /><defs
     id="defs1" /><g
     id="layer1"
     transform="translate(-21.048172,-46.153697)"><path
       style="fill:#000000"
       d="m 53.390104,189.45518 -0.909169,-0.90916 0.07573,-9.52087 0.07573,-9.52086 0.661458,-0.71693 c 0.363802,-0.39431 2.804583,-1.75356 5.423958,-3.02055 11.88974,-5.75106 18.23253,-12.01015 21.19042,-20.91079 0.66846,-2.01149 0.74857,-2.6261 0.75869,-5.82083 0.0107,-3.38116 -0.0268,-3.6442 -0.70329,-4.92647 -0.95046,-1.80171 -1.93871,-2.58558 -5.15838,-4.09158 -1.48389,-0.69408 -3.38889,-1.72989 -4.23334,-2.30178 -6.46065,-4.37543 -17.143276,-8.79092 -26.273892,-10.85987 -5.791953,-1.31243 -8.690831,-1.65661 -15.33878,-1.82115 l -6.210656,-0.15372 -0.711995,-0.71199 c -0.461348,-0.46135 -0.771661,-1.12299 -0.881484,-1.87949 -0.09322,-0.64212 -0.133182,-5.84995 -0.08881,-11.57295 l 0.08068,-10.405459 0.988302,-0.90548 0.988302,-0.90548 h 23.58011 c 22.354663,0 23.570043,-0.0241 23.386363,-0.46302 -0.44968,-1.07467 -0.57419,-2.6107 -0.45204,-5.576675 l 0.12973,-3.150007 -1.45222,-0.664851 c -2.91348,-1.333833 -3.46554,-2.885788 -3.33671,-9.380093 0.0859,-4.329509 0.11327,-4.522632 0.78489,-5.536663 0.62638,-0.945726 2.05678,-1.902493 3.48681,-2.332257 0.44645,-0.134172 0.47482,-0.570745 0.42316,-6.511976 -0.0808,-9.290893 -0.87086,-8.700073 11.66742,-8.724812 10.03363,-0.0198 9.63418,-0.08159 10.96245,1.695668 0.50665,0.677897 0.55123,1.152406 0.6257,6.659167 l 0.0802,5.92926 25.055229,0.07136 25.05524,0.07136 1.50155,0.703899 c 2.10229,0.985513 3.7629,2.61131 4.78233,4.682063 0.7876,1.599852 0.85987,1.958395 0.85987,4.265766 0,2.174889 -0.0962,2.72428 -0.70389,4.020654 -0.99811,2.129153 -2.60191,3.752696 -4.78684,4.845771 l -1.8564,0.928722 H 117.97432 93.032121 l -0.0915,3.676805 c -0.0788,3.16474 -0.16171,3.75431 -0.59555,4.23333 l -0.50403,0.55653 h 50.457279 c 55.84236,0 51.51314,-0.14414 52.40958,1.74498 0.9093,1.91619 0.0728,4.10254 -3.7859,9.895108 -2.926,4.39246 -5.46888,7.47994 -8.94779,10.86417 -7.11149,6.91792 -14.21615,11.29908 -23.85355,14.70952 -4.21189,1.49048 -10.59198,3.08081 -15.26531,3.80509 -2.03729,0.31574 -4.32133,0.74169 -5.07565,0.94655 -1.96188,0.53282 -3.49951,1.80759 -4.44842,3.68796 -0.76287,1.51171 -0.79446,1.71242 -0.7893,5.01433 0.006,3.99538 0.45998,5.84203 2.40533,9.78958 1.50555,3.0551 3.1752,5.26894 6.09629,8.08329 3.87283,3.73131 6.08427,5.1838 13.67575,8.98234 4.37326,2.18824 5.08627,2.63285 5.50938,3.43545 0.4443,0.84281 0.486,1.70211 0.486,10.01448 v 9.09257 l -0.89959,0.89958 -0.89958,0.89958 h -13.89678 -13.89679 l -0.82229,-0.69191 c -0.45226,-0.38055 -1.19497,-1.24376 -1.65045,-1.91823 -3.39686,-5.02999 -7.97436,-8.11396 -14.66514,-9.88027 -2.98865,-0.78897 -3.39075,-0.83011 -8.17043,-0.83581 -4.66004,-0.006 -5.22026,0.0466 -7.672909,0.71515 -6.45668,1.75983 -10.88037,4.78876 -14.07501,9.63727 -0.814,1.23541 -1.77139,2.3569 -2.2022,2.57968 -0.64566,0.33389 -2.81027,0.39412 -14.1632,0.39412 H 54.299274 Z m 16.512327,-10.93093 0.0721,-4.82865 h -5.29764 -5.29763 v 4.71841 c 0,2.59512 0.0819,4.80027 0.18193,4.90033 0.10006,0.10006 2.45154,0.14967 5.22552,0.11024 l 5.04359,-0.0717 z m 65.667699,-0.13229 -0.009,-5.09323 -2.55671,-1.71179 c -3.34166,-2.23734 -5.67237,-4.26937 -7.64302,-6.66357 -4.63833,-5.63526 -7.63933,-11.7803 -8.68699,-17.78806 -0.22583,-1.29499 -0.40956,-3.86566 -0.40956,-5.73026 0,-5.07687 0.78838,-8.42055 2.91503,-12.36323 2.6867,-4.98095 6.18425,-8.00888 11.41048,-9.87835 l 2.34874,-0.84017 -0.0689,-11.51339 -0.0689,-11.513399 -26.92357,-0.0791 -26.923569,-0.079 0.0684,14.728419 0.0684,14.72842 1.19062,0.79412 c 5.1095,3.4079 7.94484,10.00526 7.15281,16.64333 -0.74532,6.24659 -3.38252,11.82958 -8.31894,17.61132 -2.9556,3.46171 -6.18605,6.09846 -10.92642,8.91832 l -2.8472,1.69369 h 3.85854 3.85855 l 1.82539,-1.36251 c 2.40872,-1.7979 8.14151,-7.57893 9.68364,-9.76512 1.54199,-2.18599 2.83408,-4.56175 3.92671,-7.22008 0.88284,-2.1479 1.80911,-3.08034 3.06218,-3.08255 0.87189,-0.002 1.91571,0.98154 2.10317,1.9808 0.56265,2.99917 -3.10311,13.44563 -7.88503,22.47027 -0.68942,1.30109 -1.20668,2.41243 -1.14948,2.46964 0.0572,0.0572 0.79987,-0.36751 1.65036,-0.94381 3.6596,-2.47977 8.57501,-4.43498 13.0362,-5.18543 3.293319,-0.554 10.261949,-0.55918 13.411309,-0.01 7.97972,1.39155 15.81667,6.14924 19.84815,12.04952 1.12338,1.64413 1.33793,1.82842 2.12864,1.82842 h 0.87934 z M 84.749651,105.83007 c -0.38009,-0.20657 -0.84455,-0.74612 -1.03214,-1.199 -0.29035,-0.70096 -0.27632,-0.95919 0.0944,-1.73649 0.23948,-0.50219 0.74146,-1.02944 1.11551,-1.17165 0.37406,-0.14222 2.80634,-0.25858 5.40508,-0.25858 4.65247,0 4.73702,0.0101 5.51014,0.66068 0.43185,0.36338 0.86023,0.95972 0.95196,1.3252 0.19666,0.78358 -0.41317,2.10841 -1.1527,2.5042 -0.82206,0.43995 -10.04769,0.33462 -10.8922,-0.12436 z m 17.314459,-0.23659 c -0.58862,-0.50631 -0.73635,-0.85697 -0.73635,-1.74788 0,-0.8909 0.14773,-1.24156 0.73635,-1.74787 0.63507,-0.54626 1.00905,-0.63338 2.7191,-0.63338 2.11425,0 3.32329,0.41617 3.80073,1.30827 0.48708,0.91012 0.30721,1.87265 -0.50098,2.68084 -0.73379,0.73379 -0.88885,0.77339 -3.02795,0.77339 -1.99675,0 -2.33876,-0.0724 -2.9909,-0.63337 z m 11.95036,-0.005 c -0.35127,-0.35127 -0.71273,-0.93376 -0.80325,-1.29442 -0.19754,-0.78706 0.45216,-2.16384 1.21336,-2.57123 0.35205,-0.18841 2.53581,-0.25912 6.37065,-0.20628 l 5.83498,0.0804 0.63808,0.74235 c 0.88256,1.02681 0.83397,2.14516 -0.13532,3.11446 l -0.7734,0.77339 h -5.85321 c -5.83497,0 -5.85521,-0.002 -6.49189,-0.63867 z m 30.14725,62.47422 c -2.33742,-1.1946 -5.04261,-2.74108 -6.01154,-3.43662 -2.16286,-1.55261 -5.85576,-5.17036 -8.14005,-7.97442 -0.93879,-1.1524 -2.01402,-2.32136 -2.3894,-2.59768 -0.68652,-0.50535 -2.8481,-1.12504 -3.08789,-0.88525 -0.1859,0.1859 1.63848,3.43782 3.05526,5.44592 1.85434,2.62831 5.64771,6.20701 9.59018,9.04748 l 3.56037,2.56518 3.83646,0.004 3.83646,0.004 z m 7.43584,-57.74991 c 10.14604,-1.32207 21.43631,-5.37597 28.96089,-10.398739 1.52797,-1.01994 3.43297,-2.45212 4.23333,-3.18261 l 1.45521,-1.32818 -20.17448,-0.012 -20.17448,-0.012 v 7.672909 7.67292 h 1.26776 c 0.69727,0 2.69157,-0.18553 4.43177,-0.41228 z m -99.362036,-8.62277 v -6.653799 l -2.182813,0.16992 c -1.200547,0.0935 -6.617891,0.17064 -12.038542,0.17151 l -9.855729,0.002 v 6.482289 6.48229 h 12.038542 12.038542 z m 19.782227,0.14328 0.0708,-6.378239 -6.34567,-0.19135 c -3.49011,-0.10524 -6.46875,-0.11528 -6.619201,-0.0223 -0.30728,0.18991 -0.396302,12.626869 -0.09256,12.930619 0.09954,0.0995 3.046341,0.14915 6.548441,0.11024 l 6.36745,-0.0707 z m 10.53664,-18.531094 3.94468,-0.170783 -0.0543,-10.743279 -0.0543,-10.74328 -5.17118,-0.07174 -5.17117,-0.07174 v 10.985801 10.985804 h 1.28085 c 0.70447,0 3.05595,-0.0769 5.22552,-0.170785 z M 100.12511,70.111231 v -3.571875 h -3.571879 -3.57187 v 3.571875 3.571875 h 3.57187 3.571879 z m 7.67292,0 v -3.571875 h -1.45521 -1.45521 v 3.571875 3.571875 h 1.45521 1.45521 z m 7.14375,0 v -3.571875 h -1.32292 -1.32291 v 3.571875 3.571875 h 1.32291 1.32292 z m 7.67292,0 v -3.571875 h -1.45521 -1.45521 v 3.571875 3.571875 h 1.45521 1.45521 z m 7.27604,0 v -3.439584 l -1.38906,-0.07997 -1.38907,-0.07997 v 3.599529 3.599529 l 1.38907,-0.07997 1.38906,-0.07997 z M 141.26,73.079412 c 2.00178,-1.133775 2.77102,-3.190644 1.85543,-4.961217 -0.67324,-1.301899 -1.57514,-1.578839 -5.14176,-1.578839 h -3.18814 v 3.571875 3.571875 l 2.71198,-0.0044 c 2.3192,-0.0037 2.86412,-0.09052 3.76249,-0.599341 z M 86.366771,53.574772 v -1.5875 h -5.15937 -5.15938 v 1.5875 1.5875 h 5.15938 5.15937 z"
       id="path1" /></g><path
     style="fill:#ffbf00;stroke:#3e1e17;stroke-width:1.08537;stroke-linecap:round;stroke-linejoin:round"
     d="m 122.44096,541.35071 -3.50091,-3.55434 0.45596,-35.75205 0.45595,-35.75204 2.80439,-2.53213 c 1.54241,-1.39267 10.56766,-6.51729 20.0561,-11.38804 27.36562,-14.04773 39.88488,-22.49555 53.28107,-35.95333 4.14602,-4.16507 9.58972,-10.47768 12.09711,-14.02801 5.24395,-7.42514 12.02174,-20.9228 14.95777,-29.7877 1.95827,-5.91272 2.02108,-6.5709 2.02108,-21.17879 0,-14.53184 -0.0634,-15.20609 -1.75469,-18.66605 -2.99686,-6.1308 -7.93017,-10.16515 -19.48661,-15.93574 -5.69107,-2.84178 -14.54726,-7.78434 -19.68042,-10.98347 C 148.78225,283.79824 98.692329,266.20069 58.510886,261.70038 52.982864,261.08124 39.157794,260.30588 27.78851,259.97734 L 7.1170847,259.37999 4.9059718,257.30116 C 0.54390341,253.20006 0.64493721,254.3581 0.68193368,208.8855 l 0.0338045,-41.5494 3.67737622,-3.43993 3.6773761,-3.43994 88.5174205,-0.35896 c 48.684579,-0.19743 88.714829,-0.55646 88.956129,-0.79784 0.24128,-0.24138 0.0264,-1.37211 -0.4775,-2.51273 -0.64676,-1.46399 -0.91657,-6.45492 -0.91749,-16.97146 l -10e-4,-14.89758 -4.35763,-2.06145 c -5.86964,-2.77673 -9.12733,-5.79329 -11.14085,-10.31624 -1.56011,-3.50445 -1.70005,-4.89723 -1.95707,-19.478198 -0.34555,-19.602884 -0.0152,-22.525432 2.99192,-26.468012 2.63306,-3.452185 6.86091,-6.583284 10.51504,-7.787334 1.38201,-0.455376 2.82251,-1.11485 3.20111,-1.465496 0.41009,-0.379811 0.70514,-9.994732 0.72987,-23.784279 0.0453,-25.2807672 0.23829,-26.6240328 4.28178,-29.8046432 3.75861,-2.9565238 8.21524,-3.30185634 41.08298,-3.18341638 35.06386,0.12635357 35.1607,0.13964567 38.74965,5.31850568 2.61098,3.7676406 3.02937,7.9569369 3.0867,30.9065579 l 0.0444,17.768644 h 94.53419 94.53418 l 6.06306,2.934688 c 8.08667,3.914172 14.47093,10.2224 18.46399,18.244099 l 2.85896,5.743399 -0.0206,9.333025 c -0.0176,7.94458 -0.25762,9.92045 -1.61379,13.28161 -3.54156,8.77753 -10.90167,16.11989 -21.4982,21.44636 l -4.46656,2.24517 h -94.42761 -94.42761 l -0.0524,10.58939 c -0.0662,13.36676 -0.6539,17.61747 -2.74352,19.84177 l -1.61863,1.72295 184.73971,0.3653 c 182.0765,0.36004 197.70507,0.56855 201.67031,2.69068 2.28405,1.2224 3.67478,5.55028 3.37654,10.50771 -0.35276,5.86361 -4.57066,14.38354 -14.44525,29.17859 -11.17755,16.74725 -18.27987,25.47316 -31.70189,38.94891 -26.39429,26.49997 -49.20063,41.58242 -83.30001,55.08856 -18.6144,7.37283 -41.60355,13.47616 -69.28516,18.39434 -8.89577,1.5805 -17.54135,3.35602 -19.21238,3.94561 -6.46723,2.28176 -11.60224,7.08181 -15.4174,14.41169 -1.95898,3.76371 -2.73711,14.32131 -1.91737,26.01496 0.73778,10.52455 2.98579,17.94519 8.99559,29.69426 5.84547,11.42782 11.43854,18.7848 22.43866,29.51523 15.09095,14.72098 21.92807,19.32385 50.00467,33.66402 8.68653,4.43667 17.19897,9.01926 18.91651,10.18353 5.48716,3.71958 5.38032,2.94617 5.70963,41.33435 l 0.29167,34.00062 -3.45818,3.51096 -3.45818,3.51098 H 468.6775 416.44645 l -2.62751,-2.30699 c -1.44514,-1.26884 -5.06507,-5.54947 -8.04431,-9.5125 -12.9067,-17.16874 -26.15464,-26.53999 -47.1711,-33.36761 -14.38548,-4.67341 -17.38651,-5.06776 -38.5582,-5.06672 -17.52815,8.7e-4 -19.38837,0.1253 -26.05505,1.74281 -25.76989,6.25246 -42.03956,17.08595 -56.68092,37.74214 -2.0991,2.96144 -4.82444,6.33434 -6.05631,7.49533 -2.21252,2.08523 -2.37289,2.11733 -13.18573,2.63927 -6.02028,0.2906 -29.21135,0.55219 -51.53571,0.58132 l -40.58975,0.053 z m 62.31562,-29.94084 c 0.25744,-4.20744 0.46807,-12.60717 0.46807,-18.66605 v -11.01616 h -20.46087 -20.46086 v 12.09444 c 0,6.65193 0.20991,15.05166 0.46647,18.66605 l 0.46647,6.57161 h 19.52633 19.52633 z m 248.14291,-11.91356 -0.009,-19.56346 -5.55353,-3.58962 c -13.86414,-8.96134 -23.91535,-17.44501 -31.89663,-26.92219 -16.36049,-19.42684 -28.2538,-42.76727 -33.01607,-64.79343 -2.20632,-10.20455 -2.39592,-37.05785 -0.32822,-46.48494 3.64156,-16.60256 12.22686,-32.70926 23.37217,-43.84799 8.50344,-8.49842 15.70959,-12.91989 29.76652,-18.26382 l 7.81205,-2.96986 -0.13879,-43.72331 c -0.0763,-24.04782 -0.19955,-43.78209 -0.27383,-43.85392 -0.0743,-0.0718 -46.14083,-0.24031 -102.37014,-0.37436 l -102.2351,-0.24373 0.46768,17.58916 c 0.25722,9.67404 0.46896,34.87321 0.47052,55.99815 l 0.003,38.40899 3.40069,2.1486 c 1.87038,1.18172 5.62056,4.24271 8.33373,6.80217 23.25014,21.93301 26.5747,57.04209 8.76424,92.55513 -6.46626,12.89333 -16.277,26.52043 -26.78601,37.20571 -10.20946,10.3807 -20.57834,18.2416 -36.28744,27.51044 -4.99825,2.94911 -9.09462,5.60432 -9.10305,5.90046 -0.008,0.29615 6.64187,0.53845 14.77845,0.53845 h 14.79377 l 6.20553,-4.82591 c 7.42349,-5.77308 25.60221,-23.4113 32.39243,-31.4293 6.84883,-8.08723 10.69177,-14.32888 17.66255,-28.68735 6.05432,-12.4707 7.90061,-15.00214 11.62318,-15.93644 2.45837,-0.61702 6.35684,1.42804 8.06597,4.23124 1.80411,2.95899 1.81549,6.89247 0.0442,15.26517 -3.54189,16.74165 -12.32153,39.38206 -25.68738,66.24102 -4.17891,8.39759 -7.41193,15.45441 -7.18451,15.68183 0.22742,0.22742 4.39476,-1.99211 9.26076,-4.93229 16.43598,-9.93108 33.305,-16.26867 49.05107,-18.42818 16.48367,-2.26067 41.6262,-1.46806 54.74682,1.72587 26.3773,6.421 52.0811,22.4609 65.93409,41.14475 6.57475,8.86754 7.28151,9.48641 10.83368,9.48641 h 3.09634 z m 47.75128,-31.10969 c -0.78971,-0.59985 -5.94224,-3.37933 -11.45006,-6.1766 -12.77642,-6.48882 -22.66444,-12.16143 -27.67685,-15.87781 -5.64105,-4.18249 -21.26089,-19.60204 -29.23369,-28.85883 -8.00168,-9.29033 -9.48088,-10.56622 -14.04638,-12.11572 -3.58604,-1.21708 -7.70123,-1.55326 -7.6806,-0.62745 0.0243,1.08956 6.67393,12.91357 10.39658,18.48657 7.55106,11.30431 21.55829,24.55185 41.35673,39.11373 l 9.61728,7.07356 15.07642,0.0366 c 13.63269,0.0331 14.93893,-0.0678 13.64057,-1.05405 z M 491.65259,243.0044 c 44.27612,-5.48149 91.33103,-23.56576 121.40792,-46.65983 3.77724,-2.9003 7.98106,-6.42723 9.3418,-7.83764 l 2.47409,-2.56436 h -76.59984 -76.59985 v 29.07596 29.07596 h 5.58536 c 3.07194,0 9.54768,-0.49054 14.39052,-1.09009 z M 118.45762,209.88925 v -25.59016 l -4.84599,0.46356 c -2.6653,0.25496 -23.341538,0.67762 -45.947201,0.93926 l -41.101205,0.4757 v 24.65089 24.65089 h 45.947199 45.947197 z m 73.94627,24.3789 c 0.19743,-0.18826 0.45921,-11.08739 0.58173,-24.22029 l 0.22277,-23.878 -10.27372,-0.46998 c -5.65054,-0.25849 -16.79404,-0.47116 -24.76331,-0.47261 -13.18909,-0.002 -14.521,0.11014 -14.83934,1.25374 -0.40067,1.43938 -0.79967,28.18012 -0.59932,40.16628 l 0.13437,8.03914 3.76911,0.3069 c 4.7118,0.38366 45.27897,-0.25911 45.76771,-0.72518 z m 50.43423,-94.02919 4.846,-0.42911 -0.011,-39.931559 c -0.006,-21.962352 -0.24835,-40.289474 -0.53845,-40.726929 -0.35359,-0.533195 -6.97614,-0.922465 -20.0909,-1.180932 l -19.56346,-0.385557 v 42.021324 42.021323 l 15.25591,-0.47972 c 8.39074,-0.26385 17.4366,-0.67283 20.10189,-0.90884 z M 411.37101,90.401832 V 76.817973 h -5.38443 -5.38444 l -0.002,13.820056 -0.002,13.820051 5.38611,-0.23619 5.38611,-0.23621 z m -111.99629,0.05672 V 76.817973 h -13.99954 -13.99954 v 13.640575 13.640572 h 13.99954 13.99954 z m 28.717,0 V 76.817973 h -5.7434 -5.7434 v 13.640575 13.640572 h 5.7434 5.7434 z m 27.28115,0 V 76.817973 h -5.38444 -5.38444 v 13.640575 13.640572 h 5.38444 5.38444 z m 28.717,0 V 76.817973 h -5.7434 -5.7434 v 13.640575 13.640572 h 5.7434 5.7434 z m 68.45762,12.653498 c 8.07311,-3.373162 12.49995,-12.346629 9.52976,-19.317364 -2.45274,-5.75633 -6.14366,-6.934043 -21.80976,-6.959156 l -10.94835,-0.01755 v 13.640575 13.640575 h 10.43297 c 7.22776,0 11.15875,-0.30325 12.79538,-0.98707 z M 246.96619,27.999074 v -6.461325 h -19.74293 -19.74294 v 6.461325 6.461325 h 19.74294 19.74293 z"
     id="path2"
     transform="scale(0.26458333)" /><path
     style="fill:#ffbf00;stroke:#3e1e17;stroke-width:1.08537;stroke-linecap:round;stroke-linejoin:round"
     d="m 247.50167,226.19722 c -6.89814,-0.60543 -8.23114,-1.32975 -10.24068,-5.56455 -1.15039,-2.42426 -1.13215,-2.62764 0.52542,-5.85761 2.47102,-4.81506 3.57725,-5.0526 23.75342,-5.10044 18.70291,-0.0444 19.83751,0.16493 22.70186,4.18754 2.58404,3.62894 1.45938,9.17857 -2.34105,11.55198 -1.80682,1.12838 -24.56245,1.6464 -34.39897,0.78308 z"
     id="path3"
     transform="scale(0.26458333)" /><path
     style="fill:#ffbf00;stroke:#3e1e17;stroke-width:1.08537;stroke-linecap:round;stroke-linejoin:round"
     d="m 309.66467,226.10908 c -6.93506,-2.10712 -8.07485,-11.30557 -1.87563,-15.1369 2.13784,-1.32126 3.29064,-1.46629 9.75354,-1.22705 8.69746,0.32196 11.72087,1.63935 13.30312,5.79657 0.89281,2.34578 0.8574,2.89828 -0.34029,5.30877 -2.28062,4.59004 -4.43473,5.63357 -11.97712,5.80216 -3.62444,0.081 -7.61306,-0.16359 -8.86362,-0.54355 z"
     id="path4"
     transform="scale(0.26458333)" /><path
     style="fill:#ffbf00;stroke:#3e1e17;stroke-width:1.08537;stroke-linecap:round;stroke-linejoin:round"
     d="m 355.75607,226.15159 c -3.73089,-0.71747 -6.84562,-4.30267 -6.84185,-7.87528 0.003,-3.17288 2.28524,-7.01995 4.7109,-7.94219 1.04769,-0.39833 11.13118,-0.70003 23.39664,-0.70003 21.46446,0 21.56126,0.007 22.94148,1.61534 4.31877,5.0331 4.35149,8.57352 0.11928,12.90769 l -2.64348,2.70717 -19.41776,-0.0826 c -10.67976,-0.0454 -20.69911,-0.32897 -22.26521,-0.63014 z"
     id="path5"
     transform="scale(0.26458333)" /></svg>
